{
    "asset" : {
        "generator" : "Khronos glTF Blender I/O v0.9.36",
        "version" : "2.0"
    },
    "scene" : 0,
    "scenes" : [
        {
            "name" : "Scene",
            "nodes" : [
                0,
                1,
                2,
                3
            ]
        }
    ],
    "nodes" : [
        {
            "name" : "Light",
            "rotation" : [
                0.16907575726509094,
                0.7558803558349609,
                -0.27217137813568115,
                0.570947527885437
            ],
            "translation" : [
                4.076245307922363,
                5.903861999511719,
                -1.0054539442062378
            ]
        },
        {
            "name" : "Camera",
            "rotation" : [
                0.483536034822464,
                0.33687159419059753,
                -0.20870360732078552,
                0.7804827094078064
            ],
            "translation" : [
                7.358891487121582,
                4.958309173583984,
                6.925790786743164
            ]
        },
        {
            "mesh" : 0,
            "name" : "Circle"
        },
        {
            "mesh" : 1,
            "name" : "Torus.001",
            "scale" : [
                1.238004446029663,
                1,
                1.238004446029663
            ],
            "translation" : [
                0,
                0.5098904967308044,
                0
            ]
        }
    ],
    "materials" : [
        {
            "doubleSided" : true,
            "name" : "Material.002",
            "pbrMetallicRoughness" : {
                "baseColorTexture" : {
                    "index" : 0,
                    "texCoord" : 0
                },
                "metallicFactor" : 0,
                "roughnessFactor" : 0.5
            }
        },
        {
            "doubleSided" : true,
            "name" : "Material.001",
            "pbrMetallicRoughness" : {
                "baseColorFactor" : [
                    0.800000011920929,
                    0.800000011920929,
                    0.800000011920929,
                    1
                ],
                "metallicFactor" : 0,
                "roughnessFactor" : 0.5
            }
        }
    ],
    "meshes" : [
        {
            "name" : "Circle.001",
            "primitives" : [
                {
                    "attributes" : {
                        "POSITION" : 0,
                        "NORMAL" : 1,
                        "TEXCOORD_0" : 2
                    },
                    "indices" : 3,
                    "material" : 0
                },
                {
                    "attributes" : {
                        "POSITION" : 4,
                        "NORMAL" : 5,
                        "TEXCOORD_0" : 6
                    },
                    "indices" : 7,
                    "material" : 1
                }
            ]
        },
        {
            "name" : "Torus.001",
            "primitives" : [
                {
                    "attributes" : {
                        "POSITION" : 8,
                        "NORMAL" : 9,
                        "TEXCOORD_0" : 10
                    },
                    "indices" : 11,
                    "material" : 1
                }
            ]
        }
    ],
    "textures" : [
        {
            "source" : 0
        }
    ],
    "images" : [
        {
            "mimeType" : "image/png",
            "name" : "texture",
            "uri" : "texture.png"
        }
    ],
    "accessors" : [
        {
            "bufferView" : 0,
            "componentType" : 5126,
            "count" : 36864,
            "max" : [
                0.4491231143474579,
                0.5098723769187927,
                0.44912293553352356
            ],
            "min" : [
                -0.44912248849868774,
                0.00031860225135460496,
                -0.4491225779056549
            ],
            "type" : "VEC3"
        },
        {
            "bufferView" : 1,
            "componentType" : 5126,
            "count" : 36864,
            "type" : "VEC3"
        },
        {
            "bufferView" : 2,
            "componentType" : 5126,
            "count" : 36864,
            "type" : "VEC2"
        },
        {
            "bufferView" : 3,
            "componentType" : 5123,
            "count" : 55296,
            "type" : "SCALAR"
        },
        {
            "bufferView" : 4,
            "componentType" : 5126,
            "count" : 21504,
            "max" : [
                0.4476199448108673,
                0.5099355578422546,
                0.447619765996933
            ],
            "min" : [
                -0.44761931896209717,
                0.030135182663798332,
                -0.44761940836906433
            ],
            "type" : "VEC3"
        },
        {
            "bufferView" : 5,
            "componentType" : 5126,
            "count" : 21504,
            "type" : "VEC3"
        },
        {
            "bufferView" : 6,
            "componentType" : 5126,
            "count" : 21504,
            "type" : "VEC2"
        },
        {
            "bufferView" : 7,
            "componentType" : 5123,
            "count" : 32256,
            "type" : "SCALAR"
        },
        {
            "bufferView" : 8,
            "componentType" : 5126,
            "count" : 9360,
            "max" : [
                0.3854999840259552,
                0.015943102538585663,
                0.3854999840259552
            ],
            "min" : [
                -0.3854999840259552,
                -0.01594310998916626,
                -0.3854999840259552
            ],
            "type" : "VEC3"
        },
        {
            "bufferView" : 9,
            "componentType" : 5126,
            "count" : 9360,
            "type" : "VEC3"
        },
        {
            "bufferView" : 10,
            "componentType" : 5126,
            "count" : 9360,
            "type" : "VEC2"
        },
        {
            "bufferView" : 11,
            "componentType" : 5123,
            "count" : 14040,
            "type" : "SCALAR"
        }
    ],
    "bufferViews" : [
        {
            "buffer" : 0,
            "byteLength" : 442368,
            "byteOffset" : 0
        },
        {
            "buffer" : 0,
            "byteLength" : 442368,
            "byteOffset" : 442368
        },
        {
            "buffer" : 0,
            "byteLength" : 294912,
            "byteOffset" : 884736
        },
        {
            "buffer" : 0,
            "byteLength" : 110592,
            "byteOffset" : 1179648
        },
        {
            "buffer" : 0,
            "byteLength" : 258048,
            "byteOffset" : 1290240
        },
        {
            "buffer" : 0,
            "byteLength" : 258048,
            "byteOffset" : 1548288
        },
        {
            "buffer" : 0,
            "byteLength" : 172032,
            "byteOffset" : 1806336
        },
        {
            "buffer" : 0,
            "byteLength" : 64512,
            "byteOffset" : 1978368
        },
        {
            "buffer" : 0,
            "byteLength" : 112320,
            "byteOffset" : 2042880
        },
        {
            "buffer" : 0,
            "byteLength" : 112320,
            "byteOffset" : 2155200
        },
        {
            "buffer" : 0,
            "byteLength" : 74880,
            "byteOffset" : 2267520
        },
        {
            "buffer" : 0,
            "byteLength" : 28080,
            "byteOffset" : 2342400
        }
    ],
    "buffers" : [
        {
            "byteLength" : 2370480,
            "uri" : "scene.bin"
        }
    ]
}
