{
    "asset" : {
        "generator" : "Khronos glTF Blender I/O v0.9.36",
        "version" : "2.0"
    },
    "scene" : 0,
    "scenes" : [
        {
            "name" : "Scene",
            "nodes" : [
                0,
                1,
                2
            ]
        }
    ],
    "nodes" : [
        {
            "name" : "Light",
            "rotation" : [
                0.16907575726509094,
                0.7558803558349609,
                -0.27217137813568115,
                0.570947527885437
            ],
            "translation" : [
                6.838441848754883,
                5.903861999511719,
                -1.0054539442062378
            ]
        },
        {
            "name" : "Camera",
            "rotation" : [
                0.17693325877189636,
                0.7715651392936707,
                -0.5603957772254944,
                0.24359478056430817
            ],
            "translation" : [
                1.711291790008545,
                1.454391360282898,
                -2.620579481124878
            ]
        },
        {
            "mesh" : 0,
            "name" : "Circle.001",
            "scale" : [
                0.9367120265960693,
                1.2578116655349731,
                0.9367120265960693
            ]
        }
    ],
    "materials" : [
        {
            "doubleSided" : true,
            "name" : "Material",
            "pbrMetallicRoughness" : {
                "baseColorTexture" : {
                    "index" : 0,
                    "texCoord" : 0
                },
                "metallicFactor" : 0,
                "roughnessFactor" : 0.4000000059604645
            }
        },
        {
            "doubleSided" : true,
            "name" : "Material.001",
            "pbrMetallicRoughness" : {
                "baseColorFactor" : [
                    0.800000011920929,
                    0.800000011920929,
                    0.800000011920929,
                    1
                ],
                "metallicFactor" : 0,
                "roughnessFactor" : 0.5
            }
        }
    ],
    "meshes" : [
        {
            "name" : "Circle.005",
            "primitives" : [
                {
                    "attributes" : {
                        "POSITION" : 0,
                        "NORMAL" : 1,
                        "TEXCOORD_0" : 2
                    },
                    "indices" : 3,
                    "material" : 0
                },
                {
                    "attributes" : {
                        "POSITION" : 4,
                        "NORMAL" : 5,
                        "TEXCOORD_0" : 6
                    },
                    "indices" : 7,
                    "material" : 1
                }
            ]
        }
    ],
    "textures" : [
        {
            "source" : 0
        }
    ],
    "images" : [
        {
            "mimeType" : "image/png",
            "name" : "12-DW-INTENSO-6-7-20-1",
            "uri" : "12-DW-INTENSO-6-7-20-1.png"
        }
    ],
    "accessors" : [
        {
            "bufferView" : 0,
            "componentType" : 5126,
            "count" : 24576,
            "max" : [
                0.45120969414711,
                0.8819249868392944,
                0.45120957493782043
            ],
            "min" : [
                -0.4512098431587219,
                0.050678227096796036,
                -0.4512099325656891
            ],
            "type" : "VEC3"
        },
        {
            "bufferView" : 1,
            "componentType" : 5126,
            "count" : 24576,
            "type" : "VEC3"
        },
        {
            "bufferView" : 2,
            "componentType" : 5126,
            "count" : 24576,
            "type" : "VEC2"
        },
        {
            "bufferView" : 3,
            "componentType" : 5123,
            "count" : 36864,
            "type" : "SCALAR"
        },
        {
            "bufferView" : 4,
            "componentType" : 5126,
            "count" : 31744,
            "max" : [
                0.47023484110832214,
                0.9263637065887451,
                0.4686458110809326
            ],
            "min" : [
                -0.47056499123573303,
                -0.0017868587747216225,
                -0.4721539616584778
            ],
            "type" : "VEC3"
        },
        {
            "bufferView" : 5,
            "componentType" : 5126,
            "count" : 31744,
            "type" : "VEC3"
        },
        {
            "bufferView" : 6,
            "componentType" : 5126,
            "count" : 31744,
            "type" : "VEC2"
        },
        {
            "bufferView" : 7,
            "componentType" : 5123,
            "count" : 47616,
            "type" : "SCALAR"
        }
    ],
    "bufferViews" : [
        {
            "buffer" : 0,
            "byteLength" : 294912,
            "byteOffset" : 0
        },
        {
            "buffer" : 0,
            "byteLength" : 294912,
            "byteOffset" : 294912
        },
        {
            "buffer" : 0,
            "byteLength" : 196608,
            "byteOffset" : 589824
        },
        {
            "buffer" : 0,
            "byteLength" : 73728,
            "byteOffset" : 786432
        },
        {
            "buffer" : 0,
            "byteLength" : 380928,
            "byteOffset" : 860160
        },
        {
            "buffer" : 0,
            "byteLength" : 380928,
            "byteOffset" : 1241088
        },
        {
            "buffer" : 0,
            "byteLength" : 253952,
            "byteOffset" : 1622016
        },
        {
            "buffer" : 0,
            "byteLength" : 95232,
            "byteOffset" : 1875968
        }
    ],
    "buffers" : [
        {
            "byteLength" : 1971200,
            "uri" : "8ozCup.bin"
        }
    ]
}
