{
  "accessors": [
    {
      "bufferView": 2,
      "componentType": 5126,
      "count": 53184,
      "max": [
        0.43838605284690857,
        0.88192498683929443,
        0.43838596343994141
      ],
      "min": [
        -0.43838620185852051,
        0,
        -0.43838632106781006
      ],
      "type": "VEC3"
    },
    {
      "bufferView": 2,
      "byteOffset": 638208,
      "componentType": 5126,
      "count": 53184,
      "max": [
        0.9999244213104248,
        0.44472432136535645,
        0.9999244213104248
      ],
      "min": [
        -0.99992448091506958,
        -1,
        -0.99992436170578003
      ],
      "type": "VEC3"
    },
    {
      "bufferView": 1,
      "componentType": 5126,
      "count": 53184,
      "max": [
        0.92812323570251465,
        1
      ],
      "min": [
        -0.0012785673607140779,
        0.02037346363067627
      ],
      "type": "VEC2"
    },
    {
      "bufferView": 0,
      "componentType": 5125,
      "count": 79872,
      "max": [
        53183
      ],
      "min": [
        0
      ],
      "type": "SCALAR"
    },
    {
      "bufferView": 2,
      "byteOffset": 1276416,
      "componentType": 5126,
      "count": 53248,
      "max": [
        0.47023484110832214,
        0.92636370658874512,
        0.46864581108093262
      ],
      "min": [
        -0.47056499123573303,
        0.05904759094119072,
        -0.47215396165847778
      ],
      "type": "VEC3"
    },
    {
      "bufferView": 2,
      "byteOffset": 1915392,
      "componentType": 5126,
      "count": 53248,
      "max": [
        0.99992448091506958,
        0.99141734838485718,
        0.9999244213104248
      ],
      "min": [
        -0.99992448091506958,
        -1,
        -0.9999244213104248
      ],
      "type": "VEC3"
    },
    {
      "bufferView": 1,
      "byteOffset": 425472,
      "componentType": 5126,
      "count": 53248,
      "max": [
        0.92690825462341309,
        1
      ],
      "min": [
        0,
        0.030561208724975586
      ],
      "type": "VEC2"
    },
    {
      "bufferView": 0,
      "byteOffset": 319488,
      "componentType": 5125,
      "count": 79872,
      "max": [
        53247
      ],
      "min": [
        0
      ],
      "type": "SCALAR"
    }
  ],
  "asset": {
    "extras": {
      "author": "shivamc199941 (https://sketchfab.com/shivamc199941)",
      "license": "CC-BY-4.0 (http://creativecommons.org/licenses/by/4.0/)",
      "source": "https://sketchfab.com/3d-models/8oz-cup-fe6174916eff4a8f9a21e59f4c43fafc",
      "title": "8oz Cup"
    },
    "generator": "Sketchfab-8.89.2",
    "version": "2.0"
  },
  "bufferViews": [
    {
      "buffer": 0,
      "byteLength": 638976,
      "byteOffset": 0,
      "name": "floatBufferViews",
      "target": 34963
    },
    {
      "buffer": 0,
      "byteLength": 851456,
      "byteOffset": 638976,
      "byteStride": 8,
      "name": "floatBufferViews",
      "target": 34962
    },
    {
      "buffer": 0,
      "byteLength": 2554368,
      "byteOffset": 1490432,
      "byteStride": 12,
      "name": "floatBufferViews",
      "target": 34962
    }
  ],
  "buffers": [
    {
      "byteLength": 4044800,
      "uri": "scene.bin"
    }
  ],
  "images": [
    {
      "uri": "textures/Material_baseColor.png"
    }
  ],
  "materials": [
    {
      "doubleSided": true,
      "emissiveFactor": [
        0,
        0,
        0
      ],
      "name": "Material",
      "pbrMetallicRoughness": {
        "baseColorFactor": [
          1,
          1,
          1,
          1
        ],
        "baseColorTexture": {
          "index": 0,
          "texCoord": 0
        },
        "metallicFactor": 0,
        "roughnessFactor": 0.40000000000000002
      }
    },
    {
      "doubleSided": true,
      "emissiveFactor": [
        0,
        0,
        0
      ],
      "name": "Material.001",
      "pbrMetallicRoughness": {
        "baseColorFactor": [
          0.80000000000000004,
          0.80000000000000004,
          0.80000000000000004,
          1
        ],
        "metallicFactor": 0,
        "roughnessFactor": 0.5
      }
    }
  ],
  "meshes": [
    {
      "primitives": [
        {
          "attributes": {
            "NORMAL": 1,
            "POSITION": 0,
            "TEXCOORD_0": 2
          },
          "indices": 3,
          "material": 0,
          "mode": 4
        }
      ]
    },
    {
      "primitives": [
        {
          "attributes": {
            "NORMAL": 5,
            "POSITION": 4,
            "TEXCOORD_0": 6
          },
          "indices": 7,
          "material": 1,
          "mode": 4
        }
      ]
    }
  ],
  "nodes": [
    {
      "children": [
        1
      ],
      "name": "RootNode (gltf orientation matrix)",
      "rotation": [
        -0.70710678118654746,
        -0,
        -0,
        0.70710678118654757
      ]
    },
    {
      "children": [
        2
      ],
      "name": "RootNode (model correction matrix)"
    },
    {
      "children": [
        3
      ],
      "name": "root"
    },
    {
      "children": [
        4
      ],
      "matrix": [
        1,
        0,
        0,
        0,
        0,
        2.2204460492503131e-16,
        1,
        0,
        0,
        -1,
        2.2204460492503131e-16,
        0,
        0,
        0,
        0,
        1
      ],
      "name": "GLTF_SceneRootNode"
    },
    {
      "children": [
        5,
        6
      ],
      "name": "Circle.001_2"
    },
    {
      "mesh": 0,
      "name": ""
    },
    {
      "mesh": 1,
      "name": ""
    }
  ],
  "samplers": [
    {
      "magFilter": 9729,
      "minFilter": 9987,
      "wrapS": 10497,
      "wrapT": 10497
    }
  ],
  "scene": 0,
  "scenes": [
    {
      "name": "OSG_Scene",
      "nodes": [
        0
      ]
    }
  ],
  "textures": [
    {
      "sampler": 0,
      "source": 0
    }
  ]
}

