{
    "asset" : {
        "generator" : "Khronos glTF Blender I/O v0.9.36",
        "version" : "2.0"
    },
    "scene" : 0,
    "scenes" : [
        {
            "name" : "Scene",
            "nodes" : [
                0,
                1,
                2,
                3
            ]
        }
    ],
    "nodes" : [
        {
            "name" : "Light",
            "rotation" : [
                0.16907575726509094,
                0.7558803558349609,
                -0.27217137813568115,
                0.570947527885437
            ],
            "translation" : [
                4.076245307922363,
                5.903861999511719,
                -1.0054539442062378
            ]
        },
        {
            "name" : "Camera",
            "rotation" : [
                0.483536034822464,
                0.33687159419059753,
                -0.20870360732078552,
                0.7804827094078064
            ],
            "translation" : [
                7.358891487121582,
                4.958309173583984,
                6.925790786743164
            ]
        },
        {
            "mesh" : 0,
            "name" : "Torus.002",
            "scale" : [
                0.9516833424568176,
                0.9516833424568176,
                0.9516833424568176
            ],
            "translation" : [
                0,
                0.8978706002235413,
                0
            ]
        },
        {
            "mesh" : 1,
            "name" : "Circle"
        }
    ],
    "materials" : [
        {
            "doubleSided" : true,
            "name" : "White",
            "pbrMetallicRoughness" : {
                "baseColorFactor" : [
                    0.800000011920929,
                    0.800000011920929,
                    0.800000011920929,
                    1
                ],
                "metallicFactor" : 0,
                "roughnessFactor" : 0.5
            }
        },
        {
            "doubleSided" : true,
            "name" : "Design",
            "pbrMetallicRoughness" : {
                "baseColorFactor" : [
                    0.800000011920929,
                    0.800000011920929,
                    0.800000011920929,
                    1
                ],
                "metallicFactor" : 0,
                "roughnessFactor" : 0.5
            }
        }
    ],
    "meshes" : [
        {
            "name" : "Torus.002",
            "primitives" : [
                {
                    "attributes" : {
                        "POSITION" : 0,
                        "NORMAL" : 1,
                        "TEXCOORD_0" : 2
                    },
                    "indices" : 3,
                    "material" : 0
                }
            ]
        },
        {
            "name" : "Circle.001",
            "primitives" : [
                {
                    "attributes" : {
                        "POSITION" : 4,
                        "NORMAL" : 5,
                        "TEXCOORD_0" : 6
                    },
                    "indices" : 7,
                    "material" : 0
                },
                {
                    "attributes" : {
                        "POSITION" : 8,
                        "NORMAL" : 9,
                        "TEXCOORD_0" : 10
                    },
                    "indices" : 11,
                    "material" : 1
                }
            ]
        }
    ],
    "accessors" : [
        {
            "bufferView" : 0,
            "componentType" : 5126,
            "count" : 10794,
            "max" : [
                0.4380247890949249,
                0.014348266646265984,
                0.4380247890949249
            ],
            "min" : [
                -0.4380247890949249,
                -0.014356154948472977,
                -0.4380247890949249
            ],
            "type" : "VEC3"
        },
        {
            "bufferView" : 1,
            "componentType" : 5126,
            "count" : 10794,
            "type" : "VEC3"
        },
        {
            "bufferView" : 2,
            "componentType" : 5126,
            "count" : 10794,
            "type" : "VEC2"
        },
        {
            "bufferView" : 3,
            "componentType" : 5123,
            "count" : 11172,
            "type" : "SCALAR"
        },
        {
            "bufferView" : 4,
            "componentType" : 5126,
            "count" : 364,
            "max" : [
                0.3999999761581421,
                0.8999998569488525,
                0.39999979734420776
            ],
            "min" : [
                -0.40000009536743164,
                -1.1920928955078125e-07,
                -0.4000002145767212
            ],
            "type" : "VEC3"
        },
        {
            "bufferView" : 5,
            "componentType" : 5126,
            "count" : 364,
            "type" : "VEC3"
        },
        {
            "bufferView" : 6,
            "componentType" : 5126,
            "count" : 364,
            "type" : "VEC2"
        },
        {
            "bufferView" : 7,
            "componentType" : 5123,
            "count" : 666,
            "type" : "SCALAR"
        },
        {
            "bufferView" : 8,
            "componentType" : 5126,
            "count" : 192,
            "max" : [
                0.3999999761581421,
                0.8999998569488525,
                0.39999979734420776
            ],
            "min" : [
                -0.40000009536743164,
                0,
                -0.4000002145767212
            ],
            "type" : "VEC3"
        },
        {
            "bufferView" : 9,
            "componentType" : 5126,
            "count" : 192,
            "type" : "VEC3"
        },
        {
            "bufferView" : 10,
            "componentType" : 5126,
            "count" : 192,
            "type" : "VEC2"
        },
        {
            "bufferView" : 11,
            "componentType" : 5123,
            "count" : 384,
            "type" : "SCALAR"
        }
    ],
    "bufferViews" : [
        {
            "buffer" : 0,
            "byteLength" : 129528,
            "byteOffset" : 0
        },
        {
            "buffer" : 0,
            "byteLength" : 129528,
            "byteOffset" : 129528
        },
        {
            "buffer" : 0,
            "byteLength" : 86352,
            "byteOffset" : 259056
        },
        {
            "buffer" : 0,
            "byteLength" : 22344,
            "byteOffset" : 345408
        },
        {
            "buffer" : 0,
            "byteLength" : 4368,
            "byteOffset" : 367752
        },
        {
            "buffer" : 0,
            "byteLength" : 4368,
            "byteOffset" : 372120
        },
        {
            "buffer" : 0,
            "byteLength" : 2912,
            "byteOffset" : 376488
        },
        {
            "buffer" : 0,
            "byteLength" : 1332,
            "byteOffset" : 379400
        },
        {
            "buffer" : 0,
            "byteLength" : 2304,
            "byteOffset" : 380732
        },
        {
            "buffer" : 0,
            "byteLength" : 2304,
            "byteOffset" : 383036
        },
        {
            "buffer" : 0,
            "byteLength" : 1536,
            "byteOffset" : 385340
        },
        {
            "buffer" : 0,
            "byteLength" : 768,
            "byteOffset" : 386876
        }
    ],
    "buffers" : [
        {
            "byteLength" : 387644,
            "uri" : "scene.bin"
        }
    ]
}
