{
    "asset" : {
        "generator" : "Khronos glTF Blender I/O v1.7.33",
        "version" : "2.0"
    },
    "scene" : 0,
    "scenes" : [
        {
            "name" : "Scene",
            "nodes" : [
                0,
                1,
                2
            ]
        }
    ],
    "nodes" : [
        {
            "mesh" : 0,
            "name" : "Circle",
            "scale" : [
                0.6100000143051147,
                0.7770000100135803,
                0.6100000143051147
            ]
        },
        {
            "mesh" : 1,
            "name" : "Torus",
            "scale" : [
                1.0973855257034302,
                1.0973855257034302,
                1.0973855257034302
            ],
            "translation" : [
                0.0025199269875884056,
                0.9290580749511719,
                -0.0004925469402223825
            ]
        },
        {
            "mesh" : 2,
            "name" : "Circle.001",
            "scale" : [
                1.055173397064209,
                1.055173397064209,
                1.055173397064209
            ],
            "translation" : [
                0,
                0.07774490118026733,
                0
            ]
        }
    ],
    "materials" : [
        {
            "doubleSided" : true,
            "name" : "Texture",
            "pbrMetallicRoughness" : {
                "baseColorTexture" : {
                    "index" : 0
                },
                "metallicFactor" : 0,
                "roughnessFactor" : 0.5
            }
        },
        {
            "doubleSided" : true,
            "name" : "white",
            "pbrMetallicRoughness" : {
                "baseColorFactor" : [
                    0.800000011920929,
                    0.800000011920929,
                    0.800000011920929,
                    1
                ],
                "metallicFactor" : 0,
                "roughnessFactor" : 0.5
            }
        }
    ],
    "meshes" : [
        {
            "name" : "Circle",
            "primitives" : [
                {
                    "attributes" : {
                        "POSITION" : 0,
                        "NORMAL" : 1,
                        "TEXCOORD_0" : 2
                    },
                    "indices" : 3,
                    "material" : 0
                },
                {
                    "attributes" : {
                        "POSITION" : 4,
                        "NORMAL" : 5,
                        "TEXCOORD_0" : 6
                    },
                    "indices" : 7,
                    "material" : 1
                }
            ]
        },
        {
            "name" : "Torus",
            "primitives" : [
                {
                    "attributes" : {
                        "POSITION" : 8,
                        "NORMAL" : 9,
                        "TEXCOORD_0" : 10
                    },
                    "indices" : 11,
                    "material" : 1
                }
            ]
        },
        {
            "name" : "Circle.001",
            "primitives" : [
                {
                    "attributes" : {
                        "POSITION" : 12,
                        "NORMAL" : 13,
                        "TEXCOORD_0" : 14
                    },
                    "indices" : 15,
                    "material" : 1
                }
            ]
        }
    ],
    "textures" : [
        {
            "sampler" : 0,
            "source" : 0
        }
    ],
    "images" : [
        {
            "mimeType" : "image/jpeg",
            "name" : "5oz texture",
            "uri" : "5oz%20texture.jpg"
        }
    ],
    "accessors" : [
        {
            "bufferView" : 0,
            "componentType" : 5126,
            "count" : 2404,
            "max" : [
                1.3292536735534668,
                1.2126343250274658,
                1.3292537927627563
            ],
            "min" : [
                -1.3292536735534668,
                0.003196884412318468,
                -1.3292537927627563
            ],
            "type" : "VEC3"
        },
        {
            "bufferView" : 1,
            "componentType" : 5126,
            "count" : 2404,
            "type" : "VEC3"
        },
        {
            "bufferView" : 2,
            "componentType" : 5126,
            "count" : 2404,
            "type" : "VEC2"
        },
        {
            "bufferView" : 3,
            "componentType" : 5123,
            "count" : 12288,
            "type" : "SCALAR"
        },
        {
            "bufferView" : 4,
            "componentType" : 5126,
            "count" : 2370,
            "max" : [
                1.3125636577606201,
                1.2104032039642334,
                1.3125636577606201
            ],
            "min" : [
                -1.3125636577606201,
                0.003196884412318468,
                -1.3125636577606201
            ],
            "type" : "VEC3"
        },
        {
            "bufferView" : 5,
            "componentType" : 5126,
            "count" : 2370,
            "type" : "VEC3"
        },
        {
            "bufferView" : 6,
            "componentType" : 5126,
            "count" : 2370,
            "type" : "VEC2"
        },
        {
            "bufferView" : 7,
            "componentType" : 5123,
            "count" : 12288,
            "type" : "SCALAR"
        },
        {
            "bufferView" : 8,
            "componentType" : 5126,
            "count" : 2569,
            "max" : [
                0.7469707131385803,
                0.01910684071481228,
                0.7469707131385803
            ],
            "min" : [
                -0.7469707131385803,
                -0.01910684071481228,
                -0.7469705939292908
            ],
            "type" : "VEC3"
        },
        {
            "bufferView" : 9,
            "componentType" : 5126,
            "count" : 2569,
            "type" : "VEC3"
        },
        {
            "bufferView" : 10,
            "componentType" : 5126,
            "count" : 2569,
            "type" : "VEC2"
        },
        {
            "bufferView" : 11,
            "componentType" : 5123,
            "count" : 13824,
            "type" : "SCALAR"
        },
        {
            "bufferView" : 12,
            "componentType" : 5126,
            "count" : 32,
            "max" : [
                0.6200000047683716,
                0,
                0.6200000047683716
            ],
            "min" : [
                -0.6200000047683716,
                0,
                -0.6200000047683716
            ],
            "type" : "VEC3"
        },
        {
            "bufferView" : 13,
            "componentType" : 5126,
            "count" : 32,
            "type" : "VEC3"
        },
        {
            "bufferView" : 14,
            "componentType" : 5126,
            "count" : 32,
            "type" : "VEC2"
        },
        {
            "bufferView" : 15,
            "componentType" : 5123,
            "count" : 90,
            "type" : "SCALAR"
        }
    ],
    "bufferViews" : [
        {
            "buffer" : 0,
            "byteLength" : 28848,
            "byteOffset" : 0
        },
        {
            "buffer" : 0,
            "byteLength" : 28848,
            "byteOffset" : 28848
        },
        {
            "buffer" : 0,
            "byteLength" : 19232,
            "byteOffset" : 57696
        },
        {
            "buffer" : 0,
            "byteLength" : 24576,
            "byteOffset" : 76928
        },
        {
            "buffer" : 0,
            "byteLength" : 28440,
            "byteOffset" : 101504
        },
        {
            "buffer" : 0,
            "byteLength" : 28440,
            "byteOffset" : 129944
        },
        {
            "buffer" : 0,
            "byteLength" : 18960,
            "byteOffset" : 158384
        },
        {
            "buffer" : 0,
            "byteLength" : 24576,
            "byteOffset" : 177344
        },
        {
            "buffer" : 0,
            "byteLength" : 30828,
            "byteOffset" : 201920
        },
        {
            "buffer" : 0,
            "byteLength" : 30828,
            "byteOffset" : 232748
        },
        {
            "buffer" : 0,
            "byteLength" : 20552,
            "byteOffset" : 263576
        },
        {
            "buffer" : 0,
            "byteLength" : 27648,
            "byteOffset" : 284128
        },
        {
            "buffer" : 0,
            "byteLength" : 384,
            "byteOffset" : 311776
        },
        {
            "buffer" : 0,
            "byteLength" : 384,
            "byteOffset" : 312160
        },
        {
            "buffer" : 0,
            "byteLength" : 256,
            "byteOffset" : 312544
        },
        {
            "buffer" : 0,
            "byteLength" : 180,
            "byteOffset" : 312800
        }
    ],
    "samplers" : [
        {
            "magFilter" : 9729,
            "minFilter" : 9987
        }
    ],
    "buffers" : [
        {
            "byteLength" : 312980,
            "uri" : "scene.bin"
        }
    ]
}
