{
    "asset" : {
        "generator" : "Khronos glTF Blender I/O v1.7.33",
        "version" : "2.0"
    },
    "scene" : 0,
    "scenes" : [
        {
            "name" : "Scene",
            "nodes" : [
                0,
                1,
                2
            ]
        }
    ],
    "nodes" : [
        {
            "mesh" : 0,
            "name" : "Circle",
            "scale" : [
                0.6100000143051147,
                0.7770000100135803,
                0.6100000143051147
            ]
        },
        {
            "mesh" : 1,
            "name" : "Circle.001",
            "scale" : [
                1.055173397064209,
                1.055173397064209,
                1.055173397064209
            ],
            "translation" : [
                0,
                0.07774490118026733,
                0
            ]
        },
        {
            "mesh" : 2,
            "name" : "Torus.002",
            "scale" : [
                0.8315271735191345,
                0.8315271735191345,
                0.8315271735191345
            ],
            "translation" : [
                0,
                0.932738721370697,
                0
            ]
        }
    ],
    "materials" : [
        {
            "doubleSided" : true,
            "name" : "Texture",
            "pbrMetallicRoughness" : {
                "baseColorTexture" : {
                    "index" : 0
                },
                "metallicFactor" : 0,
                "roughnessFactor" : 0.5
            }
        },
        {
            "doubleSided" : true,
            "name" : "white",
            "pbrMetallicRoughness" : {
                "baseColorFactor" : [
                    0.800000011920929,
                    0.800000011920929,
                    0.800000011920929,
                    1
                ],
                "metallicFactor" : 0,
                "roughnessFactor" : 0.5
            }
        }
    ],
    "meshes" : [
        {
            "name" : "Circle",
            "primitives" : [
                {
                    "attributes" : {
                        "POSITION" : 0,
                        "NORMAL" : 1,
                        "TEXCOORD_0" : 2,
                        "COLOR_0" : 3
                    },
                    "indices" : 4,
                    "material" : 0
                },
                {
                    "attributes" : {
                        "POSITION" : 5,
                        "NORMAL" : 6,
                        "TEXCOORD_0" : 7,
                        "COLOR_0" : 8
                    },
                    "indices" : 9,
                    "material" : 1
                }
            ]
        },
        {
            "name" : "Circle.001",
            "primitives" : [
                {
                    "attributes" : {
                        "POSITION" : 10,
                        "NORMAL" : 11,
                        "TEXCOORD_0" : 12
                    },
                    "indices" : 13,
                    "material" : 1
                }
            ]
        },
        {
            "name" : "Torus.002",
            "primitives" : [
                {
                    "attributes" : {
                        "POSITION" : 14,
                        "NORMAL" : 15,
                        "TEXCOORD_0" : 16
                    },
                    "indices" : 17,
                    "material" : 1
                }
            ]
        }
    ],
    "textures" : [
        {
            "sampler" : 0,
            "source" : 0
        }
    ],
    "images" : [
        {
            "mimeType" : "image/png",
            "name" : "texture",
            "uri" : "texture.png"
        }
    ],
    "accessors" : [
        {
            "bufferView" : 0,
            "componentType" : 5126,
            "count" : 198,
            "max" : [
                1.3405203819274902,
                1.213114857673645,
                1.3405203819274902
            ],
            "min" : [
                -1.3405203819274902,
                -9.313225746154785e-10,
                -1.3405203819274902
            ],
            "type" : "VEC3"
        },
        {
            "bufferView" : 1,
            "componentType" : 5126,
            "count" : 198,
            "type" : "VEC3"
        },
        {
            "bufferView" : 2,
            "componentType" : 5126,
            "count" : 198,
            "type" : "VEC2"
        },
        {
            "bufferView" : 3,
            "componentType" : 5123,
            "count" : 198,
            "normalized" : true,
            "type" : "VEC4"
        },
        {
            "bufferView" : 4,
            "componentType" : 5123,
            "count" : 768,
            "type" : "SCALAR"
        },
        {
            "bufferView" : 5,
            "componentType" : 5126,
            "count" : 198,
            "max" : [
                1.3176627159118652,
                1.213114857673645,
                1.3176627159118652
            ],
            "min" : [
                -1.3176627159118652,
                -9.313225746154785e-10,
                -1.3176627159118652
            ],
            "type" : "VEC3"
        },
        {
            "bufferView" : 6,
            "componentType" : 5126,
            "count" : 198,
            "type" : "VEC3"
        },
        {
            "bufferView" : 7,
            "componentType" : 5126,
            "count" : 198,
            "type" : "VEC2"
        },
        {
            "bufferView" : 8,
            "componentType" : 5123,
            "count" : 198,
            "normalized" : true,
            "type" : "VEC4"
        },
        {
            "bufferView" : 9,
            "componentType" : 5123,
            "count" : 768,
            "type" : "SCALAR"
        },
        {
            "bufferView" : 10,
            "componentType" : 5126,
            "count" : 32,
            "max" : [
                0.6200000047683716,
                0,
                0.6200000047683716
            ],
            "min" : [
                -0.6200000047683716,
                0,
                -0.6200000047683716
            ],
            "type" : "VEC3"
        },
        {
            "bufferView" : 11,
            "componentType" : 5126,
            "count" : 32,
            "type" : "VEC3"
        },
        {
            "bufferView" : 12,
            "componentType" : 5126,
            "count" : 32,
            "type" : "VEC2"
        },
        {
            "bufferView" : 13,
            "componentType" : 5123,
            "count" : 90,
            "type" : "SCALAR"
        },
        {
            "bufferView" : 14,
            "componentType" : 5126,
            "count" : 2145,
            "max" : [
                1.0399999618530273,
                0.03999999910593033,
                1.0399999618530273
            ],
            "min" : [
                -1.0399999618530273,
                -0.03999999910593033,
                -1.0399999618530273
            ],
            "type" : "VEC3"
        },
        {
            "bufferView" : 15,
            "componentType" : 5126,
            "count" : 2145,
            "type" : "VEC3"
        },
        {
            "bufferView" : 16,
            "componentType" : 5126,
            "count" : 2145,
            "type" : "VEC2"
        },
        {
            "bufferView" : 17,
            "componentType" : 5123,
            "count" : 12288,
            "type" : "SCALAR"
        }
    ],
    "bufferViews" : [
        {
            "buffer" : 0,
            "byteLength" : 2376,
            "byteOffset" : 0
        },
        {
            "buffer" : 0,
            "byteLength" : 2376,
            "byteOffset" : 2376
        },
        {
            "buffer" : 0,
            "byteLength" : 1584,
            "byteOffset" : 4752
        },
        {
            "buffer" : 0,
            "byteLength" : 1584,
            "byteOffset" : 6336
        },
        {
            "buffer" : 0,
            "byteLength" : 1536,
            "byteOffset" : 7920
        },
        {
            "buffer" : 0,
            "byteLength" : 2376,
            "byteOffset" : 9456
        },
        {
            "buffer" : 0,
            "byteLength" : 2376,
            "byteOffset" : 11832
        },
        {
            "buffer" : 0,
            "byteLength" : 1584,
            "byteOffset" : 14208
        },
        {
            "buffer" : 0,
            "byteLength" : 1584,
            "byteOffset" : 15792
        },
        {
            "buffer" : 0,
            "byteLength" : 1536,
            "byteOffset" : 17376
        },
        {
            "buffer" : 0,
            "byteLength" : 384,
            "byteOffset" : 18912
        },
        {
            "buffer" : 0,
            "byteLength" : 384,
            "byteOffset" : 19296
        },
        {
            "buffer" : 0,
            "byteLength" : 256,
            "byteOffset" : 19680
        },
        {
            "buffer" : 0,
            "byteLength" : 180,
            "byteOffset" : 19936
        },
        {
            "buffer" : 0,
            "byteLength" : 25740,
            "byteOffset" : 20116
        },
        {
            "buffer" : 0,
            "byteLength" : 25740,
            "byteOffset" : 45856
        },
        {
            "buffer" : 0,
            "byteLength" : 17160,
            "byteOffset" : 71596
        },
        {
            "buffer" : 0,
            "byteLength" : 24576,
            "byteOffset" : 88756
        }
    ],
    "samplers" : [
        {
            "magFilter" : 9729,
            "minFilter" : 9987
        }
    ],
    "buffers" : [
        {
            "byteLength" : 113332,
            "uri" : "scene.bin"
        }
    ]
}
