{
    "asset" : {
        "generator" : "Khronos glTF Blender I/O v0.9.36",
        "version" : "2.0"
    },
    "scene" : 0,
    "scenes" : [
        {
            "name" : "Scene",
            "nodes" : [
                0,
                1,
                2,
                3
            ]
        }
    ],
    "nodes" : [
        {
            "name" : "Light",
            "rotation" : [
                0.16907575726509094,
                0.7558803558349609,
                -0.27217137813568115,
                0.570947527885437
            ],
            "translation" : [
                4.076245307922363,
                5.903861999511719,
                -1.0054539442062378
            ]
        },
        {
            "name" : "Camera",
            "rotation" : [
                0.483536034822464,
                0.33687159419059753,
                -0.20870360732078552,
                0.7804827094078064
            ],
            "translation" : [
                7.358891487121582,
                4.958309173583984,
                6.925790786743164
            ]
        },
        {
            "mesh" : 0,
            "name" : "Circle"
        },
        {
            "mesh" : 1,
            "name" : "Torus.001",
            "translation" : [
                0,
                0.4000000059604645,
                0
            ]
        }
    ],
    "materials" : [
        {
            "doubleSided" : true,
            "name" : "Material.001",
            "pbrMetallicRoughness" : {
                "baseColorFactor" : [
                    0.800000011920929,
                    0.800000011920929,
                    0.800000011920929,
                    1
                ],
                "metallicFactor" : 0,
                "roughnessFactor" : 0.5
            }
        },
        {
            "doubleSided" : true,
            "name" : "Material.002",
            "pbrMetallicRoughness" : {
                "baseColorTexture" : {
                    "index" : 0,
                    "texCoord" : 0
                },
                "metallicFactor" : 0,
                "roughnessFactor" : 0.5
            }
        }
    ],
    "meshes" : [
        {
            "name" : "Circle.001",
            "primitives" : [
                {
                    "attributes" : {
                        "POSITION" : 0,
                        "NORMAL" : 1,
                        "TEXCOORD_0" : 2
                    },
                    "indices" : 3,
                    "material" : 0
                },
                {
                    "attributes" : {
                        "POSITION" : 4,
                        "NORMAL" : 5,
                        "TEXCOORD_0" : 6
                    },
                    "indices" : 7,
                    "material" : 1
                }
            ]
        },
        {
            "name" : "Torus.001",
            "primitives" : [
                {
                    "attributes" : {
                        "POSITION" : 8,
                        "NORMAL" : 9,
                        "TEXCOORD_0" : 10
                    },
                    "indices" : 11,
                    "material" : 0
                }
            ]
        }
    ],
    "textures" : [
        {
            "source" : 0
        }
    ],
    "images" : [
        {
            "mimeType" : "image/png",
            "name" : "texture",
            "uri" : "texture.png"
        }
    ],
    "accessors" : [
        {
            "bufferView" : 0,
            "componentType" : 5126,
            "count" : 26624,
            "max" : [
                0.3586289584636688,
                0.3996872305870056,
                0.3586287796497345
            ],
            "min" : [
                -0.35862821340560913,
                0.003290874417871237,
                -0.35862839221954346
            ],
            "type" : "VEC3"
        },
        {
            "bufferView" : 1,
            "componentType" : 5126,
            "count" : 26624,
            "type" : "VEC3"
        },
        {
            "bufferView" : 2,
            "componentType" : 5126,
            "count" : 26624,
            "type" : "VEC2"
        },
        {
            "bufferView" : 3,
            "componentType" : 5123,
            "count" : 39936,
            "type" : "SCALAR"
        },
        {
            "bufferView" : 4,
            "componentType" : 5126,
            "count" : 16384,
            "max" : [
                0.35886380076408386,
                0.3996872305870056,
                0.35886359214782715
            ],
            "min" : [
                -0.35886308550834656,
                0.00019747877377085388,
                -0.3588632047176361
            ],
            "type" : "VEC3"
        },
        {
            "bufferView" : 5,
            "componentType" : 5126,
            "count" : 16384,
            "type" : "VEC3"
        },
        {
            "bufferView" : 6,
            "componentType" : 5126,
            "count" : 16384,
            "type" : "VEC2"
        },
        {
            "bufferView" : 7,
            "componentType" : 5123,
            "count" : 24576,
            "type" : "SCALAR"
        },
        {
            "bufferView" : 8,
            "componentType" : 5126,
            "count" : 9360,
            "max" : [
                0.3854999840259552,
                0.015943102538585663,
                0.3854999840259552
            ],
            "min" : [
                -0.3854999840259552,
                -0.01594310998916626,
                -0.3854999840259552
            ],
            "type" : "VEC3"
        },
        {
            "bufferView" : 9,
            "componentType" : 5126,
            "count" : 9360,
            "type" : "VEC3"
        },
        {
            "bufferView" : 10,
            "componentType" : 5126,
            "count" : 9360,
            "type" : "VEC2"
        },
        {
            "bufferView" : 11,
            "componentType" : 5123,
            "count" : 14040,
            "type" : "SCALAR"
        }
    ],
    "bufferViews" : [
        {
            "buffer" : 0,
            "byteLength" : 319488,
            "byteOffset" : 0
        },
        {
            "buffer" : 0,
            "byteLength" : 319488,
            "byteOffset" : 319488
        },
        {
            "buffer" : 0,
            "byteLength" : 212992,
            "byteOffset" : 638976
        },
        {
            "buffer" : 0,
            "byteLength" : 79872,
            "byteOffset" : 851968
        },
        {
            "buffer" : 0,
            "byteLength" : 196608,
            "byteOffset" : 931840
        },
        {
            "buffer" : 0,
            "byteLength" : 196608,
            "byteOffset" : 1128448
        },
        {
            "buffer" : 0,
            "byteLength" : 131072,
            "byteOffset" : 1325056
        },
        {
            "buffer" : 0,
            "byteLength" : 49152,
            "byteOffset" : 1456128
        },
        {
            "buffer" : 0,
            "byteLength" : 112320,
            "byteOffset" : 1505280
        },
        {
            "buffer" : 0,
            "byteLength" : 112320,
            "byteOffset" : 1617600
        },
        {
            "buffer" : 0,
            "byteLength" : 74880,
            "byteOffset" : 1729920
        },
        {
            "buffer" : 0,
            "byteLength" : 28080,
            "byteOffset" : 1804800
        }
    ],
    "buffers" : [
        {
            "byteLength" : 1832880,
            "uri" : "scene.bin"
        }
    ]
}
