{
    "asset" : {
        "generator" : "Khronos glTF Blender I/O v0.9.36",
        "version" : "2.0"
    },
    "scene" : 0,
    "scenes" : [
        {
            "name" : "Scene",
            "nodes" : [
                0,
                1,
                2,
                3
            ]
        }
    ],
    "nodes" : [
        {
            "name" : "Light",
            "rotation" : [
                0.16907575726509094,
                0.7558803558349609,
                -0.27217137813568115,
                0.570947527885437
            ],
            "translation" : [
                4.076245307922363,
                5.903861999511719,
                -1.0054539442062378
            ]
        },
        {
            "name" : "Camera",
            "rotation" : [
                0.483536034822464,
                0.33687159419059753,
                -0.20870360732078552,
                0.7804827094078064
            ],
            "translation" : [
                7.358891487121582,
                4.958309173583984,
                6.925790786743164
            ]
        },
        {
            "mesh" : 0,
            "name" : "Circle"
        },
        {
            "mesh" : 1,
            "name" : "Torus.001",
            "translation" : [
                0,
                0.4000000059604645,
                0
            ]
        }
    ],
    "materials" : [
        {
            "doubleSided" : true,
            "name" : "Material.001",
            "pbrMetallicRoughness" : {
                "baseColorFactor" : [
                    0.800000011920929,
                    0.800000011920929,
                    0.800000011920929,
                    1
                ],
                "metallicFactor" : 0,
                "roughnessFactor" : 0.5
            }
        },
        {
            "doubleSided" : true,
            "name" : "Material.002",
            "pbrMetallicRoughness" : {
                "baseColorFactor" : [
                    0.8000000715255737,
                    0.13593846559524536,
                    0.14717726409435272,
                    1
                ],
                "metallicFactor" : 0,
                "roughnessFactor" : 0.5
            }
        }
    ],
    "meshes" : [
        {
            "name" : "Circle.001",
            "primitives" : [
                {
                    "attributes" : {
                        "POSITION" : 0,
                        "NORMAL" : 1,
                        "TEXCOORD_0" : 2
                    },
                    "indices" : 3,
                    "material" : 0
                },
                {
                    "attributes" : {
                        "POSITION" : 4,
                        "NORMAL" : 5,
                        "TEXCOORD_0" : 6
                    },
                    "indices" : 7,
                    "material" : 1
                }
            ]
        },
        {
            "name" : "Torus.001",
            "primitives" : [
                {
                    "attributes" : {
                        "POSITION" : 8,
                        "NORMAL" : 9,
                        "TEXCOORD_0" : 10
                    },
                    "indices" : 11,
                    "material" : 0
                }
            ]
        }
    ],
    "accessors" : [
        {
            "bufferView" : 0,
            "componentType" : 5126,
            "count" : 948,
            "max" : [
                0.3600003719329834,
                0.39999985694885254,
                0.3600001931190491
            ],
            "min" : [
                -0.3599996566772461,
                0,
                -0.3599998354911804
            ],
            "type" : "VEC3"
        },
        {
            "bufferView" : 1,
            "componentType" : 5126,
            "count" : 948,
            "type" : "VEC3"
        },
        {
            "bufferView" : 2,
            "componentType" : 5126,
            "count" : 948,
            "type" : "VEC2"
        },
        {
            "bufferView" : 3,
            "componentType" : 5123,
            "count" : 1908,
            "type" : "SCALAR"
        },
        {
            "bufferView" : 4,
            "componentType" : 5126,
            "count" : 256,
            "max" : [
                0.3600003719329834,
                0.39999985694885254,
                0.3600001931190491
            ],
            "min" : [
                -0.3599996566772461,
                0,
                -0.3599998354911804
            ],
            "type" : "VEC3"
        },
        {
            "bufferView" : 5,
            "componentType" : 5126,
            "count" : 256,
            "type" : "VEC3"
        },
        {
            "bufferView" : 6,
            "componentType" : 5126,
            "count" : 256,
            "type" : "VEC2"
        },
        {
            "bufferView" : 7,
            "componentType" : 5123,
            "count" : 384,
            "type" : "SCALAR"
        },
        {
            "bufferView" : 8,
            "componentType" : 5126,
            "count" : 9360,
            "max" : [
                0.3854999840259552,
                0.015943102538585663,
                0.3854999840259552
            ],
            "min" : [
                -0.3854999840259552,
                -0.01594310998916626,
                -0.3854999840259552
            ],
            "type" : "VEC3"
        },
        {
            "bufferView" : 9,
            "componentType" : 5126,
            "count" : 9360,
            "type" : "VEC3"
        },
        {
            "bufferView" : 10,
            "componentType" : 5126,
            "count" : 9360,
            "type" : "VEC2"
        },
        {
            "bufferView" : 11,
            "componentType" : 5123,
            "count" : 14040,
            "type" : "SCALAR"
        }
    ],
    "bufferViews" : [
        {
            "buffer" : 0,
            "byteLength" : 11376,
            "byteOffset" : 0
        },
        {
            "buffer" : 0,
            "byteLength" : 11376,
            "byteOffset" : 11376
        },
        {
            "buffer" : 0,
            "byteLength" : 7584,
            "byteOffset" : 22752
        },
        {
            "buffer" : 0,
            "byteLength" : 3816,
            "byteOffset" : 30336
        },
        {
            "buffer" : 0,
            "byteLength" : 3072,
            "byteOffset" : 34152
        },
        {
            "buffer" : 0,
            "byteLength" : 3072,
            "byteOffset" : 37224
        },
        {
            "buffer" : 0,
            "byteLength" : 2048,
            "byteOffset" : 40296
        },
        {
            "buffer" : 0,
            "byteLength" : 768,
            "byteOffset" : 42344
        },
        {
            "buffer" : 0,
            "byteLength" : 112320,
            "byteOffset" : 43112
        },
        {
            "buffer" : 0,
            "byteLength" : 112320,
            "byteOffset" : 155432
        },
        {
            "buffer" : 0,
            "byteLength" : 74880,
            "byteOffset" : 267752
        },
        {
            "buffer" : 0,
            "byteLength" : 28080,
            "byteOffset" : 342632
        }
    ],
    "buffers" : [
        {
            "byteLength" : 370712,
            "uri" : "scene.bin"
        }
    ]
}
