{
    "asset" : {
        "generator" : "Khronos glTF Blender I/O v3.2.40",
        "version" : "2.0"
    },
    "scene" : 0,
    "scenes" : [
        {
            "name" : "Scene",
            "nodes" : [
                0,
                1,
                2
            ]
        }
    ],
    "nodes" : [
        {
            "mesh" : 0,
            "name" : "Circle"
        },
        {
            "mesh" : 1,
            "name" : "Torus.002",
            "scale" : [
                0.9658498764038086,
                0.9658498764038086,
                0.9658498764038086
            ],
            "translation" : [
                0,
                0.9042290449142456,
                0
            ]
        },
        {
            "mesh" : 2,
            "name" : "Lid",
            "scale" : [
                0.4147021472454071,
                0.39326074719429016,
                0.4147021472454071
            ],
            "translation" : [
                0,
                0.8608508706092834,
                0
            ]
        }
    ],
    "materials" : [
        {
            "doubleSided" : true,
            "name" : "Material.001",
            "pbrMetallicRoughness" : {
                "baseColorTexture" : {
                    "index" : 0
                },
                "metallicFactor" : 0,
                "roughnessFactor" : 0.5
            }
        },
        {
            "doubleSided" : true,
            "name" : "Material.002",
            "pbrMetallicRoughness" : {
                "baseColorFactor" : [
                    0.800000011920929,
                    0.800000011920929,
                    0.800000011920929,
                    1
                ],
                "metallicFactor" : 0,
                "roughnessFactor" : 0.5
            }
        },
        {
            "doubleSided" : true,
            "name" : "Material.003",
            "pbrMetallicRoughness" : {
                "baseColorFactor" : [
                    0.800000011920929,
                    0.800000011920929,
                    0.800000011920929,
                    1
                ],
                "metallicFactor" : 0,
                "roughnessFactor" : 0.5
            }
        },
        {
            "doubleSided" : true,
            "name" : "Material.000",
            "pbrMetallicRoughness" : {
                "baseColorFactor" : [
                    0.800000011920929,
                    0.800000011920929,
                    0.800000011920929,
                    1
                ],
                "metallicFactor" : 0,
                "roughnessFactor" : 0.5
            }
        }
    ],
    "meshes" : [
        {
            "name" : "Mesh",
            "primitives" : [
                {
                    "attributes" : {
                        "POSITION" : 0,
                        "NORMAL" : 1,
                        "TEXCOORD_0" : 2
                    },
                    "indices" : 3,
                    "material" : 0
                },
                {
                    "attributes" : {
                        "POSITION" : 4,
                        "NORMAL" : 5,
                        "TEXCOORD_0" : 6
                    },
                    "indices" : 7,
                    "material" : 1
                }
            ]
        },
        {
            "name" : "Torus.002",
            "primitives" : [
                {
                    "attributes" : {
                        "POSITION" : 8,
                        "NORMAL" : 9,
                        "TEXCOORD_0" : 10
                    },
                    "indices" : 11,
                    "material" : 2
                }
            ]
        },
        {
            "name" : "Circle.001",
            "primitives" : [
                {
                    "attributes" : {
                        "POSITION" : 12,
                        "NORMAL" : 13,
                        "TEXCOORD_0" : 14
                    },
                    "indices" : 15,
                    "material" : 3
                }
            ]
        }
    ],
    "textures" : [
        {
            "sampler" : 0,
            "source" : 0
        }
    ],
    "images" : [
        {
            "mimeType" : "image/png",
            "name" : "texture",
            "uri" : "texture.png"
        }
    ],
    "accessors" : [
        {
            "bufferView" : 0,
            "componentType" : 5126,
            "count" : 8192,
            "max" : [
                0.3963034749031067,
                0.8997554183006287,
                0.39630329608917236
            ],
            "min" : [
                -0.39630359411239624,
                0.13208644092082977,
                -0.3963036835193634
            ],
            "type" : "VEC3"
        },
        {
            "bufferView" : 1,
            "componentType" : 5126,
            "count" : 8192,
            "type" : "VEC3"
        },
        {
            "bufferView" : 2,
            "componentType" : 5126,
            "count" : 8192,
            "type" : "VEC2"
        },
        {
            "bufferView" : 3,
            "componentType" : 5123,
            "count" : 12288,
            "type" : "SCALAR"
        },
        {
            "bufferView" : 4,
            "componentType" : 5126,
            "count" : 17408,
            "max" : [
                0.39534279704093933,
                0.8997554183006287,
                0.395342618227005
            ],
            "min" : [
                -0.39534294605255127,
                0.0037170553114265203,
                -0.3953430950641632
            ],
            "type" : "VEC3"
        },
        {
            "bufferView" : 5,
            "componentType" : 5126,
            "count" : 17408,
            "type" : "VEC3"
        },
        {
            "bufferView" : 6,
            "componentType" : 5126,
            "count" : 17408,
            "type" : "VEC2"
        },
        {
            "bufferView" : 7,
            "componentType" : 5123,
            "count" : 26112,
            "type" : "SCALAR"
        },
        {
            "bufferView" : 8,
            "componentType" : 5126,
            "count" : 10964,
            "max" : [
                0.4257197678089142,
                0.013949627988040447,
                0.4255460202693939
            ],
            "min" : [
                -0.4255232512950897,
                -0.01394965685904026,
                -0.4256969690322876
            ],
            "type" : "VEC3"
        },
        {
            "bufferView" : 9,
            "componentType" : 5126,
            "count" : 10964,
            "type" : "VEC3"
        },
        {
            "bufferView" : 10,
            "componentType" : 5126,
            "count" : 10964,
            "type" : "VEC2"
        },
        {
            "bufferView" : 11,
            "componentType" : 5123,
            "count" : 11172,
            "type" : "SCALAR"
        },
        {
            "bufferView" : 12,
            "componentType" : 5126,
            "count" : 11669,
            "max" : [
                1.0039490461349487,
                0.31729891896247864,
                1.0195444822311401
            ],
            "min" : [
                -1.0039490461349487,
                -0.02725491113960743,
                -1.0274534225463867
            ],
            "type" : "VEC3"
        },
        {
            "bufferView" : 13,
            "componentType" : 5126,
            "count" : 11669,
            "type" : "VEC3"
        },
        {
            "bufferView" : 14,
            "componentType" : 5126,
            "count" : 11669,
            "type" : "VEC2"
        },
        {
            "bufferView" : 15,
            "componentType" : 5123,
            "count" : 14613,
            "type" : "SCALAR"
        }
    ],
    "bufferViews" : [
        {
            "buffer" : 0,
            "byteLength" : 98304,
            "byteOffset" : 0
        },
        {
            "buffer" : 0,
            "byteLength" : 98304,
            "byteOffset" : 98304
        },
        {
            "buffer" : 0,
            "byteLength" : 65536,
            "byteOffset" : 196608
        },
        {
            "buffer" : 0,
            "byteLength" : 24576,
            "byteOffset" : 262144
        },
        {
            "buffer" : 0,
            "byteLength" : 208896,
            "byteOffset" : 286720
        },
        {
            "buffer" : 0,
            "byteLength" : 208896,
            "byteOffset" : 495616
        },
        {
            "buffer" : 0,
            "byteLength" : 139264,
            "byteOffset" : 704512
        },
        {
            "buffer" : 0,
            "byteLength" : 52224,
            "byteOffset" : 843776
        },
        {
            "buffer" : 0,
            "byteLength" : 131568,
            "byteOffset" : 896000
        },
        {
            "buffer" : 0,
            "byteLength" : 131568,
            "byteOffset" : 1027568
        },
        {
            "buffer" : 0,
            "byteLength" : 87712,
            "byteOffset" : 1159136
        },
        {
            "buffer" : 0,
            "byteLength" : 22344,
            "byteOffset" : 1246848
        },
        {
            "buffer" : 0,
            "byteLength" : 140028,
            "byteOffset" : 1269192
        },
        {
            "buffer" : 0,
            "byteLength" : 140028,
            "byteOffset" : 1409220
        },
        {
            "buffer" : 0,
            "byteLength" : 93352,
            "byteOffset" : 1549248
        },
        {
            "buffer" : 0,
            "byteLength" : 29226,
            "byteOffset" : 1642600
        }
    ],
    "samplers" : [
        {
            "magFilter" : 9729,
            "minFilter" : 9987
        }
    ],
    "buffers" : [
        {
            "byteLength" : 1671828,
            "uri" : "scene.bin"
        }
    ]
}
