{
    "asset" : {
        "generator" : "Khronos glTF Blender I/O v1.7.33",
        "version" : "2.0"
    },
    "scene" : 0,
    "scenes" : [
        {
            "name" : "Scene",
            "nodes" : [
                0,
                1,
                2
            ]
        }
    ],
    "nodes" : [
        {
            "mesh" : 0,
            "name" : "Circle",
            "scale" : [
                0.6100000143051147,
                0.6100000143051147,
                0.6100000143051147
            ]
        },
        {
            "mesh" : 1,
            "name" : "Torus",
            "translation" : [
                0,
                0.7459930777549744,
                0
            ]
        },
        {
            "mesh" : 2,
            "name" : "Circle.001",
            "scale" : [
                0.9977746605873108,
                0.9977746605873108,
                0.9977746605873108
            ],
            "translation" : [
                0,
                0.07774490118026733,
                0
            ]
        }
    ],
    "materials" : [
        {
            "doubleSided" : true,
            "name" : "Texture",
            "pbrMetallicRoughness" : {
                "baseColorTexture" : {
                    "index" : 0
                },
                "metallicFactor" : 0,
                "roughnessFactor" : 0.5
            }
        },
        {
            "doubleSided" : true,
            "name" : "white",
            "pbrMetallicRoughness" : {
                "baseColorFactor" : [
                    0.800000011920929,
                    0.800000011920929,
                    0.800000011920929,
                    1
                ],
                "metallicFactor" : 0,
                "roughnessFactor" : 0.5
            }
        }
    ],
    "meshes" : [
        {
            "name" : "Circle",
            "primitives" : [
                {
                    "attributes" : {
                        "POSITION" : 0,
                        "NORMAL" : 1,
                        "TEXCOORD_0" : 2
                    },
                    "indices" : 3,
                    "material" : 0
                },
                {
                    "attributes" : {
                        "POSITION" : 4,
                        "NORMAL" : 5,
                        "TEXCOORD_0" : 6
                    },
                    "indices" : 7,
                    "material" : 1
                }
            ]
        },
        {
            "name" : "Torus",
            "primitives" : [
                {
                    "attributes" : {
                        "POSITION" : 8,
                        "NORMAL" : 9,
                        "TEXCOORD_0" : 10
                    },
                    "indices" : 11,
                    "material" : 1
                }
            ]
        },
        {
            "name" : "Circle.001",
            "primitives" : [
                {
                    "attributes" : {
                        "POSITION" : 12,
                        "NORMAL" : 13,
                        "TEXCOORD_0" : 14
                    },
                    "indices" : 15,
                    "material" : 1
                }
            ]
        }
    ],
    "textures" : [
        {
            "sampler" : 0,
            "source" : 0
        }
    ],
    "images" : [
        {
            "mimeType" : "image/png",
            "name" : "texture",
            "uri" : "texture.png"
        }
    ],
    "accessors" : [
        {
            "bufferView" : 0,
            "componentType" : 5126,
            "count" : 216,
            "max" : [
                1.1897757053375244,
                1.213114857673645,
                1.1897757053375244
            ],
            "min" : [
                -1.1897757053375244,
                0,
                -1.1897757053375244
            ],
            "type" : "VEC3"
        },
        {
            "bufferView" : 1,
            "componentType" : 5126,
            "count" : 216,
            "type" : "VEC3"
        },
        {
            "bufferView" : 2,
            "componentType" : 5126,
            "count" : 216,
            "type" : "VEC2"
        },
        {
            "bufferView" : 3,
            "componentType" : 5123,
            "count" : 768,
            "type" : "SCALAR"
        },
        {
            "bufferView" : 4,
            "componentType" : 5126,
            "count" : 198,
            "max" : [
                1.1694884300231934,
                1.213114857673645,
                1.1694884300231934
            ],
            "min" : [
                -1.1694884300231934,
                0,
                -1.1694884300231934
            ],
            "type" : "VEC3"
        },
        {
            "bufferView" : 5,
            "componentType" : 5126,
            "count" : 198,
            "type" : "VEC3"
        },
        {
            "bufferView" : 6,
            "componentType" : 5126,
            "count" : 198,
            "type" : "VEC2"
        },
        {
            "bufferView" : 7,
            "componentType" : 5123,
            "count" : 768,
            "type" : "SCALAR"
        },
        {
            "bufferView" : 8,
            "componentType" : 5126,
            "count" : 637,
            "max" : [
                0.75,
                0.019999999552965164,
                0.75
            ],
            "min" : [
                -0.75,
                -0.019999999552965164,
                -0.75
            ],
            "type" : "VEC3"
        },
        {
            "bufferView" : 9,
            "componentType" : 5126,
            "count" : 637,
            "type" : "VEC3"
        },
        {
            "bufferView" : 10,
            "componentType" : 5126,
            "count" : 637,
            "type" : "VEC2"
        },
        {
            "bufferView" : 11,
            "componentType" : 5123,
            "count" : 3456,
            "type" : "SCALAR"
        },
        {
            "bufferView" : 12,
            "componentType" : 5126,
            "count" : 32,
            "max" : [
                0.6200000047683716,
                0,
                0.6200000047683716
            ],
            "min" : [
                -0.6200000047683716,
                0,
                -0.6200000047683716
            ],
            "type" : "VEC3"
        },
        {
            "bufferView" : 13,
            "componentType" : 5126,
            "count" : 32,
            "type" : "VEC3"
        },
        {
            "bufferView" : 14,
            "componentType" : 5126,
            "count" : 32,
            "type" : "VEC2"
        },
        {
            "bufferView" : 15,
            "componentType" : 5123,
            "count" : 90,
            "type" : "SCALAR"
        }
    ],
    "bufferViews" : [
        {
            "buffer" : 0,
            "byteLength" : 2592,
            "byteOffset" : 0
        },
        {
            "buffer" : 0,
            "byteLength" : 2592,
            "byteOffset" : 2592
        },
        {
            "buffer" : 0,
            "byteLength" : 1728,
            "byteOffset" : 5184
        },
        {
            "buffer" : 0,
            "byteLength" : 1536,
            "byteOffset" : 6912
        },
        {
            "buffer" : 0,
            "byteLength" : 2376,
            "byteOffset" : 8448
        },
        {
            "buffer" : 0,
            "byteLength" : 2376,
            "byteOffset" : 10824
        },
        {
            "buffer" : 0,
            "byteLength" : 1584,
            "byteOffset" : 13200
        },
        {
            "buffer" : 0,
            "byteLength" : 1536,
            "byteOffset" : 14784
        },
        {
            "buffer" : 0,
            "byteLength" : 7644,
            "byteOffset" : 16320
        },
        {
            "buffer" : 0,
            "byteLength" : 7644,
            "byteOffset" : 23964
        },
        {
            "buffer" : 0,
            "byteLength" : 5096,
            "byteOffset" : 31608
        },
        {
            "buffer" : 0,
            "byteLength" : 6912,
            "byteOffset" : 36704
        },
        {
            "buffer" : 0,
            "byteLength" : 384,
            "byteOffset" : 43616
        },
        {
            "buffer" : 0,
            "byteLength" : 384,
            "byteOffset" : 44000
        },
        {
            "buffer" : 0,
            "byteLength" : 256,
            "byteOffset" : 44384
        },
        {
            "buffer" : 0,
            "byteLength" : 180,
            "byteOffset" : 44640
        }
    ],
    "samplers" : [
        {
            "magFilter" : 9729,
            "minFilter" : 9987
        }
    ],
    "buffers" : [
        {
            "byteLength" : 44820,
            "uri" : "scene.bin"
        }
    ]
}
