{
    "asset" : {
        "generator" : "Khronos glTF Blender I/O v0.9.36",
        "version" : "2.0"
    },
    "scene" : 0,
    "scenes" : [
        {
            "name" : "Scene",
            "nodes" : [
                0,
                1,
                7
            ]
        }
    ],
    "nodes" : [
        {
            "name" : "Light",
            "rotation" : [
                0.16907575726509094,
                0.7558803558349609,
                -0.27217137813568115,
                0.570947527885437
            ],
            "translation" : [
                4.076245307922363,
                5.903861999511719,
                -1.0054539442062378
            ]
        },
        {
            "name" : "Camera",
            "rotation" : [
                0.483536034822464,
                0.33687159419059753,
                -0.20870360732078552,
                0.7804827094078064
            ],
            "translation" : [
                7.358891487121582,
                4.958309173583984,
                6.925790786743164
            ]
        },
        {
            "name" : "Bone.001",
            "rotation" : [
                0.520609974861145,
                0.47850319743156433,
                -0.520609974861145,
                0.47850310802459717
            ],
            "scale" : [
                1,
                1.0000001192092896,
                1.0000001192092896
            ],
            "translation" : [
                -0.2978261709213257,
                1.0527406930923462,
                0.006512187421321869
            ]
        },
        {
            "name" : "Bone.002",
            "rotation" : [
                0.4887877404689789,
                -0.5109663009643555,
                0.4887876808643341,
                0.5109663009643555
            ],
            "scale" : [
                1,
                0.9999999403953552,
                0.9999999403953552
            ],
            "translation" : [
                0.2593332529067993,
                1.0012418031692505,
                0.0005907883169129491
            ]
        },
        {
            "name" : "Bone.003",
            "rotation" : [
                -0.004590222612023354,
                0.9269866347312927,
                -0.3750646114349365,
                0.0011113688815385103
            ],
            "scale" : [
                1,
                0.9999999403953552,
                0.9999997615814209
            ],
            "translation" : [
                0.0015635923482477665,
                1.0251638889312744,
                0.3211576044559479
            ]
        },
        {
            "children" : [
                2,
                3,
                4
            ],
            "name" : "Bone"
        },
        {
            "mesh" : 0,
            "name" : "Plane",
            "scale" : [
                0.4563857316970825,
                0.4563857316970825,
                0.4563857316970825
            ],
            "skin" : 0,
            "translation" : [
                0.002806421834975481,
                0.0006252271705307066,
                -0.0026647497434169054
            ]
        },
        {
            "children" : [
                6,
                5
            ],
            "name" : "Armature",
            "scale" : [
                2.191128969192505,
                2.191128969192505,
                2.191128969192505
            ],
            "translation" : [
                -0.006149232387542725,
                -0.0013699531555175781,
                0.00583881139755249
            ]
        }
    ],
    "animations" : [
        {
            "channels" : [
                {
                    "sampler" : 0,
                    "target" : {
                        "node" : 6,
                        "path" : "translation"
                    }
                },
                {
                    "sampler" : 1,
                    "target" : {
                        "node" : 6,
                        "path" : "rotation"
                    }
                },
                {
                    "sampler" : 2,
                    "target" : {
                        "node" : 6,
                        "path" : "scale"
                    }
                }
            ],
            "name" : "PlaneAction",
            "samplers" : [
                {
                    "input" : 13,
                    "interpolation" : "STEP",
                    "output" : 14
                },
                {
                    "input" : 13,
                    "interpolation" : "STEP",
                    "output" : 15
                },
                {
                    "input" : 13,
                    "interpolation" : "STEP",
                    "output" : 16
                }
            ]
        },
        {
            "channels" : [
                {
                    "sampler" : 0,
                    "target" : {
                        "node" : 3,
                        "path" : "translation"
                    }
                },
                {
                    "sampler" : 1,
                    "target" : {
                        "node" : 3,
                        "path" : "rotation"
                    }
                },
                {
                    "sampler" : 2,
                    "target" : {
                        "node" : 3,
                        "path" : "scale"
                    }
                },
                {
                    "sampler" : 3,
                    "target" : {
                        "node" : 2,
                        "path" : "translation"
                    }
                },
                {
                    "sampler" : 4,
                    "target" : {
                        "node" : 2,
                        "path" : "rotation"
                    }
                },
                {
                    "sampler" : 5,
                    "target" : {
                        "node" : 2,
                        "path" : "scale"
                    }
                },
                {
                    "sampler" : 6,
                    "target" : {
                        "node" : 4,
                        "path" : "translation"
                    }
                },
                {
                    "sampler" : 7,
                    "target" : {
                        "node" : 4,
                        "path" : "rotation"
                    }
                },
                {
                    "sampler" : 8,
                    "target" : {
                        "node" : 4,
                        "path" : "scale"
                    }
                }
            ],
            "name" : "ArmatureAction.001",
            "samplers" : [
                {
                    "input" : 17,
                    "interpolation" : "CUBICSPLINE",
                    "output" : 18
                },
                {
                    "input" : 17,
                    "interpolation" : "CUBICSPLINE",
                    "output" : 19
                },
                {
                    "input" : 17,
                    "interpolation" : "CUBICSPLINE",
                    "output" : 20
                },
                {
                    "input" : 21,
                    "interpolation" : "CUBICSPLINE",
                    "output" : 22
                },
                {
                    "input" : 21,
                    "interpolation" : "CUBICSPLINE",
                    "output" : 23
                },
                {
                    "input" : 21,
                    "interpolation" : "CUBICSPLINE",
                    "output" : 24
                },
                {
                    "input" : 25,
                    "interpolation" : "CUBICSPLINE",
                    "output" : 26
                },
                {
                    "input" : 25,
                    "interpolation" : "CUBICSPLINE",
                    "output" : 27
                },
                {
                    "input" : 25,
                    "interpolation" : "CUBICSPLINE",
                    "output" : 28
                }
            ]
        }
    ],
    "materials" : [
        {
            "doubleSided" : true,
            "name" : "Design",
            "pbrMetallicRoughness" : {
                "baseColorTexture" : {
                    "index" : 0,
                    "texCoord" : 0
                },
                "metallicFactor" : 0,
                "roughnessFactor" : 0.5
            }
        },
        {
            "doubleSided" : true,
            "name" : "White",
            "pbrMetallicRoughness" : {
                "baseColorFactor" : [
                    0.800000011920929,
                    0.800000011920929,
                    0.800000011920929,
                    1
                ],
                "metallicFactor" : 0,
                "roughnessFactor" : 0.5
            }
        }
    ],
    "meshes" : [
        {
            "name" : "Plane.001",
            "primitives" : [
                {
                    "attributes" : {
                        "POSITION" : 0,
                        "NORMAL" : 1,
                        "TEXCOORD_0" : 2,
                        "JOINTS_0" : 3,
                        "WEIGHTS_0" : 4
                    },
                    "indices" : 5,
                    "material" : 0
                },
                {
                    "attributes" : {
                        "POSITION" : 6,
                        "NORMAL" : 7,
                        "TEXCOORD_0" : 8,
                        "JOINTS_0" : 9,
                        "WEIGHTS_0" : 10
                    },
                    "indices" : 11,
                    "material" : 1
                }
            ]
        }
    ],
    "textures" : [
        {
            "source" : 0
        }
    ],
    "images" : [
        {
            "mimeType" : "image/png",
            "name" : "texture",
            "uri" : "texture.png"
        }
    ],
    "skins" : [
        {
            "inverseBindMatrices" : 12,
            "joints" : [
                5,
                2,
                3,
                4
            ],
            "name" : "Armature"
        }
    ],
    "accessors" : [
        {
            "bufferView" : 0,
            "componentType" : 5126,
            "count" : 176,
            "max" : [
                1.070401668548584,
                3.0730175971984863,
                1.5828794240951538
            ],
            "min" : [
                -0.9983997344970703,
                -0.019661467522382736,
                -0.5996179580688477
            ],
            "type" : "VEC3"
        },
        {
            "bufferView" : 1,
            "componentType" : 5126,
            "count" : 176,
            "type" : "VEC3"
        },
        {
            "bufferView" : 2,
            "componentType" : 5126,
            "count" : 176,
            "type" : "VEC2"
        },
        {
            "bufferView" : 3,
            "componentType" : 5123,
            "count" : 176,
            "type" : "VEC4"
        },
        {
            "bufferView" : 4,
            "componentType" : 5126,
            "count" : 176,
            "type" : "VEC4"
        },
        {
            "bufferView" : 5,
            "componentType" : 5123,
            "count" : 276,
            "type" : "SCALAR"
        },
        {
            "bufferView" : 6,
            "componentType" : 5126,
            "count" : 43,
            "max" : [
                0.6000000238418579,
                3.0693910121917725,
                1.5695557594299316
            ],
            "min" : [
                -0.6000000238418579,
                0.021464211866259575,
                -0.5763388872146606
            ],
            "type" : "VEC3"
        },
        {
            "bufferView" : 7,
            "componentType" : 5126,
            "count" : 43,
            "type" : "VEC3"
        },
        {
            "bufferView" : 8,
            "componentType" : 5126,
            "count" : 43,
            "type" : "VEC2"
        },
        {
            "bufferView" : 9,
            "componentType" : 5123,
            "count" : 43,
            "type" : "VEC4"
        },
        {
            "bufferView" : 10,
            "componentType" : 5126,
            "count" : 43,
            "type" : "VEC4"
        },
        {
            "bufferView" : 11,
            "componentType" : 5123,
            "count" : 75,
            "type" : "SCALAR"
        },
        {
            "bufferView" : 12,
            "componentType" : 5126,
            "count" : 4,
            "type" : "MAT4"
        },
        {
            "bufferView" : 13,
            "componentType" : 5126,
            "count" : 1,
            "max" : [
                0
            ],
            "min" : [
                0
            ],
            "type" : "SCALAR"
        },
        {
            "bufferView" : 14,
            "componentType" : 5126,
            "count" : 1,
            "type" : "VEC3"
        },
        {
            "bufferView" : 15,
            "componentType" : 5126,
            "count" : 1,
            "type" : "VEC4"
        },
        {
            "bufferView" : 16,
            "componentType" : 5126,
            "count" : 1,
            "type" : "VEC3"
        },
        {
            "bufferView" : 17,
            "componentType" : 5126,
            "count" : 4,
            "max" : [
                7.5
            ],
            "min" : [
                0
            ],
            "type" : "SCALAR"
        },
        {
            "bufferView" : 18,
            "componentType" : 5126,
            "count" : 12,
            "type" : "VEC3"
        },
        {
            "bufferView" : 19,
            "componentType" : 5126,
            "count" : 12,
            "type" : "VEC4"
        },
        {
            "bufferView" : 20,
            "componentType" : 5126,
            "count" : 12,
            "type" : "VEC3"
        },
        {
            "bufferView" : 21,
            "componentType" : 5126,
            "count" : 3,
            "max" : [
                7.5
            ],
            "min" : [
                0
            ],
            "type" : "SCALAR"
        },
        {
            "bufferView" : 22,
            "componentType" : 5126,
            "count" : 9,
            "type" : "VEC3"
        },
        {
            "bufferView" : 23,
            "componentType" : 5126,
            "count" : 9,
            "type" : "VEC4"
        },
        {
            "bufferView" : 24,
            "componentType" : 5126,
            "count" : 9,
            "type" : "VEC3"
        },
        {
            "bufferView" : 25,
            "componentType" : 5126,
            "count" : 2,
            "max" : [
                7.5
            ],
            "min" : [
                0
            ],
            "type" : "SCALAR"
        },
        {
            "bufferView" : 26,
            "componentType" : 5126,
            "count" : 6,
            "type" : "VEC3"
        },
        {
            "bufferView" : 27,
            "componentType" : 5126,
            "count" : 6,
            "type" : "VEC4"
        },
        {
            "bufferView" : 28,
            "componentType" : 5126,
            "count" : 6,
            "type" : "VEC3"
        }
    ],
    "bufferViews" : [
        {
            "buffer" : 0,
            "byteLength" : 2112,
            "byteOffset" : 0
        },
        {
            "buffer" : 0,
            "byteLength" : 2112,
            "byteOffset" : 2112
        },
        {
            "buffer" : 0,
            "byteLength" : 1408,
            "byteOffset" : 4224
        },
        {
            "buffer" : 0,
            "byteLength" : 1408,
            "byteOffset" : 5632
        },
        {
            "buffer" : 0,
            "byteLength" : 2816,
            "byteOffset" : 7040
        },
        {
            "buffer" : 0,
            "byteLength" : 552,
            "byteOffset" : 9856
        },
        {
            "buffer" : 0,
            "byteLength" : 516,
            "byteOffset" : 10408
        },
        {
            "buffer" : 0,
            "byteLength" : 516,
            "byteOffset" : 10924
        },
        {
            "buffer" : 0,
            "byteLength" : 344,
            "byteOffset" : 11440
        },
        {
            "buffer" : 0,
            "byteLength" : 344,
            "byteOffset" : 11784
        },
        {
            "buffer" : 0,
            "byteLength" : 688,
            "byteOffset" : 12128
        },
        {
            "buffer" : 0,
            "byteLength" : 150,
            "byteOffset" : 12816
        },
        {
            "buffer" : 0,
            "byteLength" : 256,
            "byteOffset" : 12968
        },
        {
            "buffer" : 0,
            "byteLength" : 4,
            "byteOffset" : 13224
        },
        {
            "buffer" : 0,
            "byteLength" : 12,
            "byteOffset" : 13228
        },
        {
            "buffer" : 0,
            "byteLength" : 16,
            "byteOffset" : 13240
        },
        {
            "buffer" : 0,
            "byteLength" : 12,
            "byteOffset" : 13256
        },
        {
            "buffer" : 0,
            "byteLength" : 16,
            "byteOffset" : 13268
        },
        {
            "buffer" : 0,
            "byteLength" : 144,
            "byteOffset" : 13284
        },
        {
            "buffer" : 0,
            "byteLength" : 192,
            "byteOffset" : 13428
        },
        {
            "buffer" : 0,
            "byteLength" : 144,
            "byteOffset" : 13620
        },
        {
            "buffer" : 0,
            "byteLength" : 12,
            "byteOffset" : 13764
        },
        {
            "buffer" : 0,
            "byteLength" : 108,
            "byteOffset" : 13776
        },
        {
            "buffer" : 0,
            "byteLength" : 144,
            "byteOffset" : 13884
        },
        {
            "buffer" : 0,
            "byteLength" : 108,
            "byteOffset" : 14028
        },
        {
            "buffer" : 0,
            "byteLength" : 8,
            "byteOffset" : 14136
        },
        {
            "buffer" : 0,
            "byteLength" : 72,
            "byteOffset" : 14144
        },
        {
            "buffer" : 0,
            "byteLength" : 96,
            "byteOffset" : 14216
        },
        {
            "buffer" : 0,
            "byteLength" : 72,
            "byteOffset" : 14312
        }
    ],
    "buffers" : [
        {
            "byteLength" : 14384,
            "uri" : "scene.bin"
        }
    ]
}
