{
    "asset" : {
        "generator" : "Khronos glTF Blender I/O v0.9.36",
        "version" : "2.0"
    },
    "scene" : 0,
    "scenes" : [
        {
            "name" : "Scene",
            "nodes" : [
                0,
                1,
                2,
                3,
                4,
                5,
                6
            ]
        }
    ],
    "nodes" : [
        {
            "name" : "Light",
            "rotation" : [
                0.16907575726509094,
                0.7558803558349609,
                -0.27217137813568115,
                0.570947527885437
            ],
            "translation" : [
                4.076245307922363,
                5.903861999511719,
                -1.0054539442062378
            ]
        },
        {
            "name" : "Camera",
            "rotation" : [
                0.483536034822464,
                0.33687159419059753,
                -0.20870360732078552,
                0.7804827094078064
            ],
            "translation" : [
                7.358891487121582,
                4.958309173583984,
                6.925790786743164
            ]
        },
        {
            "mesh" : 0,
            "name" : "Circle",
            "translation" : [
                -0.2338923215866089,
                0.43909773230552673,
                -0.25910162925720215
            ]
        },
        {
            "mesh" : 1,
            "name" : "Torus.002",
            "scale" : [
                0.9658498764038086,
                0.9658498764038086,
                0.9658498764038086
            ],
            "translation" : [
                0,
                0.9042290449142456,
                0
            ]
        },
        {
            "mesh" : 2,
            "name" : "Lid",
            "scale" : [
                0.4147021472454071,
                0.39326074719429016,
                0.4147021472454071
            ],
            "translation" : [
                0,
                0.8608508706092834,
                0
            ]
        },
        {
            "mesh" : 3,
            "name" : "Circle.001"
        },
        {
            "mesh" : 4,
            "name" : "Vert",
            "translation" : [
                0.042447179555892944,
                0.0882728099822998,
                0.020962506532669067
            ]
        }
    ],
    "animations" : [
        {
            "channels" : [
                {
                    "sampler" : 0,
                    "target" : {
                        "node" : 2,
                        "path" : "rotation"
                    }
                }
            ],
            "name" : "CircleAction",
            "samplers" : [
                {
                    "input" : 28,
                    "interpolation" : "CUBICSPLINE",
                    "output" : 29
                }
            ]
        }
    ],
    "materials" : [
        {
            "doubleSided" : true,
            "name" : "front",
            "pbrMetallicRoughness" : {
                "baseColorTexture" : {
                    "index" : 0,
                    "texCoord" : 0
                },
                "metallicFactor" : 0,
                "roughnessFactor" : 0.5
            }
        },
        {
            "doubleSided" : true,
            "name" : "back",
            "pbrMetallicRoughness" : {
                "baseColorTexture" : {
                    "index" : 1,
                    "texCoord" : 0
                },
                "metallicFactor" : 0,
                "roughnessFactor" : 0.5
            }
        },
        {
            "doubleSided" : true,
            "name" : "Material.003",
            "pbrMetallicRoughness" : {
                "baseColorFactor" : [
                    0.800000011920929,
                    0.800000011920929,
                    0.800000011920929,
                    1
                ],
                "metallicFactor" : 0,
                "roughnessFactor" : 0.5
            }
        },
        {
            "doubleSided" : true,
            "name" : "Material.000",
            "pbrMetallicRoughness" : {
                "baseColorFactor" : [
                    0.800000011920929,
                    0.800000011920929,
                    0.800000011920929,
                    1
                ],
                "metallicFactor" : 0,
                "roughnessFactor" : 0.5
            }
        },
        {
            "doubleSided" : true,
            "name" : "Material.002",
            "pbrMetallicRoughness" : {
                "baseColorFactor" : [
                    0.800000011920929,
                    0.800000011920929,
                    0.800000011920929,
                    1
                ],
                "metallicFactor" : 0,
                "roughnessFactor" : 0.5
            }
        }
    ],
    "meshes" : [
        {
            "name" : "Circle",
            "primitives" : [
                {
                    "attributes" : {
                        "POSITION" : 0,
                        "NORMAL" : 1,
                        "TEXCOORD_0" : 2
                    },
                    "indices" : 3,
                    "material" : 0
                },
                {
                    "attributes" : {
                        "POSITION" : 4,
                        "NORMAL" : 5,
                        "TEXCOORD_0" : 6
                    },
                    "indices" : 7,
                    "material" : 1
                }
            ]
        },
        {
            "name" : "Torus.002",
            "primitives" : [
                {
                    "attributes" : {
                        "POSITION" : 8,
                        "NORMAL" : 9,
                        "TEXCOORD_0" : 10
                    },
                    "indices" : 11,
                    "material" : 2
                }
            ]
        },
        {
            "name" : "Circle.001",
            "primitives" : [
                {
                    "attributes" : {
                        "POSITION" : 12,
                        "NORMAL" : 13,
                        "TEXCOORD_0" : 14
                    },
                    "indices" : 15,
                    "material" : 3
                }
            ]
        },
        {
            "name" : "Circle.003",
            "primitives" : [
                {
                    "attributes" : {
                        "POSITION" : 16,
                        "NORMAL" : 17,
                        "TEXCOORD_0" : 18
                    },
                    "indices" : 19,
                    "material" : 0
                },
                {
                    "attributes" : {
                        "POSITION" : 20,
                        "NORMAL" : 21,
                        "TEXCOORD_0" : 22
                    },
                    "indices" : 23,
                    "material" : 4
                }
            ]
        },
        {
            "name" : "Vert",
            "primitives" : [
                {
                    "attributes" : {
                        "POSITION" : 24,
                        "NORMAL" : 25,
                        "TEXCOORD_0" : 26
                    },
                    "indices" : 27,
                    "material" : 0
                }
            ]
        }
    ],
    "textures" : [
        {
            "source" : 0
        },
        {
            "source" : 1
        }
    ],
    "images" : [
        {
            "mimeType" : "image/png",
            "name" : "front",
            "uri" : "front.png"
        },
        {
            "mimeType" : "image/png",
            "name" : "back",
            "uri" : "back.png"
        }
    ],
    "accessors" : [
        {
            "bufferView" : 0,
            "componentType" : 5126,
            "count" : 147,
            "max" : [
                0.012963607907295227,
                0.14626142382621765,
                0.36912959814071655
            ],
            "min" : [
                -0.13219210505485535,
                -0.14912989735603333,
                -0.011465519666671753
            ],
            "type" : "VEC3"
        },
        {
            "bufferView" : 1,
            "componentType" : 5126,
            "count" : 147,
            "type" : "VEC3"
        },
        {
            "bufferView" : 2,
            "componentType" : 5126,
            "count" : 147,
            "type" : "VEC2"
        },
        {
            "bufferView" : 3,
            "componentType" : 5123,
            "count" : 729,
            "type" : "SCALAR"
        },
        {
            "bufferView" : 4,
            "componentType" : 5126,
            "count" : 50,
            "max" : [
                0.012721583247184753,
                0.14626142382621765,
                0.368839830160141
            ],
            "min" : [
                -0.12975984811782837,
                -0.14885449409484863,
                -0.010733932256698608
            ],
            "type" : "VEC3"
        },
        {
            "bufferView" : 5,
            "componentType" : 5126,
            "count" : 50,
            "type" : "VEC3"
        },
        {
            "bufferView" : 6,
            "componentType" : 5126,
            "count" : 50,
            "type" : "VEC2"
        },
        {
            "bufferView" : 7,
            "componentType" : 5123,
            "count" : 183,
            "type" : "SCALAR"
        },
        {
            "bufferView" : 8,
            "componentType" : 5126,
            "count" : 10964,
            "max" : [
                0.4257197678089142,
                0.013949627988040447,
                0.4255460202693939
            ],
            "min" : [
                -0.4255232512950897,
                -0.01394965685904026,
                -0.4256969690322876
            ],
            "type" : "VEC3"
        },
        {
            "bufferView" : 9,
            "componentType" : 5126,
            "count" : 10964,
            "type" : "VEC3"
        },
        {
            "bufferView" : 10,
            "componentType" : 5126,
            "count" : 10964,
            "type" : "VEC2"
        },
        {
            "bufferView" : 11,
            "componentType" : 5123,
            "count" : 11172,
            "type" : "SCALAR"
        },
        {
            "bufferView" : 12,
            "componentType" : 5126,
            "count" : 11666,
            "max" : [
                1.0039490461349487,
                0.31729891896247864,
                1.0195444822311401
            ],
            "min" : [
                -1.0039490461349487,
                -0.02725491113960743,
                -1.0274534225463867
            ],
            "type" : "VEC3"
        },
        {
            "bufferView" : 13,
            "componentType" : 5126,
            "count" : 11666,
            "type" : "VEC3"
        },
        {
            "bufferView" : 14,
            "componentType" : 5126,
            "count" : 11666,
            "type" : "VEC2"
        },
        {
            "bufferView" : 15,
            "componentType" : 5123,
            "count" : 14613,
            "type" : "SCALAR"
        },
        {
            "bufferView" : 16,
            "componentType" : 5126,
            "count" : 254,
            "max" : [
                0.3999999761581421,
                0.8999998569488525,
                0.39999979734420776
            ],
            "min" : [
                -0.40000009536743164,
                0.13189303874969482,
                -0.4000002145767212
            ],
            "type" : "VEC3"
        },
        {
            "bufferView" : 17,
            "componentType" : 5126,
            "count" : 254,
            "type" : "VEC3"
        },
        {
            "bufferView" : 18,
            "componentType" : 5126,
            "count" : 254,
            "type" : "VEC2"
        },
        {
            "bufferView" : 19,
            "componentType" : 5123,
            "count" : 1200,
            "type" : "SCALAR"
        },
        {
            "bufferView" : 20,
            "componentType" : 5126,
            "count" : 648,
            "max" : [
                0.3999999761581421,
                0.8999998569488525,
                0.39999979734420776
            ],
            "min" : [
                -0.40000009536743164,
                0,
                -0.4000002145767212
            ],
            "type" : "VEC3"
        },
        {
            "bufferView" : 21,
            "componentType" : 5126,
            "count" : 648,
            "type" : "VEC3"
        },
        {
            "bufferView" : 22,
            "componentType" : 5126,
            "count" : 648,
            "type" : "VEC2"
        },
        {
            "bufferView" : 23,
            "componentType" : 5123,
            "count" : 1740,
            "type" : "SCALAR"
        },
        {
            "bufferView" : 24,
            "componentType" : 5126,
            "count" : 16458,
            "max" : [
                -0.2622433006763458,
                0.5014627575874329,
                0.05358429253101349
            ],
            "min" : [
                -0.4088961184024811,
                0.19721487164497375,
                -0.29357755184173584
            ],
            "type" : "VEC3"
        },
        {
            "bufferView" : 25,
            "componentType" : 5126,
            "count" : 16458,
            "type" : "VEC3"
        },
        {
            "bufferView" : 26,
            "componentType" : 5126,
            "count" : 16458,
            "type" : "VEC2"
        },
        {
            "bufferView" : 27,
            "componentType" : 5123,
            "count" : 24618,
            "type" : "SCALAR"
        },
        {
            "bufferView" : 28,
            "componentType" : 5126,
            "count" : 3,
            "max" : [
                2.5
            ],
            "min" : [
                0.041666666666666664
            ],
            "type" : "SCALAR"
        },
        {
            "bufferView" : 29,
            "componentType" : 5126,
            "count" : 9,
            "type" : "VEC4"
        }
    ],
    "bufferViews" : [
        {
            "buffer" : 0,
            "byteLength" : 1764,
            "byteOffset" : 0
        },
        {
            "buffer" : 0,
            "byteLength" : 1764,
            "byteOffset" : 1764
        },
        {
            "buffer" : 0,
            "byteLength" : 1176,
            "byteOffset" : 3528
        },
        {
            "buffer" : 0,
            "byteLength" : 1458,
            "byteOffset" : 4704
        },
        {
            "buffer" : 0,
            "byteLength" : 600,
            "byteOffset" : 6164
        },
        {
            "buffer" : 0,
            "byteLength" : 600,
            "byteOffset" : 6764
        },
        {
            "buffer" : 0,
            "byteLength" : 400,
            "byteOffset" : 7364
        },
        {
            "buffer" : 0,
            "byteLength" : 366,
            "byteOffset" : 7764
        },
        {
            "buffer" : 0,
            "byteLength" : 131568,
            "byteOffset" : 8132
        },
        {
            "buffer" : 0,
            "byteLength" : 131568,
            "byteOffset" : 139700
        },
        {
            "buffer" : 0,
            "byteLength" : 87712,
            "byteOffset" : 271268
        },
        {
            "buffer" : 0,
            "byteLength" : 22344,
            "byteOffset" : 358980
        },
        {
            "buffer" : 0,
            "byteLength" : 139992,
            "byteOffset" : 381324
        },
        {
            "buffer" : 0,
            "byteLength" : 139992,
            "byteOffset" : 521316
        },
        {
            "buffer" : 0,
            "byteLength" : 93328,
            "byteOffset" : 661308
        },
        {
            "buffer" : 0,
            "byteLength" : 29226,
            "byteOffset" : 754636
        },
        {
            "buffer" : 0,
            "byteLength" : 3048,
            "byteOffset" : 783864
        },
        {
            "buffer" : 0,
            "byteLength" : 3048,
            "byteOffset" : 786912
        },
        {
            "buffer" : 0,
            "byteLength" : 2032,
            "byteOffset" : 789960
        },
        {
            "buffer" : 0,
            "byteLength" : 2400,
            "byteOffset" : 791992
        },
        {
            "buffer" : 0,
            "byteLength" : 7776,
            "byteOffset" : 794392
        },
        {
            "buffer" : 0,
            "byteLength" : 7776,
            "byteOffset" : 802168
        },
        {
            "buffer" : 0,
            "byteLength" : 5184,
            "byteOffset" : 809944
        },
        {
            "buffer" : 0,
            "byteLength" : 3480,
            "byteOffset" : 815128
        },
        {
            "buffer" : 0,
            "byteLength" : 197496,
            "byteOffset" : 818608
        },
        {
            "buffer" : 0,
            "byteLength" : 197496,
            "byteOffset" : 1016104
        },
        {
            "buffer" : 0,
            "byteLength" : 131664,
            "byteOffset" : 1213600
        },
        {
            "buffer" : 0,
            "byteLength" : 49236,
            "byteOffset" : 1345264
        },
        {
            "buffer" : 0,
            "byteLength" : 12,
            "byteOffset" : 1394500
        },
        {
            "buffer" : 0,
            "byteLength" : 144,
            "byteOffset" : 1394512
        }
    ],
    "buffers" : [
        {
            "byteLength" : 1394656,
            "uri" : "scene.bin"
        }
    ]
}
