{
    "asset" : {
        "generator" : "Khronos glTF Blender I/O v0.9.36",
        "version" : "2.0"
    },
    "scene" : 0,
    "scenes" : [
        {
            "name" : "Scene",
            "nodes" : [
                0,
                1,
                2,
                3,
                4
            ]
        }
    ],
    "nodes" : [
        {
            "name" : "Light",
            "rotation" : [
                0.16907575726509094,
                0.7558803558349609,
                -0.27217137813568115,
                0.570947527885437
            ],
            "translation" : [
                4.076245307922363,
                5.903861999511719,
                -1.0054539442062378
            ]
        },
        {
            "name" : "Camera",
            "rotation" : [
                0.483536034822464,
                0.33687159419059753,
                -0.20870360732078552,
                0.7804827094078064
            ],
            "translation" : [
                7.358891487121582,
                4.958309173583984,
                6.925790786743164
            ]
        },
        {
            "mesh" : 0,
            "name" : "Circle"
        },
        {
            "mesh" : 1,
            "name" : "Torus.002",
            "scale" : [
                0.9658498764038086,
                0.9658498764038086,
                0.9658498764038086
            ],
            "translation" : [
                0,
                0.9042290449142456,
                0
            ]
        },
        {
            "mesh" : 2,
            "name" : "Lid",
            "scale" : [
                0.4147021472454071,
                0.39326074719429016,
                0.4147021472454071
            ],
            "translation" : [
                0,
                0.8608508706092834,
                0
            ]
        }
    ],
    "materials" : [
        {
            "doubleSided" : true,
            "name" : "Material.001",
            "pbrMetallicRoughness" : {
                "baseColorTexture" : {
                    "index" : 0,
                    "texCoord" : 0
                },
                "metallicFactor" : 0,
                "roughnessFactor" : 0.5
            }
        },
        {
            "doubleSided" : true,
            "name" : "Material.002",
            "pbrMetallicRoughness" : {
                "baseColorFactor" : [
                    0.800000011920929,
                    0.800000011920929,
                    0.800000011920929,
                    1
                ],
                "metallicFactor" : 0,
                "roughnessFactor" : 0.5
            }
        },
        {
            "doubleSided" : true,
            "name" : "Material.003",
            "pbrMetallicRoughness" : {
                "baseColorFactor" : [
                    0.800000011920929,
                    0.800000011920929,
                    0.800000011920929,
                    1
                ],
                "metallicFactor" : 0,
                "roughnessFactor" : 0.5
            }
        },
        {
            "doubleSided" : true,
            "name" : "Material.000",
            "pbrMetallicRoughness" : {
                "baseColorFactor" : [
                    0.800000011920929,
                    0.800000011920929,
                    0.800000011920929,
                    1
                ],
                "metallicFactor" : 0,
                "roughnessFactor" : 0.5
            }
        }
    ],
    "meshes" : [
        {
            "name" : "Circle",
            "primitives" : [
                {
                    "attributes" : {
                        "POSITION" : 0,
                        "NORMAL" : 1,
                        "TEXCOORD_0" : 2
                    },
                    "indices" : 3,
                    "material" : 0
                },
                {
                    "attributes" : {
                        "POSITION" : 4,
                        "NORMAL" : 5,
                        "TEXCOORD_0" : 6
                    },
                    "indices" : 7,
                    "material" : 1
                }
            ]
        },
        {
            "name" : "Torus.002",
            "primitives" : [
                {
                    "attributes" : {
                        "POSITION" : 8,
                        "NORMAL" : 9,
                        "TEXCOORD_0" : 10
                    },
                    "indices" : 11,
                    "material" : 2
                }
            ]
        },
        {
            "name" : "Circle.001",
            "primitives" : [
                {
                    "attributes" : {
                        "POSITION" : 12,
                        "NORMAL" : 13,
                        "TEXCOORD_0" : 14
                    },
                    "indices" : 15,
                    "material" : 3
                }
            ]
        }
    ],
    "textures" : [
        {
            "source" : 0
        }
    ],
    "images" : [
        {
            "mimeType" : "image/png",
            "name" : "front",
            "uri" : "front.png"
        }
    ],
    "accessors" : [
        {
            "bufferView" : 0,
            "componentType" : 5126,
            "count" : 512,
            "max" : [
                0.3999999761581421,
                0.8999998569488525,
                0.39999979734420776
            ],
            "min" : [
                -0.40000009536743164,
                0.13189303874969482,
                -0.4000002145767212
            ],
            "type" : "VEC3"
        },
        {
            "bufferView" : 1,
            "componentType" : 5126,
            "count" : 512,
            "type" : "VEC3"
        },
        {
            "bufferView" : 2,
            "componentType" : 5126,
            "count" : 512,
            "type" : "VEC2"
        },
        {
            "bufferView" : 3,
            "componentType" : 5123,
            "count" : 768,
            "type" : "SCALAR"
        },
        {
            "bufferView" : 4,
            "componentType" : 5126,
            "count" : 800,
            "max" : [
                0.3999999761581421,
                0.8999998569488525,
                0.39999979734420776
            ],
            "min" : [
                -0.40000009536743164,
                0,
                -0.4000002145767212
            ],
            "type" : "VEC3"
        },
        {
            "bufferView" : 5,
            "componentType" : 5126,
            "count" : 800,
            "type" : "VEC3"
        },
        {
            "bufferView" : 6,
            "componentType" : 5126,
            "count" : 800,
            "type" : "VEC2"
        },
        {
            "bufferView" : 7,
            "componentType" : 5123,
            "count" : 1524,
            "type" : "SCALAR"
        },
        {
            "bufferView" : 8,
            "componentType" : 5126,
            "count" : 10964,
            "max" : [
                0.4257197678089142,
                0.013949627988040447,
                0.4255460202693939
            ],
            "min" : [
                -0.4255232512950897,
                -0.01394965685904026,
                -0.4256969690322876
            ],
            "type" : "VEC3"
        },
        {
            "bufferView" : 9,
            "componentType" : 5126,
            "count" : 10964,
            "type" : "VEC3"
        },
        {
            "bufferView" : 10,
            "componentType" : 5126,
            "count" : 10964,
            "type" : "VEC2"
        },
        {
            "bufferView" : 11,
            "componentType" : 5123,
            "count" : 11172,
            "type" : "SCALAR"
        },
        {
            "bufferView" : 12,
            "componentType" : 5126,
            "count" : 11666,
            "max" : [
                1.0039490461349487,
                0.31729891896247864,
                1.0195444822311401
            ],
            "min" : [
                -1.0039490461349487,
                -0.02725491113960743,
                -1.0274534225463867
            ],
            "type" : "VEC3"
        },
        {
            "bufferView" : 13,
            "componentType" : 5126,
            "count" : 11666,
            "type" : "VEC3"
        },
        {
            "bufferView" : 14,
            "componentType" : 5126,
            "count" : 11666,
            "type" : "VEC2"
        },
        {
            "bufferView" : 15,
            "componentType" : 5123,
            "count" : 14613,
            "type" : "SCALAR"
        }
    ],
    "bufferViews" : [
        {
            "buffer" : 0,
            "byteLength" : 6144,
            "byteOffset" : 0
        },
        {
            "buffer" : 0,
            "byteLength" : 6144,
            "byteOffset" : 6144
        },
        {
            "buffer" : 0,
            "byteLength" : 4096,
            "byteOffset" : 12288
        },
        {
            "buffer" : 0,
            "byteLength" : 1536,
            "byteOffset" : 16384
        },
        {
            "buffer" : 0,
            "byteLength" : 9600,
            "byteOffset" : 17920
        },
        {
            "buffer" : 0,
            "byteLength" : 9600,
            "byteOffset" : 27520
        },
        {
            "buffer" : 0,
            "byteLength" : 6400,
            "byteOffset" : 37120
        },
        {
            "buffer" : 0,
            "byteLength" : 3048,
            "byteOffset" : 43520
        },
        {
            "buffer" : 0,
            "byteLength" : 131568,
            "byteOffset" : 46568
        },
        {
            "buffer" : 0,
            "byteLength" : 131568,
            "byteOffset" : 178136
        },
        {
            "buffer" : 0,
            "byteLength" : 87712,
            "byteOffset" : 309704
        },
        {
            "buffer" : 0,
            "byteLength" : 22344,
            "byteOffset" : 397416
        },
        {
            "buffer" : 0,
            "byteLength" : 139992,
            "byteOffset" : 419760
        },
        {
            "buffer" : 0,
            "byteLength" : 139992,
            "byteOffset" : 559752
        },
        {
            "buffer" : 0,
            "byteLength" : 93328,
            "byteOffset" : 699744
        },
        {
            "buffer" : 0,
            "byteLength" : 29226,
            "byteOffset" : 793072
        }
    ],
    "buffers" : [
        {
            "byteLength" : 822300,
            "uri" : "scene.bin"
        }
    ]
}
