{
    "asset" : {
        "generator" : "Khronos glTF Blender I/O v0.9.36",
        "version" : "2.0"
    },
    "scene" : 0,
    "scenes" : [
        {
            "name" : "Scene",
            "nodes" : [
                0,
                1,
                2,
                3
            ]
        }
    ],
    "nodes" : [
        {
            "name" : "Light",
            "rotation" : [
                0.16907575726509094,
                0.7558803558349609,
                -0.27217137813568115,
                0.570947527885437
            ],
            "translation" : [
                4.076245307922363,
                5.903861999511719,
                -1.0054539442062378
            ]
        },
        {
            "name" : "Camera",
            "rotation" : [
                0.520987331867218,
                0.37432289123535156,
                -0.2718707323074341,
                0.7173150777816772
            ],
            "translation" : [
                2.432011365890503,
                1.1975148916244507,
                1.6685389280319214
            ]
        },
        {
            "mesh" : 0,
            "name" : "Torus.001",
            "scale" : [
                1.1019970178604126,
                1,
                1.1019970178604126
            ],
            "translation" : [
                0,
                0.44731393456459045,
                0
            ]
        },
        {
            "mesh" : 1,
            "name" : "Circle.001"
        }
    ],
    "materials" : [
        {
            "doubleSided" : true,
            "name" : "Material.001",
            "pbrMetallicRoughness" : {
                "baseColorFactor" : [
                    0.800000011920929,
                    0.800000011920929,
                    0.800000011920929,
                    1
                ],
                "metallicFactor" : 0,
                "roughnessFactor" : 0.5
            }
        },
        {
            "doubleSided" : true,
            "name" : "Material.002",
            "pbrMetallicRoughness" : {
                "baseColorFactor" : [
                    0.8000000715255737,
                    0.15625473856925964,
                    0.21364445984363556,
                    1
                ],
                "metallicFactor" : 0,
                "roughnessFactor" : 0.5
            }
        }
    ],
    "meshes" : [
        {
            "name" : "Torus.001",
            "primitives" : [
                {
                    "attributes" : {
                        "POSITION" : 0,
                        "NORMAL" : 1,
                        "TEXCOORD_0" : 2
                    },
                    "indices" : 3,
                    "material" : 0
                }
            ]
        },
        {
            "name" : "Circle.001",
            "primitives" : [
                {
                    "attributes" : {
                        "POSITION" : 4,
                        "NORMAL" : 5,
                        "TEXCOORD_0" : 6
                    },
                    "indices" : 7,
                    "material" : 1
                },
                {
                    "attributes" : {
                        "POSITION" : 8,
                        "NORMAL" : 9,
                        "TEXCOORD_0" : 10
                    },
                    "indices" : 11,
                    "material" : 0
                }
            ]
        }
    ],
    "accessors" : [
        {
            "bufferView" : 0,
            "componentType" : 5126,
            "count" : 9360,
            "max" : [
                0.3854999840259552,
                0.015943102538585663,
                0.3854999840259552
            ],
            "min" : [
                -0.3854999840259552,
                -0.01594310998916626,
                -0.3854999840259552
            ],
            "type" : "VEC3"
        },
        {
            "bufferView" : 1,
            "componentType" : 5126,
            "count" : 9360,
            "type" : "VEC3"
        },
        {
            "bufferView" : 2,
            "componentType" : 5126,
            "count" : 9360,
            "type" : "VEC2"
        },
        {
            "bufferView" : 3,
            "componentType" : 5123,
            "count" : 14040,
            "type" : "SCALAR"
        },
        {
            "bufferView" : 4,
            "componentType" : 5126,
            "count" : 1076,
            "max" : [
                0.40000033378601074,
                0.450000137090683,
                0.4000002145767212
            ],
            "min" : [
                -0.39999961853027344,
                0,
                -0.39999985694885254
            ],
            "type" : "VEC3"
        },
        {
            "bufferView" : 5,
            "componentType" : 5126,
            "count" : 1076,
            "type" : "VEC3"
        },
        {
            "bufferView" : 6,
            "componentType" : 5126,
            "count" : 1076,
            "type" : "VEC2"
        },
        {
            "bufferView" : 7,
            "componentType" : 5123,
            "count" : 1920,
            "type" : "SCALAR"
        },
        {
            "bufferView" : 8,
            "componentType" : 5126,
            "count" : 64,
            "max" : [
                0.32921096682548523,
                0.025263473391532898,
                0.3292107582092285
            ],
            "min" : [
                -0.32921016216278076,
                0.025263473391532898,
                -0.32921040058135986
            ],
            "type" : "VEC3"
        },
        {
            "bufferView" : 9,
            "componentType" : 5126,
            "count" : 64,
            "type" : "VEC3"
        },
        {
            "bufferView" : 10,
            "componentType" : 5126,
            "count" : 64,
            "type" : "VEC2"
        },
        {
            "bufferView" : 11,
            "componentType" : 5123,
            "count" : 186,
            "type" : "SCALAR"
        }
    ],
    "bufferViews" : [
        {
            "buffer" : 0,
            "byteLength" : 112320,
            "byteOffset" : 0
        },
        {
            "buffer" : 0,
            "byteLength" : 112320,
            "byteOffset" : 112320
        },
        {
            "buffer" : 0,
            "byteLength" : 74880,
            "byteOffset" : 224640
        },
        {
            "buffer" : 0,
            "byteLength" : 28080,
            "byteOffset" : 299520
        },
        {
            "buffer" : 0,
            "byteLength" : 12912,
            "byteOffset" : 327600
        },
        {
            "buffer" : 0,
            "byteLength" : 12912,
            "byteOffset" : 340512
        },
        {
            "buffer" : 0,
            "byteLength" : 8608,
            "byteOffset" : 353424
        },
        {
            "buffer" : 0,
            "byteLength" : 3840,
            "byteOffset" : 362032
        },
        {
            "buffer" : 0,
            "byteLength" : 768,
            "byteOffset" : 365872
        },
        {
            "buffer" : 0,
            "byteLength" : 768,
            "byteOffset" : 366640
        },
        {
            "buffer" : 0,
            "byteLength" : 512,
            "byteOffset" : 367408
        },
        {
            "buffer" : 0,
            "byteLength" : 372,
            "byteOffset" : 367920
        }
    ],
    "buffers" : [
        {
            "byteLength" : 368292,
            "uri" : "scene.bin"
        }
    ]
}
