{
    "asset" : {
        "generator" : "Khronos glTF Blender I/O v0.9.36",
        "version" : "2.0"
    },
    "scene" : 0,
    "scenes" : [
        {
            "name" : "Scene",
            "nodes" : [
                0,
                1,
                2,
                3
            ]
        }
    ],
    "nodes" : [
        {
            "name" : "Light",
            "rotation" : [
                0.16907575726509094,
                0.7558803558349609,
                -0.27217137813568115,
                0.570947527885437
            ],
            "translation" : [
                4.076245307922363,
                5.903861999511719,
                -1.0054539442062378
            ]
        },
        {
            "name" : "Camera",
            "rotation" : [
                0.520987331867218,
                0.37432289123535156,
                -0.2718707323074341,
                0.7173150777816772
            ],
            "translation" : [
                2.432011365890503,
                1.1975148916244507,
                1.6685389280319214
            ]
        },
        {
            "mesh" : 0,
            "name" : "Torus.001",
            "scale" : [
                1.1019970178604126,
                1,
                1.1019970178604126
            ],
            "translation" : [
                0,
                0.44731393456459045,
                0
            ]
        },
        {
            "mesh" : 1,
            "name" : "Circle.001"
        }
    ],
    "materials" : [
        {
            "doubleSided" : true,
            "name" : "Material.001",
            "pbrMetallicRoughness" : {
                "baseColorFactor" : [
                    0.800000011920929,
                    0.800000011920929,
                    0.800000011920929,
                    1
                ],
                "metallicFactor" : 0,
                "roughnessFactor" : 0.5
            }
        },
        {
            "doubleSided" : true,
            "name" : "Material.002",
            "pbrMetallicRoughness" : {
                "baseColorTexture" : {
                    "index" : 0,
                    "texCoord" : 0
                },
                "metallicFactor" : 0,
                "roughnessFactor" : 0.5
            }
        },
        {
            "alphaCutoff" : 0.5,
            "alphaMode" : "MASK",
            "doubleSided" : true,
            "name" : "Material.003",
            "pbrMetallicRoughness" : {
                "baseColorFactor" : [
                    0.800000011920929,
                    0.800000011920929,
                    0.800000011920929,
                    1
                ],
                "metallicFactor" : 0,
                "roughnessFactor" : 0.5
            }
        }
    ],
    "meshes" : [
        {
            "name" : "Torus.001",
            "primitives" : [
                {
                    "attributes" : {
                        "POSITION" : 0,
                        "NORMAL" : 1,
                        "TEXCOORD_0" : 2
                    },
                    "indices" : 3,
                    "material" : 0
                }
            ]
        },
        {
            "name" : "Circle.001",
            "primitives" : [
                {
                    "attributes" : {
                        "POSITION" : 4,
                        "NORMAL" : 5,
                        "TEXCOORD_0" : 6
                    },
                    "indices" : 7,
                    "material" : 1
                },
                {
                    "attributes" : {
                        "POSITION" : 8,
                        "NORMAL" : 9,
                        "TEXCOORD_0" : 10
                    },
                    "indices" : 11,
                    "material" : 2
                }
            ]
        }
    ],
    "textures" : [
        {
            "source" : 0
        }
    ],
    "images" : [
        {
            "mimeType" : "image/png",
            "name" : "texture",
            "uri" : "texture.png"
        }
    ],
    "accessors" : [
        {
            "bufferView" : 0,
            "componentType" : 5126,
            "count" : 9360,
            "max" : [
                0.3854999840259552,
                0.015943102538585663,
                0.3854999840259552
            ],
            "min" : [
                -0.3854999840259552,
                -0.01594310998916626,
                -0.3854999840259552
            ],
            "type" : "VEC3"
        },
        {
            "bufferView" : 1,
            "componentType" : 5126,
            "count" : 9360,
            "type" : "VEC3"
        },
        {
            "bufferView" : 2,
            "componentType" : 5126,
            "count" : 9360,
            "type" : "VEC2"
        },
        {
            "bufferView" : 3,
            "componentType" : 5123,
            "count" : 14040,
            "type" : "SCALAR"
        },
        {
            "bufferView" : 4,
            "componentType" : 5126,
            "count" : 20480,
            "max" : [
                0.3983760178089142,
                0.4497896730899811,
                0.39837586879730225
            ],
            "min" : [
                -0.3983753025531769,
                0,
                -0.398375540971756
            ],
            "type" : "VEC3"
        },
        {
            "bufferView" : 5,
            "componentType" : 5126,
            "count" : 20480,
            "type" : "VEC3"
        },
        {
            "bufferView" : 6,
            "componentType" : 5126,
            "count" : 20480,
            "type" : "VEC2"
        },
        {
            "bufferView" : 7,
            "componentType" : 5123,
            "count" : 30720,
            "type" : "SCALAR"
        },
        {
            "bufferView" : 8,
            "componentType" : 5126,
            "count" : 13312,
            "max" : [
                0.39258044958114624,
                0.4490760862827301,
                0.3925803601741791
            ],
            "min" : [
                -0.39257973432540894,
                0.005746200680732727,
                -0.39257991313934326
            ],
            "type" : "VEC3"
        },
        {
            "bufferView" : 9,
            "componentType" : 5126,
            "count" : 13312,
            "type" : "VEC3"
        },
        {
            "bufferView" : 10,
            "componentType" : 5126,
            "count" : 13312,
            "type" : "VEC2"
        },
        {
            "bufferView" : 11,
            "componentType" : 5123,
            "count" : 19968,
            "type" : "SCALAR"
        }
    ],
    "bufferViews" : [
        {
            "buffer" : 0,
            "byteLength" : 112320,
            "byteOffset" : 0
        },
        {
            "buffer" : 0,
            "byteLength" : 112320,
            "byteOffset" : 112320
        },
        {
            "buffer" : 0,
            "byteLength" : 74880,
            "byteOffset" : 224640
        },
        {
            "buffer" : 0,
            "byteLength" : 28080,
            "byteOffset" : 299520
        },
        {
            "buffer" : 0,
            "byteLength" : 245760,
            "byteOffset" : 327600
        },
        {
            "buffer" : 0,
            "byteLength" : 245760,
            "byteOffset" : 573360
        },
        {
            "buffer" : 0,
            "byteLength" : 163840,
            "byteOffset" : 819120
        },
        {
            "buffer" : 0,
            "byteLength" : 61440,
            "byteOffset" : 982960
        },
        {
            "buffer" : 0,
            "byteLength" : 159744,
            "byteOffset" : 1044400
        },
        {
            "buffer" : 0,
            "byteLength" : 159744,
            "byteOffset" : 1204144
        },
        {
            "buffer" : 0,
            "byteLength" : 106496,
            "byteOffset" : 1363888
        },
        {
            "buffer" : 0,
            "byteLength" : 39936,
            "byteOffset" : 1470384
        }
    ],
    "buffers" : [
        {
            "byteLength" : 1510320,
            "uri" : "scene.bin"
        }
    ]
}
