{
    "asset" : {
        "generator" : "Khronos glTF Blender I/O v0.9.36",
        "version" : "2.0"
    },
    "scene" : 0,
    "scenes" : [
        {
            "name" : "Scene",
            "nodes" : [
                0,
                1,
                2,
                3,
                4
            ]
        }
    ],
    "nodes" : [
        {
            "name" : "Light",
            "rotation" : [
                0.16907575726509094,
                0.7558803558349609,
                -0.27217137813568115,
                0.570947527885437
            ],
            "translation" : [
                4.076245307922363,
                5.903861999511719,
                -1.0054539442062378
            ]
        },
        {
            "name" : "Camera",
            "rotation" : [
                0.483536034822464,
                0.33687159419059753,
                -0.20870360732078552,
                0.7804827094078064
            ],
            "translation" : [
                7.358891487121582,
                4.958309173583984,
                6.925790786743164
            ]
        },
        {
            "mesh" : 0,
            "name" : "Circle"
        },
        {
            "mesh" : 1,
            "name" : "Torus.002",
            "scale" : [
                0.7201800346374512,
                0.602575957775116,
                0.7201800346374512
            ],
            "translation" : [
                0,
                0.6476150751113892,
                0
            ]
        },
        {
            "mesh" : 2,
            "name" : "Lid",
            "scale" : [
                0.3475303649902344,
                0.3475303649902344,
                0.3475303649902344
            ],
            "translation" : [
                0,
                0.5933912396430969,
                0
            ]
        }
    ],
    "materials" : [
        {
            "doubleSided" : true,
            "name" : "White",
            "pbrMetallicRoughness" : {
                "baseColorFactor" : [
                    0.800000011920929,
                    0.800000011920929,
                    0.800000011920929,
                    1
                ],
                "metallicFactor" : 0,
                "roughnessFactor" : 0.5
            }
        },
        {
            "doubleSided" : true,
            "name" : "Design",
            "pbrMetallicRoughness" : {
                "baseColorTexture" : {
                    "index" : 0,
                    "texCoord" : 0
                },
                "metallicFactor" : 0,
                "roughnessFactor" : 0.5
            }
        },
        {
            "doubleSided" : true,
            "name" : "White.001",
            "pbrMetallicRoughness" : {
                "baseColorFactor" : [
                    0.800000011920929,
                    0.800000011920929,
                    0.800000011920929,
                    1
                ],
                "metallicFactor" : 0,
                "roughnessFactor" : 0.5
            }
        },
        {
            "doubleSided" : true,
            "name" : "Material.001",
            "pbrMetallicRoughness" : {
                "baseColorFactor" : [
                    0.800000011920929,
                    0.800000011920929,
                    0.800000011920929,
                    1
                ],
                "metallicFactor" : 0,
                "roughnessFactor" : 0.5
            }
        }
    ],
    "meshes" : [
        {
            "name" : "Circle",
            "primitives" : [
                {
                    "attributes" : {
                        "POSITION" : 0,
                        "NORMAL" : 1,
                        "TEXCOORD_0" : 2
                    },
                    "indices" : 3,
                    "material" : 0
                },
                {
                    "attributes" : {
                        "POSITION" : 4,
                        "NORMAL" : 5,
                        "TEXCOORD_0" : 6
                    },
                    "indices" : 7,
                    "material" : 1
                }
            ]
        },
        {
            "name" : "Torus.002",
            "primitives" : [
                {
                    "attributes" : {
                        "POSITION" : 8,
                        "NORMAL" : 9,
                        "TEXCOORD_0" : 10
                    },
                    "indices" : 11,
                    "material" : 2
                }
            ]
        },
        {
            "name" : "Circle.002",
            "primitives" : [
                {
                    "attributes" : {
                        "POSITION" : 12,
                        "NORMAL" : 13,
                        "TEXCOORD_0" : 14
                    },
                    "indices" : 15,
                    "material" : 3
                }
            ]
        }
    ],
    "textures" : [
        {
            "source" : 0
        }
    ],
    "images" : [
        {
            "mimeType" : "image/png",
            "name" : "texture",
            "uri" : "texture.png"
        }
    ],
    "accessors" : [
        {
            "bufferView" : 0,
            "componentType" : 5126,
            "count" : 8704,
            "max" : [
                0.30155497789382935,
                0.6497965455055237,
                0.30155476927757263
            ],
            "min" : [
                -0.3015550971031189,
                0.03611099720001221,
                -0.30155521631240845
            ],
            "type" : "VEC3"
        },
        {
            "bufferView" : 1,
            "componentType" : 5126,
            "count" : 8704,
            "type" : "VEC3"
        },
        {
            "bufferView" : 2,
            "componentType" : 5126,
            "count" : 8704,
            "type" : "VEC2"
        },
        {
            "bufferView" : 3,
            "componentType" : 5123,
            "count" : 13056,
            "type" : "SCALAR"
        },
        {
            "bufferView" : 4,
            "componentType" : 5126,
            "count" : 14336,
            "max" : [
                0.30214834213256836,
                0.6489549875259399,
                0.3021482229232788
            ],
            "min" : [
                -0.30214858055114746,
                0.00035669803037308156,
                -0.3021487295627594
            ],
            "type" : "VEC3"
        },
        {
            "bufferView" : 5,
            "componentType" : 5126,
            "count" : 14336,
            "type" : "VEC3"
        },
        {
            "bufferView" : 6,
            "componentType" : 5126,
            "count" : 14336,
            "type" : "VEC2"
        },
        {
            "bufferView" : 7,
            "componentType" : 5123,
            "count" : 21504,
            "type" : "SCALAR"
        },
        {
            "bufferView" : 8,
            "componentType" : 5126,
            "count" : 10794,
            "max" : [
                0.4380247890949249,
                0.014348266646265984,
                0.4380247890949249
            ],
            "min" : [
                -0.4380247890949249,
                -0.014356154948472977,
                -0.4380247890949249
            ],
            "type" : "VEC3"
        },
        {
            "bufferView" : 9,
            "componentType" : 5126,
            "count" : 10794,
            "type" : "VEC3"
        },
        {
            "bufferView" : 10,
            "componentType" : 5126,
            "count" : 10794,
            "type" : "VEC2"
        },
        {
            "bufferView" : 11,
            "componentType" : 5123,
            "count" : 11172,
            "type" : "SCALAR"
        },
        {
            "bufferView" : 12,
            "componentType" : 5126,
            "count" : 28528,
            "max" : [
                0.9935951828956604,
                0.20789456367492676,
                0.9935952425003052
            ],
            "min" : [
                -0.9935952425003052,
                0,
                -0.99359530210495
            ],
            "type" : "VEC3"
        },
        {
            "bufferView" : 13,
            "componentType" : 5126,
            "count" : 28528,
            "type" : "VEC3"
        },
        {
            "bufferView" : 14,
            "componentType" : 5126,
            "count" : 28528,
            "type" : "VEC2"
        },
        {
            "bufferView" : 15,
            "componentType" : 5123,
            "count" : 42966,
            "type" : "SCALAR"
        }
    ],
    "bufferViews" : [
        {
            "buffer" : 0,
            "byteLength" : 104448,
            "byteOffset" : 0
        },
        {
            "buffer" : 0,
            "byteLength" : 104448,
            "byteOffset" : 104448
        },
        {
            "buffer" : 0,
            "byteLength" : 69632,
            "byteOffset" : 208896
        },
        {
            "buffer" : 0,
            "byteLength" : 26112,
            "byteOffset" : 278528
        },
        {
            "buffer" : 0,
            "byteLength" : 172032,
            "byteOffset" : 304640
        },
        {
            "buffer" : 0,
            "byteLength" : 172032,
            "byteOffset" : 476672
        },
        {
            "buffer" : 0,
            "byteLength" : 114688,
            "byteOffset" : 648704
        },
        {
            "buffer" : 0,
            "byteLength" : 43008,
            "byteOffset" : 763392
        },
        {
            "buffer" : 0,
            "byteLength" : 129528,
            "byteOffset" : 806400
        },
        {
            "buffer" : 0,
            "byteLength" : 129528,
            "byteOffset" : 935928
        },
        {
            "buffer" : 0,
            "byteLength" : 86352,
            "byteOffset" : 1065456
        },
        {
            "buffer" : 0,
            "byteLength" : 22344,
            "byteOffset" : 1151808
        },
        {
            "buffer" : 0,
            "byteLength" : 342336,
            "byteOffset" : 1174152
        },
        {
            "buffer" : 0,
            "byteLength" : 342336,
            "byteOffset" : 1516488
        },
        {
            "buffer" : 0,
            "byteLength" : 228224,
            "byteOffset" : 1858824
        },
        {
            "buffer" : 0,
            "byteLength" : 85932,
            "byteOffset" : 2087048
        }
    ],
    "buffers" : [
        {
            "byteLength" : 2172980,
            "uri" : "scene.bin"
        }
    ]
}
