{
    "asset" : {
        "generator" : "Khronos glTF Blender I/O v0.9.36",
        "version" : "2.0"
    },
    "scene" : 0,
    "scenes" : [
        {
            "name" : "Scene",
            "nodes" : [
                0,
                1,
                2,
                3,
                4,
                5,
                6,
                7,
                8
            ]
        }
    ],
    "nodes" : [
        {
            "name" : "Light",
            "rotation" : [
                0.16907575726509094,
                0.7558803558349609,
                -0.27217137813568115,
                0.570947527885437
            ],
            "translation" : [
                4.076245307922363,
                5.903861999511719,
                -1.0054539442062378
            ]
        },
        {
            "name" : "Camera",
            "rotation" : [
                0.483536034822464,
                0.33687159419059753,
                -0.20870360732078552,
                0.7804827094078064
            ],
            "translation" : [
                7.358891487121582,
                4.958309173583984,
                6.925790786743164
            ]
        },
        {
            "mesh" : 0,
            "name" : "Circle",
            "rotation" : [
                -0.000616009347140789,
                0.021799655631184578,
                -0.0026026947889477015,
                0.999758780002594
            ],
            "translation" : [
                -0.26340943574905396,
                0.41779252886772156,
                -0.22520582377910614
            ]
        },
        {
            "mesh" : 1,
            "name" : "Lid",
            "scale" : [
                0.4739113450050354,
                0.443998247385025,
                0.4739113450050354
            ],
            "translation" : [
                0,
                1.0921618938446045,
                -0.0017923712730407715
            ]
        },
        {
            "mesh" : 2,
            "name" : "Torus.002",
            "scale" : [
                1.0694241523742676,
                1.0704466104507446,
                1.0694241523742676
            ],
            "translation" : [
                0,
                1.1477512121200562,
                0
            ]
        },
        {
            "mesh" : 3,
            "name" : "Circle.001"
        },
        {
            "mesh" : 4,
            "name" : "Vert",
            "translation" : [
                -0.26340949535369873,
                0.41779252886772156,
                -0.22520577907562256
            ]
        },
        {
            "mesh" : 5,
            "name" : "Vert.001",
            "translation" : [
                -0.2779109477996826,
                0.5579697489738464,
                -0.23812706768512726
            ]
        },
        {
            "mesh" : 6,
            "name" : "Vert.002",
            "scale" : [
                0.9177175760269165,
                0.9177175760269165,
                0.9177175760269165
            ],
            "translation" : [
                -0.24588149785995483,
                0.25924551486968994,
                -0.21198318898677826
            ]
        }
    ],
    "animations" : [
        {
            "channels" : [
                {
                    "sampler" : 0,
                    "target" : {
                        "node" : 2,
                        "path" : "rotation"
                    }
                }
            ],
            "name" : "CircleAction.003",
            "samplers" : [
                {
                    "input" : 36,
                    "interpolation" : "CUBICSPLINE",
                    "output" : 37
                }
            ]
        }
    ],
    "materials" : [
        {
            "doubleSided" : true,
            "name" : "Design",
            "pbrMetallicRoughness" : {
                "baseColorTexture" : {
                    "index" : 0,
                    "texCoord" : 0
                },
                "metallicFactor" : 0,
                "roughnessFactor" : 0.5
            }
        },
        {
            "doubleSided" : true,
            "name" : "back",
            "pbrMetallicRoughness" : {
                "baseColorTexture" : {
                    "index" : 1,
                    "texCoord" : 0
                },
                "metallicFactor" : 0,
                "roughnessFactor" : 0.5
            }
        },
        {
            "doubleSided" : true,
            "name" : "White",
            "pbrMetallicRoughness" : {
                "baseColorFactor" : [
                    0.800000011920929,
                    0.800000011920929,
                    0.800000011920929,
                    1
                ],
                "metallicFactor" : 0,
                "roughnessFactor" : 0.5
            }
        },
        {
            "doubleSided" : true,
            "name" : "Material.001",
            "pbrMetallicRoughness" : {
                "baseColorFactor" : [
                    0.800000011920929,
                    0.800000011920929,
                    0.800000011920929,
                    1
                ],
                "metallicFactor" : 0,
                "roughnessFactor" : 0.5
            }
        }
    ],
    "meshes" : [
        {
            "name" : "Circle",
            "primitives" : [
                {
                    "attributes" : {
                        "POSITION" : 0,
                        "NORMAL" : 1,
                        "TEXCOORD_0" : 2
                    },
                    "indices" : 3,
                    "material" : 0
                },
                {
                    "attributes" : {
                        "POSITION" : 4,
                        "NORMAL" : 5,
                        "TEXCOORD_0" : 6
                    },
                    "indices" : 7,
                    "material" : 1
                }
            ]
        },
        {
            "name" : "Circle.002",
            "primitives" : [
                {
                    "attributes" : {
                        "POSITION" : 8,
                        "NORMAL" : 9,
                        "TEXCOORD_0" : 10
                    },
                    "indices" : 11,
                    "material" : 2
                }
            ]
        },
        {
            "name" : "Torus.002",
            "primitives" : [
                {
                    "attributes" : {
                        "POSITION" : 12,
                        "NORMAL" : 13,
                        "TEXCOORD_0" : 14
                    },
                    "indices" : 15,
                    "material" : 2
                }
            ]
        },
        {
            "name" : "Circle.001",
            "primitives" : [
                {
                    "attributes" : {
                        "POSITION" : 16,
                        "NORMAL" : 17,
                        "TEXCOORD_0" : 18
                    },
                    "indices" : 19,
                    "material" : 3
                },
                {
                    "attributes" : {
                        "POSITION" : 20,
                        "NORMAL" : 21,
                        "TEXCOORD_0" : 22
                    },
                    "indices" : 23,
                    "material" : 0
                }
            ]
        },
        {
            "name" : "Vert",
            "primitives" : [
                {
                    "attributes" : {
                        "POSITION" : 24,
                        "NORMAL" : 25,
                        "TEXCOORD_0" : 26
                    },
                    "indices" : 27,
                    "material" : 0
                }
            ]
        },
        {
            "name" : "Vert.001",
            "primitives" : [
                {
                    "attributes" : {
                        "POSITION" : 28,
                        "NORMAL" : 29,
                        "TEXCOORD_0" : 30
                    },
                    "indices" : 31,
                    "material" : 0
                }
            ]
        },
        {
            "name" : "Vert.002",
            "primitives" : [
                {
                    "attributes" : {
                        "POSITION" : 32,
                        "NORMAL" : 33,
                        "TEXCOORD_0" : 34
                    },
                    "indices" : 35,
                    "material" : 0
                }
            ]
        }
    ],
    "textures" : [
        {
            "source" : 0
        },
        {
            "source" : 1
        }
    ],
    "images" : [
        {
            "mimeType" : "image/png",
            "name" : "front",
            "uri" : "front.png"
        },
        {
            "mimeType" : "image/png",
            "name" : "back",
            "uri" : "back.png"
        }
    ],
    "accessors" : [
        {
            "bufferView" : 0,
            "componentType" : 5126,
            "count" : 209,
            "max" : [
                0.017189010977745056,
                0.13736066222190857,
                0.3635815978050232
            ],
            "min" : [
                -0.11389517784118652,
                -0.1577455699443817,
                -0.01203252375125885
            ],
            "type" : "VEC3"
        },
        {
            "bufferView" : 1,
            "componentType" : 5126,
            "count" : 209,
            "type" : "VEC3"
        },
        {
            "bufferView" : 2,
            "componentType" : 5126,
            "count" : 209,
            "type" : "VEC2"
        },
        {
            "bufferView" : 3,
            "componentType" : 5123,
            "count" : 957,
            "type" : "SCALAR"
        },
        {
            "bufferView" : 4,
            "componentType" : 5126,
            "count" : 47,
            "max" : [
                0.016536392271518707,
                0.1357959359884262,
                0.3635815978050232
            ],
            "min" : [
                -0.11135202646255493,
                -0.15589585900306702,
                -0.010627634823322296
            ],
            "type" : "VEC3"
        },
        {
            "bufferView" : 5,
            "componentType" : 5126,
            "count" : 47,
            "type" : "VEC3"
        },
        {
            "bufferView" : 6,
            "componentType" : 5126,
            "count" : 47,
            "type" : "VEC2"
        },
        {
            "bufferView" : 7,
            "componentType" : 5123,
            "count" : 144,
            "type" : "SCALAR"
        },
        {
            "bufferView" : 8,
            "componentType" : 5126,
            "count" : 11666,
            "max" : [
                1.0039490461349487,
                0.31729891896247864,
                1.0195444822311401
            ],
            "min" : [
                -1.0039490461349487,
                -0.02725491113960743,
                -1.0274534225463867
            ],
            "type" : "VEC3"
        },
        {
            "bufferView" : 9,
            "componentType" : 5126,
            "count" : 11666,
            "type" : "VEC3"
        },
        {
            "bufferView" : 10,
            "componentType" : 5126,
            "count" : 11666,
            "type" : "VEC2"
        },
        {
            "bufferView" : 11,
            "componentType" : 5123,
            "count" : 14613,
            "type" : "SCALAR"
        },
        {
            "bufferView" : 12,
            "componentType" : 5126,
            "count" : 10794,
            "max" : [
                0.4380247890949249,
                0.014348266646265984,
                0.4380247890949249
            ],
            "min" : [
                -0.4380247890949249,
                -0.014356154948472977,
                -0.4380247890949249
            ],
            "type" : "VEC3"
        },
        {
            "bufferView" : 13,
            "componentType" : 5126,
            "count" : 10794,
            "type" : "VEC3"
        },
        {
            "bufferView" : 14,
            "componentType" : 5126,
            "count" : 10794,
            "type" : "VEC2"
        },
        {
            "bufferView" : 15,
            "componentType" : 5123,
            "count" : 11172,
            "type" : "SCALAR"
        },
        {
            "bufferView" : 16,
            "componentType" : 5126,
            "count" : 492,
            "max" : [
                0.44999992847442627,
                1.149999976158142,
                0.4499998092651367
            ],
            "min" : [
                -0.4500000476837158,
                0,
                -0.45000016689300537
            ],
            "type" : "VEC3"
        },
        {
            "bufferView" : 17,
            "componentType" : 5126,
            "count" : 492,
            "type" : "VEC3"
        },
        {
            "bufferView" : 18,
            "componentType" : 5126,
            "count" : 492,
            "type" : "VEC2"
        },
        {
            "bufferView" : 19,
            "componentType" : 5123,
            "count" : 1914,
            "type" : "SCALAR"
        },
        {
            "bufferView" : 20,
            "componentType" : 5126,
            "count" : 262,
            "max" : [
                0.44999992847442627,
                1.149999976158142,
                0.4499998092651367
            ],
            "min" : [
                -0.4500000476837158,
                0.08988334238529205,
                -0.45000016689300537
            ],
            "type" : "VEC3"
        },
        {
            "bufferView" : 21,
            "componentType" : 5126,
            "count" : 262,
            "type" : "VEC3"
        },
        {
            "bufferView" : 22,
            "componentType" : 5126,
            "count" : 262,
            "type" : "VEC2"
        },
        {
            "bufferView" : 23,
            "componentType" : 5123,
            "count" : 1197,
            "type" : "SCALAR"
        },
        {
            "bufferView" : 24,
            "componentType" : 5126,
            "count" : 4234,
            "max" : [
                0.015536840073764324,
                0.1372509002685547,
                0.014202212914824486
            ],
            "min" : [
                -0.01598435826599598,
                -0.14987610280513763,
                -0.014018813148140907
            ],
            "type" : "VEC3"
        },
        {
            "bufferView" : 25,
            "componentType" : 5126,
            "count" : 4234,
            "type" : "VEC3"
        },
        {
            "bufferView" : 26,
            "componentType" : 5126,
            "count" : 4234,
            "type" : "VEC2"
        },
        {
            "bufferView" : 27,
            "componentType" : 5123,
            "count" : 6300,
            "type" : "SCALAR"
        },
        {
            "bufferView" : 28,
            "componentType" : 5126,
            "count" : 4610,
            "max" : [
                0.0004690939385909587,
                0.00340449926443398,
                0.354695588350296
            ],
            "min" : [
                -0.09102045744657516,
                -0.0880948156118393,
                -0.0002491064660716802
            ],
            "type" : "VEC3"
        },
        {
            "bufferView" : 29,
            "componentType" : 5126,
            "count" : 4610,
            "type" : "VEC3"
        },
        {
            "bufferView" : 30,
            "componentType" : 5126,
            "count" : 4610,
            "type" : "VEC2"
        },
        {
            "bufferView" : 31,
            "componentType" : 5123,
            "count" : 6918,
            "type" : "SCALAR"
        },
        {
            "bufferView" : 32,
            "componentType" : 5126,
            "count" : 4610,
            "max" : [
                0.0004690939385909587,
                0.10055886209011078,
                0.3554610311985016
            ],
            "min" : [
                -0.09102045744657516,
                -0.002328405389562249,
                -0.0002491064660716802
            ],
            "type" : "VEC3"
        },
        {
            "bufferView" : 33,
            "componentType" : 5126,
            "count" : 4610,
            "type" : "VEC3"
        },
        {
            "bufferView" : 34,
            "componentType" : 5126,
            "count" : 4610,
            "type" : "VEC2"
        },
        {
            "bufferView" : 35,
            "componentType" : 5123,
            "count" : 6918,
            "type" : "SCALAR"
        },
        {
            "bufferView" : 36,
            "componentType" : 5126,
            "count" : 3,
            "max" : [
                2.5
            ],
            "min" : [
                0.041666666666666664
            ],
            "type" : "SCALAR"
        },
        {
            "bufferView" : 37,
            "componentType" : 5126,
            "count" : 9,
            "type" : "VEC4"
        }
    ],
    "bufferViews" : [
        {
            "buffer" : 0,
            "byteLength" : 2508,
            "byteOffset" : 0
        },
        {
            "buffer" : 0,
            "byteLength" : 2508,
            "byteOffset" : 2508
        },
        {
            "buffer" : 0,
            "byteLength" : 1672,
            "byteOffset" : 5016
        },
        {
            "buffer" : 0,
            "byteLength" : 1914,
            "byteOffset" : 6688
        },
        {
            "buffer" : 0,
            "byteLength" : 564,
            "byteOffset" : 8604
        },
        {
            "buffer" : 0,
            "byteLength" : 564,
            "byteOffset" : 9168
        },
        {
            "buffer" : 0,
            "byteLength" : 376,
            "byteOffset" : 9732
        },
        {
            "buffer" : 0,
            "byteLength" : 288,
            "byteOffset" : 10108
        },
        {
            "buffer" : 0,
            "byteLength" : 139992,
            "byteOffset" : 10396
        },
        {
            "buffer" : 0,
            "byteLength" : 139992,
            "byteOffset" : 150388
        },
        {
            "buffer" : 0,
            "byteLength" : 93328,
            "byteOffset" : 290380
        },
        {
            "buffer" : 0,
            "byteLength" : 29226,
            "byteOffset" : 383708
        },
        {
            "buffer" : 0,
            "byteLength" : 129528,
            "byteOffset" : 412936
        },
        {
            "buffer" : 0,
            "byteLength" : 129528,
            "byteOffset" : 542464
        },
        {
            "buffer" : 0,
            "byteLength" : 86352,
            "byteOffset" : 671992
        },
        {
            "buffer" : 0,
            "byteLength" : 22344,
            "byteOffset" : 758344
        },
        {
            "buffer" : 0,
            "byteLength" : 5904,
            "byteOffset" : 780688
        },
        {
            "buffer" : 0,
            "byteLength" : 5904,
            "byteOffset" : 786592
        },
        {
            "buffer" : 0,
            "byteLength" : 3936,
            "byteOffset" : 792496
        },
        {
            "buffer" : 0,
            "byteLength" : 3828,
            "byteOffset" : 796432
        },
        {
            "buffer" : 0,
            "byteLength" : 3144,
            "byteOffset" : 800260
        },
        {
            "buffer" : 0,
            "byteLength" : 3144,
            "byteOffset" : 803404
        },
        {
            "buffer" : 0,
            "byteLength" : 2096,
            "byteOffset" : 806548
        },
        {
            "buffer" : 0,
            "byteLength" : 2394,
            "byteOffset" : 808644
        },
        {
            "buffer" : 0,
            "byteLength" : 50808,
            "byteOffset" : 811040
        },
        {
            "buffer" : 0,
            "byteLength" : 50808,
            "byteOffset" : 861848
        },
        {
            "buffer" : 0,
            "byteLength" : 33872,
            "byteOffset" : 912656
        },
        {
            "buffer" : 0,
            "byteLength" : 12600,
            "byteOffset" : 946528
        },
        {
            "buffer" : 0,
            "byteLength" : 55320,
            "byteOffset" : 959128
        },
        {
            "buffer" : 0,
            "byteLength" : 55320,
            "byteOffset" : 1014448
        },
        {
            "buffer" : 0,
            "byteLength" : 36880,
            "byteOffset" : 1069768
        },
        {
            "buffer" : 0,
            "byteLength" : 13836,
            "byteOffset" : 1106648
        },
        {
            "buffer" : 0,
            "byteLength" : 55320,
            "byteOffset" : 1120484
        },
        {
            "buffer" : 0,
            "byteLength" : 55320,
            "byteOffset" : 1175804
        },
        {
            "buffer" : 0,
            "byteLength" : 36880,
            "byteOffset" : 1231124
        },
        {
            "buffer" : 0,
            "byteLength" : 13836,
            "byteOffset" : 1268004
        },
        {
            "buffer" : 0,
            "byteLength" : 12,
            "byteOffset" : 1281840
        },
        {
            "buffer" : 0,
            "byteLength" : 144,
            "byteOffset" : 1281852
        }
    ],
    "buffers" : [
        {
            "byteLength" : 1281996,
            "uri" : "scene.bin"
        }
    ]
}
