{
    "asset" : {
        "generator" : "Khronos glTF Blender I/O v1.5.17",
        "version" : "2.0"
    },
    "scene" : 0,
    "scenes" : [
        {
            "name" : "Scene",
            "nodes" : [
                0,
                1,
                2,
                3,
                4
            ]
        }
    ],
    "nodes" : [
        {
            "name" : "Light",
            "rotation" : [
                0.16907575726509094,
                0.7558803558349609,
                -0.27217137813568115,
                0.570947527885437
            ],
            "translation" : [
                4.076245307922363,
                5.903861999511719,
                -1.0054539442062378
            ]
        },
        {
            "name" : "Camera",
            "rotation" : [
                0.483536034822464,
                0.33687159419059753,
                -0.20870360732078552,
                0.7804827094078064
            ],
            "translation" : [
                7.358891487121582,
                4.958309173583984,
                6.925790786743164
            ]
        },
        {
            "mesh" : 0,
            "name" : "Circle"
        },
        {
            "mesh" : 1,
            "name" : "Lid",
            "scale" : [
                0.3846573829650879,
                0.34949806332588196,
                0.3846573829650879
            ],
            "translation" : [
                0,
                0.9698256254196167,
                0
            ]
        },
        {
            "mesh" : 2,
            "name" : "Torus.002",
            "scale" : [
                0.8692600727081299,
                0.7273115515708923,
                0.8692600727081299
            ],
            "translation" : [
                0,
                1.0091702938079834,
                0
            ]
        }
    ],
    "materials" : [
        {
            "doubleSided" : true,
            "name" : "White",
            "pbrMetallicRoughness" : {
                "baseColorFactor" : [
                    0.800000011920929,
                    0.800000011920929,
                    0.800000011920929,
                    1
                ],
                "metallicFactor" : 0,
                "roughnessFactor" : 0.5
            }
        },
        {
            "doubleSided" : true,
            "name" : "Design",
            "pbrMetallicRoughness" : {
                "baseColorTexture" : {
                    "index" : 0
                },
                "metallicFactor" : 0,
                "roughnessFactor" : 0.5
            }
        },
        {
            "doubleSided" : true,
            "name" : "Material.000",
            "pbrMetallicRoughness" : {
                "baseColorFactor" : [
                    0.800000011920929,
                    0.800000011920929,
                    0.800000011920929,
                    1
                ],
                "metallicFactor" : 0,
                "roughnessFactor" : 0.5
            }
        },
        {
            "doubleSided" : true,
            "name" : "White.001",
            "pbrMetallicRoughness" : {
                "baseColorFactor" : [
                    0.800000011920929,
                    0.800000011920929,
                    0.800000011920929,
                    1
                ],
                "metallicFactor" : 0,
                "roughnessFactor" : 0.5
            }
        }
    ],
    "meshes" : [
        {
            "name" : "Circle",
            "primitives" : [
                {
                    "attributes" : {
                        "POSITION" : 0,
                        "NORMAL" : 1,
                        "TEXCOORD_0" : 2
                    },
                    "indices" : 3,
                    "material" : 0
                },
                {
                    "attributes" : {
                        "POSITION" : 4,
                        "NORMAL" : 5,
                        "TEXCOORD_0" : 6
                    },
                    "indices" : 7,
                    "material" : 1
                }
            ]
        },
        {
            "name" : "Circle.001",
            "primitives" : [
                {
                    "attributes" : {
                        "POSITION" : 8,
                        "NORMAL" : 9,
                        "TEXCOORD_0" : 10
                    },
                    "indices" : 11,
                    "material" : 2
                }
            ]
        },
        {
            "name" : "Torus.002",
            "primitives" : [
                {
                    "attributes" : {
                        "POSITION" : 12,
                        "NORMAL" : 13,
                        "TEXCOORD_0" : 14
                    },
                    "indices" : 15,
                    "material" : 3
                }
            ]
        }
    ],
    "textures" : [
        {
            "sampler" : 0,
            "source" : 0
        }
    ],
    "images" : [
        {
            "mimeType" : "image/png",
            "name" : "texture",
            "uri" : "texture.png"
        }
    ],
    "accessors" : [
        {
            "bufferView" : 0,
            "componentType" : 5126,
            "count" : 8613,
            "max" : [
                0.3613073527812958,
                1.0097060203552246,
                0.3613072633743286
            ],
            "min" : [
                -0.3613075613975525,
                0.06626540422439575,
                -0.36130765080451965
            ],
            "type" : "VEC3"
        },
        {
            "bufferView" : 1,
            "componentType" : 5126,
            "count" : 8613,
            "type" : "VEC3"
        },
        {
            "bufferView" : 2,
            "componentType" : 5126,
            "count" : 8613,
            "type" : "VEC2"
        },
        {
            "bufferView" : 3,
            "componentType" : 5123,
            "count" : 13056,
            "type" : "SCALAR"
        },
        {
            "bufferView" : 4,
            "componentType" : 5126,
            "count" : 14336,
            "max" : [
                0.3615763783454895,
                1.0089294910430908,
                0.36157622933387756
            ],
            "min" : [
                -0.3615765869617462,
                0.0002695221337489784,
                -0.3615766763687134
            ],
            "type" : "VEC3"
        },
        {
            "bufferView" : 5,
            "componentType" : 5126,
            "count" : 14336,
            "type" : "VEC3"
        },
        {
            "bufferView" : 6,
            "componentType" : 5126,
            "count" : 14336,
            "type" : "VEC2"
        },
        {
            "bufferView" : 7,
            "componentType" : 5123,
            "count" : 21504,
            "type" : "SCALAR"
        },
        {
            "bufferView" : 8,
            "componentType" : 5126,
            "count" : 11666,
            "max" : [
                1.0039490461349487,
                0.31729891896247864,
                1.0195444822311401
            ],
            "min" : [
                -1.0039490461349487,
                -0.02725491113960743,
                -1.0274534225463867
            ],
            "type" : "VEC3"
        },
        {
            "bufferView" : 9,
            "componentType" : 5126,
            "count" : 11666,
            "type" : "VEC3"
        },
        {
            "bufferView" : 10,
            "componentType" : 5126,
            "count" : 11666,
            "type" : "VEC2"
        },
        {
            "bufferView" : 11,
            "componentType" : 5123,
            "count" : 14613,
            "type" : "SCALAR"
        },
        {
            "bufferView" : 12,
            "componentType" : 5126,
            "count" : 10794,
            "max" : [
                0.4380247890949249,
                0.014348266646265984,
                0.4380247890949249
            ],
            "min" : [
                -0.4380247890949249,
                -0.014356154948472977,
                -0.4380247890949249
            ],
            "type" : "VEC3"
        },
        {
            "bufferView" : 13,
            "componentType" : 5126,
            "count" : 10794,
            "type" : "VEC3"
        },
        {
            "bufferView" : 14,
            "componentType" : 5126,
            "count" : 10794,
            "type" : "VEC2"
        },
        {
            "bufferView" : 15,
            "componentType" : 5123,
            "count" : 11172,
            "type" : "SCALAR"
        }
    ],
    "bufferViews" : [
        {
            "buffer" : 0,
            "byteLength" : 103356,
            "byteOffset" : 0
        },
        {
            "buffer" : 0,
            "byteLength" : 103356,
            "byteOffset" : 103356
        },
        {
            "buffer" : 0,
            "byteLength" : 68904,
            "byteOffset" : 206712
        },
        {
            "buffer" : 0,
            "byteLength" : 26112,
            "byteOffset" : 275616
        },
        {
            "buffer" : 0,
            "byteLength" : 172032,
            "byteOffset" : 301728
        },
        {
            "buffer" : 0,
            "byteLength" : 172032,
            "byteOffset" : 473760
        },
        {
            "buffer" : 0,
            "byteLength" : 114688,
            "byteOffset" : 645792
        },
        {
            "buffer" : 0,
            "byteLength" : 43008,
            "byteOffset" : 760480
        },
        {
            "buffer" : 0,
            "byteLength" : 139992,
            "byteOffset" : 803488
        },
        {
            "buffer" : 0,
            "byteLength" : 139992,
            "byteOffset" : 943480
        },
        {
            "buffer" : 0,
            "byteLength" : 93328,
            "byteOffset" : 1083472
        },
        {
            "buffer" : 0,
            "byteLength" : 29226,
            "byteOffset" : 1176800
        },
        {
            "buffer" : 0,
            "byteLength" : 129528,
            "byteOffset" : 1206028
        },
        {
            "buffer" : 0,
            "byteLength" : 129528,
            "byteOffset" : 1335556
        },
        {
            "buffer" : 0,
            "byteLength" : 86352,
            "byteOffset" : 1465084
        },
        {
            "buffer" : 0,
            "byteLength" : 22344,
            "byteOffset" : 1551436
        }
    ],
    "samplers" : [
        {
            "magFilter" : 9729,
            "minFilter" : 9987
        }
    ],
    "buffers" : [
        {
            "byteLength" : 1573780,
            "uri" : "scene.bin"
        }
    ]
}
