<svg width="521.8600097656249px" height="124.439990234375px" xmlns="http://www.w3.org/2000/svg" viewBox="-10.930004882812455 12.780004882812499 521.8600097656249 124.439990234375" style="background: rgba(0, 0, 0, 0) none repeat scroll 0% 0%;" preserveAspectRatio="xMidYMid"><defs><filter id="editing-hole" x="-100%" y="-100%" width="300%" height="300%"><feFlood flood-color="#000" result="black"></feFlood><feMorphology operator="dilate" radius="2" in="SourceGraphic" result="erode"></feMorphology><feGaussianBlur in="erode" stdDeviation="4" result="blur"></feGaussianBlur><feOffset in="blur" dx="2" dy="2" result="offset"></feOffset><feComposite operator="atop" in="offset" in2="black" result="merge"></feComposite><feComposite operator="in" in="merge" in2="SourceGraphic" result="inner-shadow"></feComposite></filter></defs><g filter="url(#editing-hole)"><g transform="translate(66.09497892856598, 104.47000122070312)"><path d="M34.50-13.25L34.50-13.25L34.50-13.25Q36.16-12.03 36.16-9.44L36.16-9.44L36.16-9.44Q36.16-6.85 35.04-5.02L35.04-5.02L35.04-5.02Q33.92-3.20 31.74-1.79L31.74-1.79L31.74-1.79Q27.07 1.22 18.91 1.22L18.91 1.22L18.91 1.22Q10.75 1.22 6.30-3.04L6.30-3.04L6.30-3.04Q1.86-7.30 1.86-14.85L1.86-14.85L1.86-14.85Q1.86-25.54 7.42-33.66L7.42-33.66L7.42-33.66Q11.65-39.68 19.20-42.24L19.20-42.24L19.20-42.24Q23.10-43.52 26.94-43.52L26.94-43.52L26.94-43.52Q30.78-43.52 33.15-43.01L33.15-43.01L33.15-43.01Q35.52-42.50 37.31-41.47L37.31-41.47L37.31-41.47Q41.22-39.23 41.22-35.65L41.22-35.65L41.22-35.65Q41.22-32.38 38.14-29.95L38.14-29.95L38.14-29.95Q35.33-27.78 33.02-27.78L33.02-27.78L33.02-27.78Q30.72-27.78 29.76-28.10L29.76-28.10L29.76-28.10Q30.02-30.40 30.02-31.90L30.02-31.90L30.02-31.90Q30.02-33.41 29.95-34.50L29.95-34.50L29.95-34.50Q29.89-35.58 29.57-36.61L29.57-36.61L29.57-36.61Q28.93-38.98 26.98-38.98L26.98-38.98L26.98-38.98Q25.02-38.98 23.07-37.15L23.07-37.15L23.07-37.15Q21.12-35.33 19.46-32.26L19.46-32.26L19.46-32.26Q15.68-25.28 15.68-17.02L15.68-17.02L15.68-17.02Q15.68-13.06 17.92-10.78L17.92-10.78L17.92-10.78Q20.16-8.51 24.96-8.51L24.96-8.51L24.96-8.51Q28.54-8.51 31.94-10.88L31.94-10.88L31.94-10.88Q33.41-11.90 34.50-13.25ZM61.50-17.98L61.50-17.98L61.50-17.98Q63.81-22.08 63.81-26.24L63.81-26.24L63.81-26.24Q63.81-28.99 61.82-28.99L61.82-28.99L61.82-28.99Q60.29-28.99 58.69-26.37L58.69-26.37L58.69-26.37Q57.02-23.74 56.51-20.35L56.51-20.35L53.18 0L39.94 1.28L46.46-32.64L57.02-33.92L55.87-27.46L55.87-27.46Q59.01-33.92 66.05-33.92L66.05-33.92L66.05-33.92Q69.76-33.92 71.78-32L71.78-32L71.78-32Q73.79-30.08 73.79-26.14L73.79-26.14L73.79-26.14Q73.79-22.21 71.20-19.71L71.20-19.71L71.20-19.71Q68.61-17.22 64.19-17.22L64.19-17.22L64.19-17.22Q62.27-17.22 61.50-17.98ZM95.17-7.23L95.17-7.23L95.17-7.23Q91.84-3.78 85.76-3.78L85.76-3.78L85.76-3.78Q78.14-3.78 76.54-9.34L76.54-9.34L76.54-9.34Q76.03-11.01 76.03-12.86L76.03-12.86L76.03-12.86Q76.03-14.72 76.42-16.64L76.42-16.64L79.42-32.64L92.42-33.92L88.90-15.30L88.90-15.30Q88.77-14.46 88.58-13.57L88.58-13.57L88.58-13.57Q88.38-12.67 88.38-11.74L88.38-11.74L88.38-11.74Q88.38-10.82 88.70-10.21L88.70-10.21L88.70-10.21Q89.02-9.60 89.47-9.22L89.47-9.22L89.47-9.22Q90.24-8.70 91.62-8.70L91.62-8.70L91.62-8.70Q92.99-8.70 94.18-10.37L94.18-10.37L94.18-10.37Q95.36-12.03 95.94-14.91L95.94-14.91L99.46-32.64L112.06-33.92L107.26-8.77L107.26-8.77Q104.90 3.52 100.03 8.38L100.03 8.38L100.03 8.38Q97.54 10.88 94.30 11.87L94.30 11.87L94.30 11.87Q91.07 12.86 86.91 12.86L86.91 12.86L86.91 12.86Q80.19 12.86 76.35 10.75L76.35 10.75L76.35 10.75Q72.51 8.64 72.51 5.12L72.51 5.12L72.51 5.12Q72.51 2.50 74.50 0.99L74.50 0.99L74.50 0.99Q76.48-0.51 79.55-0.51L79.55-0.51L79.55-0.51Q82.24-0.51 84.29 0.64L84.29 0.64L84.29 0.64Q85.50 1.34 86.08 2.24L86.08 2.24L86.08 2.24Q84.61 3.52 84.61 5.63L84.61 5.63L84.61 5.63Q84.61 8.45 87.17 8.45L87.17 8.45L87.17 8.45Q91.39 8.45 93.82-1.28L93.82-1.28L93.82-1.28Q94.53-4.16 95.17-7.23ZM144.19-4.38L144.19-4.38L144.19-4.38Q141.50-1.66 137.82-0.19L137.82-0.19L137.82-0.19Q134.14 1.28 130.50 1.28L130.50 1.28L130.50 1.28Q126.85 1.28 125.57 0.64L125.57 0.64L123.58 11.52L110.59 12.80L119.42-32.64L129.86-33.73L129.02-29.31L129.02-29.31Q131.71-33.86 137.28-33.86L137.28-33.86L137.28-33.86Q143.55-33.86 146.88-29.82L146.88-29.82L146.88-29.82Q149.82-26.18 149.82-20.61L149.82-20.61L149.82-20.61Q149.82-15.04 148.35-11.07L148.35-11.07L148.35-11.07Q146.88-7.10 144.19-4.38ZM129.73-22.34L126.34-3.58L126.34-3.58Q127.68-2.43 129.34-2.43L129.34-2.43L129.34-2.43Q131.01-2.43 131.97-3.07L131.97-3.07L131.97-3.07Q132.93-3.71 133.63-4.99L133.63-4.99L133.63-4.99Q135.55-8.45 137.09-18.94L137.09-18.94L137.09-18.94Q137.54-22.02 137.54-25.02L137.54-25.02L137.54-25.02Q137.54-28.03 136.86-28.99L136.86-28.99L136.86-28.99Q136.19-29.95 134.91-29.95L134.91-29.95L134.91-29.95Q131.01-29.95 129.73-22.34L129.73-22.34ZM154.69-6.40L154.69-6.40L154.69-6.40Q154.69-8.13 155.58-12.48L155.58-12.48L158.98-29.76L155.20-29.76L155.46-31.68L155.46-31.68Q163.14-33.98 170.56-39.62L170.56-39.62L173.63-39.62L172.10-32.64L177.09-32.64L176.51-29.76L171.58-29.76L168.32-12.48L168.32-12.48Q167.49-8.51 167.49-7.17L167.49-7.17L167.49-7.17Q167.49-4.10 170.18-3.46L170.18-3.46L170.18-3.46Q169.54-1.28 167.23 0L167.23 0L167.23 0Q164.93 1.28 161.66 1.28L161.66 1.28L161.66 1.28Q158.40 1.28 156.54-0.77L156.54-0.77L156.54-0.77Q154.69-2.82 154.69-6.40ZM190.46 1.28L190.46 1.28L190.46 1.28Q176.38 1.28 176.38-11.97L176.38-11.97L176.38-11.97Q176.38-21.38 181.57-27.46L181.57-27.46L181.57-27.46Q187.07-33.92 196.61-33.92L196.61-33.92L196.61-33.92Q203.52-33.92 207.04-30.72L207.04-30.72L207.04-30.72Q210.56-27.52 210.56-20.80L210.56-20.80L210.56-20.80Q210.56-10.56 205.06-4.61L205.06-4.61L205.06-4.61Q199.68 1.28 190.46 1.28ZM192.13-26.56L192.13-26.56L192.13-26.56Q191.36-24.83 190.75-22.24L190.75-22.24L190.75-22.24Q190.14-19.65 189.38-15.55L189.38-15.55L189.38-15.55Q188.61-11.46 188.61-6.40L188.61-6.40L188.61-6.40Q188.61-4.74 189.15-3.65L189.15-3.65L189.15-3.65Q189.70-2.56 191.17-2.56L191.17-2.56L191.17-2.56Q192.64-2.56 193.57-3.26L193.57-3.26L193.57-3.26Q194.50-3.97 195.20-5.63L195.20-5.63L195.20-5.63Q196.48-8.58 197.50-14.05L197.50-14.05L197.50-14.05Q198.53-19.52 198.62-21.89L198.62-21.89L198.62-21.89Q198.72-24.26 198.72-26.02L198.72-26.02L198.72-26.02Q198.72-27.78 198.21-28.93L198.21-28.93L198.21-28.93Q197.70-30.08 196.26-30.08L196.26-30.08L196.26-30.08Q194.82-30.08 193.86-29.18L193.86-29.18L193.86-29.18Q192.90-28.29 192.13-26.56ZM213.70-0.32L213.70-0.32L221.76-42.24L221.76-42.24Q229.31-42.88 234.18-42.88L234.18-42.88L234.18-42.88Q239.04-42.88 242.18-42.46L242.18-42.46L242.18-42.46Q245.31-42.05 247.42-40.96L247.42-40.96L247.42-40.96Q251.65-38.91 251.65-33.28L251.65-33.28L251.65-33.28Q251.65-30.02 248.83-27.26L248.83-27.26L248.83-27.26Q246.21-24.77 243.33-24.19L243.33-24.19L243.33-24.19Q246.40-23.68 248.58-21.38L248.58-21.38L248.58-21.38Q250.88-18.94 250.88-15.17L250.88-15.17L250.88-15.17Q250.88-7.87 245.44-3.62L245.44-3.62L245.44-3.62Q240 0.64 229.31 0.64L229.31 0.64L229.31 0.64Q221.95 0.64 213.70-0.32ZM231.10-20.61L227.90-4.03L227.90-4.03Q228.48-3.97 228.61-3.97L228.61-3.97L229.18-3.97L229.18-3.97Q234.43-3.97 236.67-7.42L236.67-7.42L236.67-7.42Q238.34-10.11 238.34-15.04L238.34-15.04L238.34-15.04Q238.34-17.66 236.64-19.07L236.64-19.07L236.64-19.07Q234.94-20.48 231.10-20.61L231.10-20.61ZM240.83-33.22L240.83-33.22L240.83-33.22Q240.83-38.53 235.71-38.53L235.71-38.53L235.14-38.53L235.14-38.53Q234.88-38.53 234.50-38.46L234.50-38.46L231.94-24.96L232.58-24.96L232.58-24.96Q240.83-25.15 240.83-33.22ZM275.65-2.69L275.65-2.69L275.65-2.69Q272.58 1.28 264.96 1.28L264.96 1.28L264.96 1.28Q260.99 1.28 258.11-1.12L258.11-1.12L258.11-1.12Q255.23-3.52 255.23-6.98L255.23-6.98L255.23-6.98Q255.23-8.90 255.42-9.86L255.42-9.86L259.71-32.64L272.70-33.92L268.03-9.22L268.03-9.22Q267.78-7.81 267.78-6.98L267.78-6.98L267.78-6.98Q267.78-3.26 270.02-3.26L270.02-3.26L270.02-3.26Q272.51-3.26 274.30-6.66L274.30-6.66L274.30-6.66Q274.88-7.74 275.14-9.15L275.14-9.15L279.68-32.64L292.29-33.92L287.55-8.96L287.55-8.96Q287.36-8 287.36-6.98L287.36-6.98L287.36-6.98Q287.36-5.95 287.94-4.83L287.94-4.83L287.94-4.83Q288.51-3.71 290.37-3.46L290.37-3.46L290.37-3.46Q289.98-1.92 288.64-0.90L288.64-0.90L288.64-0.90Q285.82 1.28 282.78 1.28L282.78 1.28L282.78 1.28Q279.74 1.28 277.95 0.19L277.95 0.19L277.95 0.19Q276.16-0.90 275.65-2.69ZM311.04-3.52L311.04-3.52L311.04-3.52Q309.06 1.28 302.72 1.28L302.72 1.28L302.72 1.28Q299.52 1.28 297.47-0.96L297.47-0.96L297.47-0.96Q295.81-2.82 295.81-4.93L295.81-4.93L295.81-4.93Q295.81-9.73 298.05-20.22L298.05-20.22L302.72-44.80L315.71-46.08L309.50-13.70L309.50-13.70Q308.42-8.96 308.42-7.30L308.42-7.30L308.42-7.30Q308.42-3.65 311.04-3.52ZM331.78-3.52L331.78-3.52L331.78-3.52Q329.79 1.28 323.46 1.28L323.46 1.28L323.46 1.28Q320.26 1.28 318.21-0.96L318.21-0.96L318.21-0.96Q316.54-2.82 316.54-4.93L316.54-4.93L316.54-4.93Q316.54-9.73 318.78-20.22L318.78-20.22L323.46-44.80L336.45-46.08L330.24-13.70L330.24-13.70Q329.15-8.96 329.15-7.30L329.15-7.30L329.15-7.30Q329.15-3.65 331.78-3.52ZM356.35-22.46L356.35-22.46L356.35-22.46Q357.25-24.83 357.25-26.88L357.25-26.88L357.25-26.88Q357.25-30.66 354.18-30.66L354.18-30.66L354.18-30.66Q352.58-30.66 351.26-29.22L351.26-29.22L351.26-29.22Q349.95-27.78 349.95-25.98L349.95-25.98L349.95-25.98Q349.95-24.70 350.98-23.68L350.98-23.68L350.98-23.68Q352.45-22.27 356.22-19.97L356.22-19.97L356.22-19.97Q360-17.66 361.44-15.78L361.44-15.78L361.44-15.78Q362.88-13.89 362.88-11.30L362.88-11.30L362.88-11.30Q362.88-8.70 361.63-6.34L361.63-6.34L361.63-6.34Q360.38-3.97 358.14-2.30L358.14-2.30L358.14-2.30Q353.34 1.28 345.66 1.28L345.66 1.28L345.66 1.28Q341.50 1.28 338.30-0.90L338.30-0.90L338.30-0.90Q335.10-3.01 335.10-5.50L335.10-5.50L335.10-5.50Q335.10-8 336.93-9.47L336.93-9.47L336.93-9.47Q338.75-10.94 341.44-10.94L341.44-10.94L341.44-10.94Q344.13-10.94 345.79-9.92L345.79-9.92L345.79-9.92Q344.96-7.81 344.96-6.40L344.96-6.40L344.96-6.40Q344.96-2.18 348.54-2.18L348.54-2.18L348.54-2.18Q350.08-2.18 351.10-3.14L351.10-3.14L351.10-3.14Q352.13-4.10 352.13-5.76L352.13-5.76L352.13-5.76Q352.13-9.02 346.62-12.48L346.62-12.48L346.62-12.48Q342.14-15.42 341.12-16.58L341.12-16.58L341.12-16.58Q339.39-18.62 339.39-21.18L339.39-21.18L339.39-21.18Q339.39-23.74 340.61-26.18L340.61-26.18L340.61-26.18Q341.82-28.61 344.06-30.34L344.06-30.34L344.06-30.34Q348.74-33.92 356.86-33.92L356.86-33.92L356.86-33.92Q361.02-33.92 363.49-32.26L363.49-32.26L363.49-32.26Q365.95-30.59 365.95-27.78L365.95-27.78L365.95-27.78Q365.95-24.96 364.26-23.36L364.26-23.36L364.26-23.36Q362.56-21.76 359.49-21.76L359.49-21.76L359.49-21.76Q357.38-21.76 356.35-22.46Z" fill="#ccc"></path></g></g><style>text {
  font-size: 64px;
  font-family: Arial Black;
  dominant-baseline: central;
  text-anchor: middle;
}</style></svg>