{
    "asset" : {
        "generator" : "Khronos glTF Blender I/O v0.9.36",
        "version" : "2.0"
    },
    "scene" : 0,
    "scenes" : [
        {
            "name" : "Scene",
            "nodes" : [
                0,
                1,
                2,
                3,
                4
            ]
        }
    ],
    "nodes" : [
        {
            "name" : "Light",
            "rotation" : [
                0.16907575726509094,
                0.7558803558349609,
                -0.27217137813568115,
                0.570947527885437
            ],
            "translation" : [
                4.076245307922363,
                5.903861999511719,
                -1.0054539442062378
            ]
        },
        {
            "name" : "Camera",
            "rotation" : [
                0.483536034822464,
                0.33687159419059753,
                -0.20870360732078552,
                0.7804827094078064
            ],
            "translation" : [
                7.358891487121582,
                4.958309173583984,
                6.925790786743164
            ]
        },
        {
            "mesh" : 0,
            "name" : "Circle"
        },
        {
            "mesh" : 1,
            "name" : "Torus.002",
            "scale" : [
                0.8692600727081299,
                0.7273115515708923,
                0.8692600727081299
            ],
            "translation" : [
                0,
                0.79337078332901,
                0
            ]
        },
        {
            "mesh" : 2,
            "name" : "Lid",
            "scale" : [
                0.3846573829650879,
                0.34949806332588196,
                0.3846573829650879
            ],
            "translation" : [
                0,
                0.7519789338111877,
                0
            ]
        }
    ],
    "materials" : [
        {
            "doubleSided" : true,
            "name" : "White",
            "pbrMetallicRoughness" : {
                "baseColorFactor" : [
                    0.800000011920929,
                    0.800000011920929,
                    0.800000011920929,
                    1
                ],
                "metallicFactor" : 0,
                "roughnessFactor" : 0.5
            }
        },
        {
            "doubleSided" : true,
            "name" : "Design",
            "pbrMetallicRoughness" : {
                "baseColorTexture" : {
                    "index" : 0,
                    "texCoord" : 0
                },
                "metallicFactor" : 0,
                "roughnessFactor" : 0.5
            }
        },
        {
            "doubleSided" : true,
            "name" : "Material.000",
            "pbrMetallicRoughness" : {
                "baseColorFactor" : [
                    0.800000011920929,
                    0.800000011920929,
                    0.800000011920929,
                    1
                ],
                "metallicFactor" : 0,
                "roughnessFactor" : 0.5
            }
        }
    ],
    "meshes" : [
        {
            "name" : "Circle",
            "primitives" : [
                {
                    "attributes" : {
                        "POSITION" : 0,
                        "NORMAL" : 1,
                        "TEXCOORD_0" : 2
                    },
                    "indices" : 3,
                    "material" : 0
                },
                {
                    "attributes" : {
                        "POSITION" : 4,
                        "NORMAL" : 5,
                        "TEXCOORD_0" : 6
                    },
                    "indices" : 7,
                    "material" : 1
                }
            ]
        },
        {
            "name" : "Torus.002",
            "primitives" : [
                {
                    "attributes" : {
                        "POSITION" : 8,
                        "NORMAL" : 9,
                        "TEXCOORD_0" : 10
                    },
                    "indices" : 11,
                    "material" : 0
                }
            ]
        },
        {
            "name" : "Circle.001",
            "primitives" : [
                {
                    "attributes" : {
                        "POSITION" : 12,
                        "NORMAL" : 13,
                        "TEXCOORD_0" : 14
                    },
                    "indices" : 15,
                    "material" : 2
                }
            ]
        }
    ],
    "textures" : [
        {
            "source" : 0
        }
    ],
    "images" : [
        {
            "mimeType" : "image/png",
            "name" : "texture",
            "uri" : "texture.png"
        }
    ],
    "accessors" : [
        {
            "bufferView" : 0,
            "componentType" : 5126,
            "count" : 8704,
            "max" : [
                0.36163976788520813,
                0.789768397808075,
                0.3616396188735962
            ],
            "min" : [
                -0.36164000630378723,
                0.054360464215278625,
                -0.3616400957107544
            ],
            "type" : "VEC3"
        },
        {
            "bufferView" : 1,
            "componentType" : 5126,
            "count" : 8704,
            "type" : "VEC3"
        },
        {
            "bufferView" : 2,
            "componentType" : 5126,
            "count" : 8704,
            "type" : "VEC2"
        },
        {
            "bufferView" : 3,
            "componentType" : 5123,
            "count" : 13056,
            "type" : "SCALAR"
        },
        {
            "bufferView" : 4,
            "componentType" : 5126,
            "count" : 14336,
            "max" : [
                0.3618663549423218,
                0.7895113229751587,
                0.3618662655353546
            ],
            "min" : [
                -0.36186665296554565,
                0,
                -0.3618667423725128
            ],
            "type" : "VEC3"
        },
        {
            "bufferView" : 5,
            "componentType" : 5126,
            "count" : 14336,
            "type" : "VEC3"
        },
        {
            "bufferView" : 6,
            "componentType" : 5126,
            "count" : 14336,
            "type" : "VEC2"
        },
        {
            "bufferView" : 7,
            "componentType" : 5123,
            "count" : 21504,
            "type" : "SCALAR"
        },
        {
            "bufferView" : 8,
            "componentType" : 5126,
            "count" : 10794,
            "max" : [
                0.4380247890949249,
                0.014348266646265984,
                0.4380247890949249
            ],
            "min" : [
                -0.4380247890949249,
                -0.014356154948472977,
                -0.4380247890949249
            ],
            "type" : "VEC3"
        },
        {
            "bufferView" : 9,
            "componentType" : 5126,
            "count" : 10794,
            "type" : "VEC3"
        },
        {
            "bufferView" : 10,
            "componentType" : 5126,
            "count" : 10794,
            "type" : "VEC2"
        },
        {
            "bufferView" : 11,
            "componentType" : 5123,
            "count" : 11172,
            "type" : "SCALAR"
        },
        {
            "bufferView" : 12,
            "componentType" : 5126,
            "count" : 11666,
            "max" : [
                1.0039490461349487,
                0.31729891896247864,
                1.0195444822311401
            ],
            "min" : [
                -1.0039490461349487,
                -0.02725491113960743,
                -1.0274534225463867
            ],
            "type" : "VEC3"
        },
        {
            "bufferView" : 13,
            "componentType" : 5126,
            "count" : 11666,
            "type" : "VEC3"
        },
        {
            "bufferView" : 14,
            "componentType" : 5126,
            "count" : 11666,
            "type" : "VEC2"
        },
        {
            "bufferView" : 15,
            "componentType" : 5123,
            "count" : 14613,
            "type" : "SCALAR"
        }
    ],
    "bufferViews" : [
        {
            "buffer" : 0,
            "byteLength" : 104448,
            "byteOffset" : 0
        },
        {
            "buffer" : 0,
            "byteLength" : 104448,
            "byteOffset" : 104448
        },
        {
            "buffer" : 0,
            "byteLength" : 69632,
            "byteOffset" : 208896
        },
        {
            "buffer" : 0,
            "byteLength" : 26112,
            "byteOffset" : 278528
        },
        {
            "buffer" : 0,
            "byteLength" : 172032,
            "byteOffset" : 304640
        },
        {
            "buffer" : 0,
            "byteLength" : 172032,
            "byteOffset" : 476672
        },
        {
            "buffer" : 0,
            "byteLength" : 114688,
            "byteOffset" : 648704
        },
        {
            "buffer" : 0,
            "byteLength" : 43008,
            "byteOffset" : 763392
        },
        {
            "buffer" : 0,
            "byteLength" : 129528,
            "byteOffset" : 806400
        },
        {
            "buffer" : 0,
            "byteLength" : 129528,
            "byteOffset" : 935928
        },
        {
            "buffer" : 0,
            "byteLength" : 86352,
            "byteOffset" : 1065456
        },
        {
            "buffer" : 0,
            "byteLength" : 22344,
            "byteOffset" : 1151808
        },
        {
            "buffer" : 0,
            "byteLength" : 139992,
            "byteOffset" : 1174152
        },
        {
            "buffer" : 0,
            "byteLength" : 139992,
            "byteOffset" : 1314144
        },
        {
            "buffer" : 0,
            "byteLength" : 93328,
            "byteOffset" : 1454136
        },
        {
            "buffer" : 0,
            "byteLength" : 29226,
            "byteOffset" : 1547464
        }
    ],
    "buffers" : [
        {
            "byteLength" : 1576692,
            "uri" : "scene.bin"
        }
    ]
}
