{
    "asset" : {
        "generator" : "Khronos glTF Blender I/O v0.9.36",
        "version" : "2.0"
    },
    "scene" : 0,
    "scenes" : [
        {
            "name" : "Scene",
            "nodes" : [
                0,
                1,
                2,
                3,
                4,
                5,
                6,
                7,
                8
            ]
        }
    ],
    "nodes" : [
        {
            "name" : "Light",
            "rotation" : [
                0.16907575726509094,
                0.7558803558349609,
                -0.27217137813568115,
                0.570947527885437
            ],
            "translation" : [
                4.076245307922363,
                5.903861999511719,
                -1.0054539442062378
            ]
        },
        {
            "name" : "Camera",
            "rotation" : [
                0.483536034822464,
                0.33687159419059753,
                -0.20870360732078552,
                0.7804827094078064
            ],
            "translation" : [
                7.358891487121582,
                4.958309173583984,
                6.925790786743164
            ]
        },
        {
            "mesh" : 0,
            "name" : "Circle",
            "rotation" : [
                0.008471718057990074,
                -0.0006572301499545574,
                0.007200548425316811,
                0.9999379515647888
            ],
            "translation" : [
                -0.34866783022880554,
                0.44917383790016174,
                7.42883566999808e-05
            ]
        },
        {
            "mesh" : 1,
            "name" : "Lid",
            "scale" : [
                0.4739113450050354,
                0.443998247385025,
                0.4739113450050354
            ],
            "translation" : [
                0,
                1.3090496063232422,
                -0.0017923712730407715
            ]
        },
        {
            "mesh" : 2,
            "name" : "Torus.002",
            "scale" : [
                1.0704466104507446,
                1.0704466104507446,
                1.0704466104507446
            ],
            "translation" : [
                0,
                1.3631870746612549,
                0
            ]
        },
        {
            "mesh" : 3,
            "name" : "Circle.001"
        },
        {
            "mesh" : 4,
            "name" : "Vert",
            "translation" : [
                -0.34866780042648315,
                0.44917383790016174,
                7.426366209983826e-05
            ]
        },
        {
            "mesh" : 5,
            "name" : "Vert.002",
            "translation" : [
                -0.33497369289398193,
                0.3083983063697815,
                -0.0015325115527957678
            ]
        },
        {
            "mesh" : 6,
            "name" : "Vert.001",
            "translation" : [
                -0.3652050495147705,
                0.604399561882019,
                0.017959147691726685
            ]
        }
    ],
    "animations" : [
        {
            "channels" : [
                {
                    "sampler" : 0,
                    "target" : {
                        "node" : 2,
                        "path" : "rotation"
                    }
                }
            ],
            "name" : "CircleAction.001",
            "samplers" : [
                {
                    "input" : 35,
                    "interpolation" : "CUBICSPLINE",
                    "output" : 36
                }
            ]
        }
    ],
    "materials" : [
        {
            "doubleSided" : true,
            "name" : "Material.003",
            "pbrMetallicRoughness" : {
                "baseColorTexture" : {
                    "index" : 0,
                    "texCoord" : 0
                },
                "metallicFactor" : 0,
                "roughnessFactor" : 0.5
            }
        },
        {
            "doubleSided" : true,
            "name" : "Back",
            "pbrMetallicRoughness" : {
                "baseColorTexture" : {
                    "index" : 1,
                    "texCoord" : 0
                },
                "metallicFactor" : 0,
                "roughnessFactor" : 0.5
            }
        },
        {
            "doubleSided" : true,
            "name" : "Material.001",
            "pbrMetallicRoughness" : {
                "baseColorFactor" : [
                    0,
                    0,
                    0,
                    1
                ],
                "metallicFactor" : 0,
                "roughnessFactor" : 0.5
            }
        },
        {
            "doubleSided" : true,
            "name" : "Material",
            "pbrMetallicRoughness" : {
                "baseColorFactor" : [
                    0.800000011920929,
                    0.800000011920929,
                    0.800000011920929,
                    1
                ],
                "metallicFactor" : 0,
                "roughnessFactor" : 0.5
            }
        }
    ],
    "meshes" : [
        {
            "name" : "Circle",
            "primitives" : [
                {
                    "attributes" : {
                        "POSITION" : 0,
                        "NORMAL" : 1,
                        "TEXCOORD_0" : 2
                    },
                    "indices" : 3,
                    "material" : 0
                },
                {
                    "attributes" : {
                        "POSITION" : 4,
                        "NORMAL" : 5,
                        "TEXCOORD_0" : 6
                    },
                    "indices" : 7,
                    "material" : 1
                }
            ]
        },
        {
            "name" : "Circle.002",
            "primitives" : [
                {
                    "attributes" : {
                        "POSITION" : 8,
                        "NORMAL" : 9,
                        "TEXCOORD_0" : 10
                    },
                    "indices" : 11,
                    "material" : 2
                }
            ]
        },
        {
            "name" : "Torus.002",
            "primitives" : [
                {
                    "attributes" : {
                        "POSITION" : 12,
                        "NORMAL" : 13,
                        "TEXCOORD_0" : 14
                    },
                    "indices" : 15,
                    "material" : 3
                }
            ]
        },
        {
            "name" : "Circle.003",
            "primitives" : [
                {
                    "attributes" : {
                        "POSITION" : 16,
                        "NORMAL" : 17,
                        "TEXCOORD_0" : 18
                    },
                    "indices" : 19,
                    "material" : 0
                },
                {
                    "attributes" : {
                        "POSITION" : 20,
                        "NORMAL" : 21,
                        "TEXCOORD_0" : 22
                    },
                    "indices" : 23,
                    "material" : 3
                }
            ]
        },
        {
            "name" : "Vert",
            "primitives" : [
                {
                    "attributes" : {
                        "POSITION" : 24,
                        "NORMAL" : 25,
                        "TEXCOORD_0" : 26
                    },
                    "indices" : 27,
                    "material" : 0
                }
            ]
        },
        {
            "name" : "Vert.002",
            "primitives" : [
                {
                    "attributes" : {
                        "POSITION" : 28,
                        "NORMAL" : 29,
                        "TEXCOORD_0" : 30
                    },
                    "indices" : 31,
                    "material" : 0
                }
            ]
        },
        {
            "name" : "Vert.003",
            "primitives" : [
                {
                    "attributes" : {
                        "POSITION" : 32,
                        "NORMAL" : 33,
                        "TEXCOORD_0" : 34
                    },
                    "indices" : 31,
                    "material" : 0
                }
            ]
        }
    ],
    "textures" : [
        {
            "source" : 0
        },
        {
            "source" : 1
        }
    ],
    "images" : [
        {
            "mimeType" : "image/png",
            "name" : "front",
            "uri" : "front.png"
        },
        {
            "mimeType" : "image/png",
            "name" : "back",
            "uri" : "back.png"
        }
    ],
    "accessors" : [
        {
            "bufferView" : 0,
            "componentType" : 5126,
            "count" : 141,
            "max" : [
                0.19479545950889587,
                0.14854800701141357,
                0.33045530319213867
            ],
            "min" : [
                -0.016513943672180176,
                -0.13793867826461792,
                -0.0010540244402363896
            ],
            "type" : "VEC3"
        },
        {
            "bufferView" : 1,
            "componentType" : 5126,
            "count" : 141,
            "type" : "VEC3"
        },
        {
            "bufferView" : 2,
            "componentType" : 5126,
            "count" : 141,
            "type" : "VEC2"
        },
        {
            "bufferView" : 3,
            "componentType" : 5123,
            "count" : 714,
            "type" : "SCALAR"
        },
        {
            "bufferView" : 4,
            "componentType" : 5126,
            "count" : 143,
            "max" : [
                0.19479545950889587,
                0.14854800701141357,
                0.3300560712814331
            ],
            "min" : [
                -0.015394993126392365,
                -0.13777023553848267,
                -0.0010540244402363896
            ],
            "type" : "VEC3"
        },
        {
            "bufferView" : 5,
            "componentType" : 5126,
            "count" : 143,
            "type" : "VEC3"
        },
        {
            "bufferView" : 6,
            "componentType" : 5126,
            "count" : 143,
            "type" : "VEC2"
        },
        {
            "bufferView" : 7,
            "componentType" : 5123,
            "count" : 480,
            "type" : "SCALAR"
        },
        {
            "bufferView" : 8,
            "componentType" : 5126,
            "count" : 11666,
            "max" : [
                1.0039490461349487,
                0.31729891896247864,
                1.0195444822311401
            ],
            "min" : [
                -1.0039490461349487,
                -0.02725491113960743,
                -1.0274534225463867
            ],
            "type" : "VEC3"
        },
        {
            "bufferView" : 9,
            "componentType" : 5126,
            "count" : 11666,
            "type" : "VEC3"
        },
        {
            "bufferView" : 10,
            "componentType" : 5126,
            "count" : 11666,
            "type" : "VEC2"
        },
        {
            "bufferView" : 11,
            "componentType" : 5123,
            "count" : 14613,
            "type" : "SCALAR"
        },
        {
            "bufferView" : 12,
            "componentType" : 5126,
            "count" : 10794,
            "max" : [
                0.4380247890949249,
                0.014348266646265984,
                0.4380247890949249
            ],
            "min" : [
                -0.4380247890949249,
                -0.014356154948472977,
                -0.4380247890949249
            ],
            "type" : "VEC3"
        },
        {
            "bufferView" : 13,
            "componentType" : 5126,
            "count" : 10794,
            "type" : "VEC3"
        },
        {
            "bufferView" : 14,
            "componentType" : 5126,
            "count" : 10794,
            "type" : "VEC2"
        },
        {
            "bufferView" : 15,
            "componentType" : 5123,
            "count" : 11172,
            "type" : "SCALAR"
        },
        {
            "bufferView" : 16,
            "componentType" : 5126,
            "count" : 321,
            "max" : [
                0.44999992847442627,
                1.3600001335144043,
                0.4499998092651367
            ],
            "min" : [
                -0.4500000476837158,
                0.17600645124912262,
                -0.45000016689300537
            ],
            "type" : "VEC3"
        },
        {
            "bufferView" : 17,
            "componentType" : 5126,
            "count" : 321,
            "type" : "VEC3"
        },
        {
            "bufferView" : 18,
            "componentType" : 5126,
            "count" : 321,
            "type" : "VEC2"
        },
        {
            "bufferView" : 19,
            "componentType" : 5123,
            "count" : 1593,
            "type" : "SCALAR"
        },
        {
            "bufferView" : 20,
            "componentType" : 5126,
            "count" : 618,
            "max" : [
                0.44999992847442627,
                1.3600001335144043,
                0.4499998092651367
            ],
            "min" : [
                -0.4500000476837158,
                0,
                -0.45000016689300537
            ],
            "type" : "VEC3"
        },
        {
            "bufferView" : 21,
            "componentType" : 5126,
            "count" : 618,
            "type" : "VEC3"
        },
        {
            "bufferView" : 22,
            "componentType" : 5126,
            "count" : 618,
            "type" : "VEC2"
        },
        {
            "bufferView" : 23,
            "componentType" : 5123,
            "count" : 2235,
            "type" : "SCALAR"
        },
        {
            "bufferView" : 24,
            "componentType" : 5126,
            "count" : 2395,
            "max" : [
                0.017710698768496513,
                0.1419845074415207,
                0.0009545171051286161
            ],
            "min" : [
                -0.016769666224718094,
                -0.13914629817008972,
                -0.005992738530039787
            ],
            "type" : "VEC3"
        },
        {
            "bufferView" : 25,
            "componentType" : 5126,
            "count" : 2395,
            "type" : "VEC3"
        },
        {
            "bufferView" : 26,
            "componentType" : 5126,
            "count" : 2395,
            "type" : "VEC2"
        },
        {
            "bufferView" : 27,
            "componentType" : 5123,
            "count" : 3537,
            "type" : "SCALAR"
        },
        {
            "bufferView" : 28,
            "componentType" : 5126,
            "count" : 2468,
            "max" : [
                0.17393125593662262,
                0.08246603608131409,
                0.2995583713054657
            ],
            "min" : [
                -0.0010360333835706115,
                -0.005776561331003904,
                0.006022584158927202
            ],
            "type" : "VEC3"
        },
        {
            "bufferView" : 29,
            "componentType" : 5126,
            "count" : 2468,
            "type" : "VEC3"
        },
        {
            "bufferView" : 30,
            "componentType" : 5126,
            "count" : 2468,
            "type" : "VEC2"
        },
        {
            "bufferView" : 31,
            "componentType" : 5123,
            "count" : 3702,
            "type" : "SCALAR"
        },
        {
            "bufferView" : 32,
            "componentType" : 5126,
            "count" : 2468,
            "max" : [
                0.1958853304386139,
                0.0036006991285830736,
                0.30170103907585144
            ],
            "min" : [
                -0.0010360333835706115,
                -0.0872168093919754,
                0.006022584158927202
            ],
            "type" : "VEC3"
        },
        {
            "bufferView" : 33,
            "componentType" : 5126,
            "count" : 2468,
            "type" : "VEC3"
        },
        {
            "bufferView" : 34,
            "componentType" : 5126,
            "count" : 2468,
            "type" : "VEC2"
        },
        {
            "bufferView" : 35,
            "componentType" : 5126,
            "count" : 3,
            "max" : [
                2.5
            ],
            "min" : [
                0.041666666666666664
            ],
            "type" : "SCALAR"
        },
        {
            "bufferView" : 36,
            "componentType" : 5126,
            "count" : 9,
            "type" : "VEC4"
        }
    ],
    "bufferViews" : [
        {
            "buffer" : 0,
            "byteLength" : 1692,
            "byteOffset" : 0
        },
        {
            "buffer" : 0,
            "byteLength" : 1692,
            "byteOffset" : 1692
        },
        {
            "buffer" : 0,
            "byteLength" : 1128,
            "byteOffset" : 3384
        },
        {
            "buffer" : 0,
            "byteLength" : 1428,
            "byteOffset" : 4512
        },
        {
            "buffer" : 0,
            "byteLength" : 1716,
            "byteOffset" : 5940
        },
        {
            "buffer" : 0,
            "byteLength" : 1716,
            "byteOffset" : 7656
        },
        {
            "buffer" : 0,
            "byteLength" : 1144,
            "byteOffset" : 9372
        },
        {
            "buffer" : 0,
            "byteLength" : 960,
            "byteOffset" : 10516
        },
        {
            "buffer" : 0,
            "byteLength" : 139992,
            "byteOffset" : 11476
        },
        {
            "buffer" : 0,
            "byteLength" : 139992,
            "byteOffset" : 151468
        },
        {
            "buffer" : 0,
            "byteLength" : 93328,
            "byteOffset" : 291460
        },
        {
            "buffer" : 0,
            "byteLength" : 29226,
            "byteOffset" : 384788
        },
        {
            "buffer" : 0,
            "byteLength" : 129528,
            "byteOffset" : 414016
        },
        {
            "buffer" : 0,
            "byteLength" : 129528,
            "byteOffset" : 543544
        },
        {
            "buffer" : 0,
            "byteLength" : 86352,
            "byteOffset" : 673072
        },
        {
            "buffer" : 0,
            "byteLength" : 22344,
            "byteOffset" : 759424
        },
        {
            "buffer" : 0,
            "byteLength" : 3852,
            "byteOffset" : 781768
        },
        {
            "buffer" : 0,
            "byteLength" : 3852,
            "byteOffset" : 785620
        },
        {
            "buffer" : 0,
            "byteLength" : 2568,
            "byteOffset" : 789472
        },
        {
            "buffer" : 0,
            "byteLength" : 3186,
            "byteOffset" : 792040
        },
        {
            "buffer" : 0,
            "byteLength" : 7416,
            "byteOffset" : 795228
        },
        {
            "buffer" : 0,
            "byteLength" : 7416,
            "byteOffset" : 802644
        },
        {
            "buffer" : 0,
            "byteLength" : 4944,
            "byteOffset" : 810060
        },
        {
            "buffer" : 0,
            "byteLength" : 4470,
            "byteOffset" : 815004
        },
        {
            "buffer" : 0,
            "byteLength" : 28740,
            "byteOffset" : 819476
        },
        {
            "buffer" : 0,
            "byteLength" : 28740,
            "byteOffset" : 848216
        },
        {
            "buffer" : 0,
            "byteLength" : 19160,
            "byteOffset" : 876956
        },
        {
            "buffer" : 0,
            "byteLength" : 7074,
            "byteOffset" : 896116
        },
        {
            "buffer" : 0,
            "byteLength" : 29616,
            "byteOffset" : 903192
        },
        {
            "buffer" : 0,
            "byteLength" : 29616,
            "byteOffset" : 932808
        },
        {
            "buffer" : 0,
            "byteLength" : 19744,
            "byteOffset" : 962424
        },
        {
            "buffer" : 0,
            "byteLength" : 7404,
            "byteOffset" : 982168
        },
        {
            "buffer" : 0,
            "byteLength" : 29616,
            "byteOffset" : 989572
        },
        {
            "buffer" : 0,
            "byteLength" : 29616,
            "byteOffset" : 1019188
        },
        {
            "buffer" : 0,
            "byteLength" : 19744,
            "byteOffset" : 1048804
        },
        {
            "buffer" : 0,
            "byteLength" : 12,
            "byteOffset" : 1068548
        },
        {
            "buffer" : 0,
            "byteLength" : 144,
            "byteOffset" : 1068560
        }
    ],
    "buffers" : [
        {
            "byteLength" : 1068704,
            "uri" : "scene.bin"
        }
    ]
}
