{
    "asset" : {
        "generator" : "Khronos glTF Blender I/O v0.9.36",
        "version" : "2.0"
    },
    "scene" : 0,
    "scenes" : [
        {
            "name" : "Scene",
            "nodes" : [
                0,
                1,
                2,
                3,
                4
            ]
        }
    ],
    "nodes" : [
        {
            "name" : "Light",
            "rotation" : [
                0.16907575726509094,
                0.7558803558349609,
                -0.27217137813568115,
                0.570947527885437
            ],
            "translation" : [
                4.076245307922363,
                5.903861999511719,
                -1.0054539442062378
            ]
        },
        {
            "name" : "Camera",
            "rotation" : [
                0.483536034822464,
                0.33687159419059753,
                -0.20870360732078552,
                0.7804827094078064
            ],
            "translation" : [
                7.358891487121582,
                4.958309173583984,
                6.925790786743164
            ]
        },
        {
            "mesh" : 0,
            "name" : "Torus.002",
            "scale" : [
                1.0735821723937988,
                0.9536435008049011,
                1.0735821723937988
            ],
            "translation" : [
                0,
                1.356303334236145,
                0
            ]
        },
        {
            "mesh" : 1,
            "name" : "Circle"
        },
        {
            "mesh" : 2,
            "name" : "Lid",
            "scale" : [
                0.475565105676651,
                0.34949806332588196,
                0.475565105676651
            ],
            "translation" : [
                0,
                1.3232275247573853,
                0
            ]
        }
    ],
    "materials" : [
        {
            "doubleSided" : true,
            "name" : "White",
            "pbrMetallicRoughness" : {
                "baseColorFactor" : [
                    0.800000011920929,
                    0.800000011920929,
                    0.800000011920929,
                    1
                ],
                "metallicFactor" : 0,
                "roughnessFactor" : 0.5
            }
        },
        {
            "doubleSided" : true,
            "name" : "Design",
            "pbrMetallicRoughness" : {
                "baseColorTexture" : {
                    "index" : 0,
                    "texCoord" : 0
                },
                "metallicFactor" : 0,
                "roughnessFactor" : 0.5
            }
        },
        {
            "doubleSided" : true,
            "name" : "Material.000",
            "pbrMetallicRoughness" : {
                "baseColorFactor" : [
                    0.800000011920929,
                    0.800000011920929,
                    0.800000011920929,
                    1
                ],
                "metallicFactor" : 0,
                "roughnessFactor" : 0.5
            }
        }
    ],
    "meshes" : [
        {
            "name" : "Torus.002",
            "primitives" : [
                {
                    "attributes" : {
                        "POSITION" : 0,
                        "NORMAL" : 1,
                        "TEXCOORD_0" : 2
                    },
                    "indices" : 3,
                    "material" : 0
                }
            ]
        },
        {
            "name" : "Circle",
            "primitives" : [
                {
                    "attributes" : {
                        "POSITION" : 4,
                        "NORMAL" : 5,
                        "TEXCOORD_0" : 6
                    },
                    "indices" : 7,
                    "material" : 0
                },
                {
                    "attributes" : {
                        "POSITION" : 8,
                        "NORMAL" : 9,
                        "TEXCOORD_0" : 10
                    },
                    "indices" : 11,
                    "material" : 1
                }
            ]
        },
        {
            "name" : "Circle.000",
            "primitives" : [
                {
                    "attributes" : {
                        "POSITION" : 12,
                        "NORMAL" : 13,
                        "TEXCOORD_0" : 14
                    },
                    "indices" : 15,
                    "material" : 2
                }
            ]
        }
    ],
    "textures" : [
        {
            "source" : 0
        }
    ],
    "images" : [
        {
            "mimeType" : "image/png",
            "name" : "texture",
            "uri" : "texture.png"
        }
    ],
    "accessors" : [
        {
            "bufferView" : 0,
            "componentType" : 5126,
            "count" : 10794,
            "max" : [
                0.4380247890949249,
                0.014348266646265984,
                0.4380247890949249
            ],
            "min" : [
                -0.4380247890949249,
                -0.014356154948472977,
                -0.4380247890949249
            ],
            "type" : "VEC3"
        },
        {
            "bufferView" : 1,
            "componentType" : 5126,
            "count" : 10794,
            "type" : "VEC3"
        },
        {
            "bufferView" : 2,
            "componentType" : 5126,
            "count" : 10794,
            "type" : "VEC2"
        },
        {
            "bufferView" : 3,
            "componentType" : 5123,
            "count" : 11172,
            "type" : "SCALAR"
        },
        {
            "bufferView" : 4,
            "componentType" : 5126,
            "count" : 8704,
            "max" : [
                0.44711774587631226,
                1.3600002527236938,
                0.4471176564693451
            ],
            "min" : [
                -0.4471179246902466,
                0.06105427071452141,
                -0.44711804389953613
            ],
            "type" : "VEC3"
        },
        {
            "bufferView" : 5,
            "componentType" : 5126,
            "count" : 8704,
            "type" : "VEC3"
        },
        {
            "bufferView" : 6,
            "componentType" : 5126,
            "count" : 8704,
            "type" : "VEC2"
        },
        {
            "bufferView" : 7,
            "componentType" : 5123,
            "count" : 13056,
            "type" : "SCALAR"
        },
        {
            "bufferView" : 8,
            "componentType" : 5126,
            "count" : 8192,
            "max" : [
                0.4462275505065918,
                1.3528326749801636,
                0.44622746109962463
            ],
            "min" : [
                -0.4462277293205261,
                0.0011443174444139004,
                -0.4462278485298157
            ],
            "type" : "VEC3"
        },
        {
            "bufferView" : 9,
            "componentType" : 5126,
            "count" : 8192,
            "type" : "VEC3"
        },
        {
            "bufferView" : 10,
            "componentType" : 5126,
            "count" : 8192,
            "type" : "VEC2"
        },
        {
            "bufferView" : 11,
            "componentType" : 5123,
            "count" : 12288,
            "type" : "SCALAR"
        },
        {
            "bufferView" : 12,
            "componentType" : 5126,
            "count" : 11666,
            "max" : [
                1.0039490461349487,
                0.31729891896247864,
                1.0195444822311401
            ],
            "min" : [
                -1.0039490461349487,
                -0.02725491113960743,
                -1.0274534225463867
            ],
            "type" : "VEC3"
        },
        {
            "bufferView" : 13,
            "componentType" : 5126,
            "count" : 11666,
            "type" : "VEC3"
        },
        {
            "bufferView" : 14,
            "componentType" : 5126,
            "count" : 11666,
            "type" : "VEC2"
        },
        {
            "bufferView" : 15,
            "componentType" : 5123,
            "count" : 14613,
            "type" : "SCALAR"
        }
    ],
    "bufferViews" : [
        {
            "buffer" : 0,
            "byteLength" : 129528,
            "byteOffset" : 0
        },
        {
            "buffer" : 0,
            "byteLength" : 129528,
            "byteOffset" : 129528
        },
        {
            "buffer" : 0,
            "byteLength" : 86352,
            "byteOffset" : 259056
        },
        {
            "buffer" : 0,
            "byteLength" : 22344,
            "byteOffset" : 345408
        },
        {
            "buffer" : 0,
            "byteLength" : 104448,
            "byteOffset" : 367752
        },
        {
            "buffer" : 0,
            "byteLength" : 104448,
            "byteOffset" : 472200
        },
        {
            "buffer" : 0,
            "byteLength" : 69632,
            "byteOffset" : 576648
        },
        {
            "buffer" : 0,
            "byteLength" : 26112,
            "byteOffset" : 646280
        },
        {
            "buffer" : 0,
            "byteLength" : 98304,
            "byteOffset" : 672392
        },
        {
            "buffer" : 0,
            "byteLength" : 98304,
            "byteOffset" : 770696
        },
        {
            "buffer" : 0,
            "byteLength" : 65536,
            "byteOffset" : 869000
        },
        {
            "buffer" : 0,
            "byteLength" : 24576,
            "byteOffset" : 934536
        },
        {
            "buffer" : 0,
            "byteLength" : 139992,
            "byteOffset" : 959112
        },
        {
            "buffer" : 0,
            "byteLength" : 139992,
            "byteOffset" : 1099104
        },
        {
            "buffer" : 0,
            "byteLength" : 93328,
            "byteOffset" : 1239096
        },
        {
            "buffer" : 0,
            "byteLength" : 29226,
            "byteOffset" : 1332424
        }
    ],
    "buffers" : [
        {
            "byteLength" : 1361652,
            "uri" : "scene.bin"
        }
    ]
}
