{
    "asset" : {
        "generator" : "Khronos glTF Blender I/O v3.2.40",
        "version" : "2.0"
    },
    "scene" : 0,
    "scenes" : [
        {
            "name" : "Scene",
            "nodes" : [
                0,
                1,
                2
            ]
        }
    ],
    "nodes" : [
        {
            "mesh" : 0,
            "name" : "Cup"
        },
        {
            "mesh" : 1,
            "name" : "Lid",
            "scale" : [
                0.4739113450050354,
                0.443998247385025,
                0.4739113450050354
            ],
            "translation" : [
                0,
                1.3090496063232422,
                -0.0017923712730407715
            ]
        },
        {
            "mesh" : 2,
            "name" : "Ring",
            "scale" : [
                1.0704466104507446,
                1.0704466104507446,
                1.0704466104507446
            ],
            "translation" : [
                0,
                1.3631870746612549,
                0
            ]
        }
    ],
    "materials" : [
        {
            "doubleSided" : true,
            "name" : "Material.003",
            "pbrMetallicRoughness" : {
                "baseColorTexture" : {
                    "index" : 0
                },
                "metallicFactor" : 0,
                "roughnessFactor" : 0.5
            }
        },
        {
            "doubleSided" : true,
            "name" : "Material",
            "pbrMetallicRoughness" : {
                "baseColorFactor" : [
                    0.800000011920929,
                    0.800000011920929,
                    0.800000011920929,
                    1
                ],
                "metallicFactor" : 0,
                "roughnessFactor" : 0.5
            }
        },
        {
            "doubleSided" : true,
            "name" : "Material.001",
            "pbrMetallicRoughness" : {
                "baseColorFactor" : [
                    0,
                    0,
                    0,
                    1
                ],
                "metallicFactor" : 0,
                "roughnessFactor" : 0.5
            }
        }
    ],
    "meshes" : [
        {
            "name" : "Mesh",
            "primitives" : [
                {
                    "attributes" : {
                        "POSITION" : 0,
                        "NORMAL" : 1,
                        "TEXCOORD_0" : 2
                    },
                    "indices" : 3,
                    "material" : 0
                },
                {
                    "attributes" : {
                        "POSITION" : 4,
                        "NORMAL" : 5,
                        "TEXCOORD_0" : 6
                    },
                    "indices" : 7,
                    "material" : 1
                }
            ]
        },
        {
            "name" : "Circle.002",
            "primitives" : [
                {
                    "attributes" : {
                        "POSITION" : 8,
                        "NORMAL" : 9,
                        "TEXCOORD_0" : 10
                    },
                    "indices" : 11,
                    "material" : 2
                }
            ]
        },
        {
            "name" : "Torus.002",
            "primitives" : [
                {
                    "attributes" : {
                        "POSITION" : 12,
                        "NORMAL" : 13,
                        "TEXCOORD_0" : 14
                    },
                    "indices" : 15,
                    "material" : 1
                }
            ]
        }
    ],
    "textures" : [
        {
            "sampler" : 0,
            "source" : 0
        }
    ],
    "images" : [
        {
            "mimeType" : "image/png",
            "name" : "texture",
            "uri" : "texture.png"
        }
    ],
    "accessors" : [
        {
            "bufferView" : 0,
            "componentType" : 5126,
            "count" : 8192,
            "max" : [
                0.44570547342300415,
                1.3590164184570312,
                0.4457052946090698
            ],
            "min" : [
                -0.4457056224346161,
                0.1773827224969864,
                -0.44570574164390564
            ],
            "type" : "VEC3"
        },
        {
            "bufferView" : 1,
            "componentType" : 5126,
            "count" : 8192,
            "type" : "VEC3"
        },
        {
            "bufferView" : 2,
            "componentType" : 5126,
            "count" : 8192,
            "type" : "VEC2"
        },
        {
            "bufferView" : 3,
            "componentType" : 5123,
            "count" : 12288,
            "type" : "SCALAR"
        },
        {
            "bufferView" : 4,
            "componentType" : 5126,
            "count" : 17407,
            "max" : [
                0.4449519217014313,
                1.3590164184570312,
                0.4449518024921417
            ],
            "min" : [
                -0.4449521005153656,
                0.0035275924019515514,
                -0.44495221972465515
            ],
            "type" : "VEC3"
        },
        {
            "bufferView" : 5,
            "componentType" : 5126,
            "count" : 17407,
            "type" : "VEC3"
        },
        {
            "bufferView" : 6,
            "componentType" : 5126,
            "count" : 17407,
            "type" : "VEC2"
        },
        {
            "bufferView" : 7,
            "componentType" : 5123,
            "count" : 26112,
            "type" : "SCALAR"
        },
        {
            "bufferView" : 8,
            "componentType" : 5126,
            "count" : 11669,
            "max" : [
                1.0039490461349487,
                0.31729891896247864,
                1.0195444822311401
            ],
            "min" : [
                -1.0039490461349487,
                -0.02725491113960743,
                -1.0274534225463867
            ],
            "type" : "VEC3"
        },
        {
            "bufferView" : 9,
            "componentType" : 5126,
            "count" : 11669,
            "type" : "VEC3"
        },
        {
            "bufferView" : 10,
            "componentType" : 5126,
            "count" : 11669,
            "type" : "VEC2"
        },
        {
            "bufferView" : 11,
            "componentType" : 5123,
            "count" : 14613,
            "type" : "SCALAR"
        },
        {
            "bufferView" : 12,
            "componentType" : 5126,
            "count" : 10794,
            "max" : [
                0.4380247890949249,
                0.014348266646265984,
                0.4380247890949249
            ],
            "min" : [
                -0.4380247890949249,
                -0.014356154948472977,
                -0.4380247890949249
            ],
            "type" : "VEC3"
        },
        {
            "bufferView" : 13,
            "componentType" : 5126,
            "count" : 10794,
            "type" : "VEC3"
        },
        {
            "bufferView" : 14,
            "componentType" : 5126,
            "count" : 10794,
            "type" : "VEC2"
        },
        {
            "bufferView" : 15,
            "componentType" : 5123,
            "count" : 11172,
            "type" : "SCALAR"
        }
    ],
    "bufferViews" : [
        {
            "buffer" : 0,
            "byteLength" : 98304,
            "byteOffset" : 0
        },
        {
            "buffer" : 0,
            "byteLength" : 98304,
            "byteOffset" : 98304
        },
        {
            "buffer" : 0,
            "byteLength" : 65536,
            "byteOffset" : 196608
        },
        {
            "buffer" : 0,
            "byteLength" : 24576,
            "byteOffset" : 262144
        },
        {
            "buffer" : 0,
            "byteLength" : 208884,
            "byteOffset" : 286720
        },
        {
            "buffer" : 0,
            "byteLength" : 208884,
            "byteOffset" : 495604
        },
        {
            "buffer" : 0,
            "byteLength" : 139256,
            "byteOffset" : 704488
        },
        {
            "buffer" : 0,
            "byteLength" : 52224,
            "byteOffset" : 843744
        },
        {
            "buffer" : 0,
            "byteLength" : 140028,
            "byteOffset" : 895968
        },
        {
            "buffer" : 0,
            "byteLength" : 140028,
            "byteOffset" : 1035996
        },
        {
            "buffer" : 0,
            "byteLength" : 93352,
            "byteOffset" : 1176024
        },
        {
            "buffer" : 0,
            "byteLength" : 29226,
            "byteOffset" : 1269376
        },
        {
            "buffer" : 0,
            "byteLength" : 129528,
            "byteOffset" : 1298604
        },
        {
            "buffer" : 0,
            "byteLength" : 129528,
            "byteOffset" : 1428132
        },
        {
            "buffer" : 0,
            "byteLength" : 86352,
            "byteOffset" : 1557660
        },
        {
            "buffer" : 0,
            "byteLength" : 22344,
            "byteOffset" : 1644012
        }
    ],
    "samplers" : [
        {
            "magFilter" : 9729,
            "minFilter" : 9987
        }
    ],
    "buffers" : [
        {
            "byteLength" : 1666356,
            "uri" : "scene.bin"
        }
    ]
}
