{
    "asset" : {
        "generator" : "Khronos glTF Blender I/O v0.9.36",
        "version" : "2.0"
    },
    "scene" : 0,
    "scenes" : [
        {
            "name" : "Scene",
            "nodes" : [
                0,
                1,
                2,
                3,
                4,
                5,
                6
            ]
        }
    ],
    "nodes" : [
        {
            "name" : "Camera",
            "rotation" : [
                0.483536034822464,
                0.33687159419059753,
                -0.20870360732078552,
                0.7804827094078064
            ],
            "translation" : [
                7.358891487121582,
                4.958309173583984,
                6.925790786743164
            ]
        },
        {
            "mesh" : 0,
            "name" : "Circle",
            "translation" : [
                -1.012922763824463,
                0,
                0.1163199245929718
            ]
        },
        {
            "mesh" : 1,
            "name" : "Circle.000",
            "translation" : [
                1.1417213678359985,
                0,
                0.09822824597358704
            ]
        },
        {
            "mesh" : 2,
            "name" : "Circle.001",
            "translation" : [
                0,
                0,
                -0.3615700900554657
            ]
        },
        {
            "mesh" : 3,
            "name" : "Torus.000",
            "translation" : [
                -1.012922763824463,
                0.4000000059604645,
                0.1163199245929718
            ]
        },
        {
            "mesh" : 4,
            "name" : "Torus.001",
            "scale" : [
                1.1019970178604126,
                1,
                1.1019970178604126
            ],
            "translation" : [
                0,
                0.44731393456459045,
                -0.3615700900554657
            ]
        },
        {
            "mesh" : 5,
            "name" : "Torus.002",
            "scale" : [
                1.238004446029663,
                1,
                1.238004446029663
            ],
            "translation" : [
                1.1417213678359985,
                0.5098904967308044,
                0.09822824597358704
            ]
        }
    ],
    "materials" : [
        {
            "doubleSided" : true,
            "name" : "Material.006",
            "pbrMetallicRoughness" : {
                "baseColorFactor" : [
                    0.800000011920929,
                    0.800000011920929,
                    0.800000011920929,
                    1
                ],
                "metallicFactor" : 0,
                "roughnessFactor" : 0.5
            }
        },
        {
            "doubleSided" : true,
            "name" : "Material.005",
            "pbrMetallicRoughness" : {
                "baseColorFactor" : [
                    0.8000000715255737,
                    0.13593846559524536,
                    0.14717726409435272,
                    1
                ],
                "metallicFactor" : 0,
                "roughnessFactor" : 0.5
            }
        },
        {
            "doubleSided" : true,
            "name" : "Material.004",
            "pbrMetallicRoughness" : {
                "baseColorFactor" : [
                    1,
                    0.3269476592540741,
                    0.3269476592540741,
                    1
                ],
                "metallicFactor" : 0,
                "roughnessFactor" : 0.5
            }
        },
        {
            "doubleSided" : true,
            "name" : "Material.000",
            "pbrMetallicRoughness" : {
                "baseColorFactor" : [
                    0.800000011920929,
                    0.800000011920929,
                    0.800000011920929,
                    1
                ],
                "metallicFactor" : 0,
                "roughnessFactor" : 0.5
            }
        },
        {
            "doubleSided" : true,
            "name" : "Material.002",
            "pbrMetallicRoughness" : {
                "baseColorFactor" : [
                    0.8000000715255737,
                    0.15625473856925964,
                    0.21364445984363556,
                    1
                ],
                "metallicFactor" : 0,
                "roughnessFactor" : 0.5
            }
        },
        {
            "doubleSided" : true,
            "name" : "Material.001",
            "pbrMetallicRoughness" : {
                "baseColorFactor" : [
                    0.800000011920929,
                    0.800000011920929,
                    0.800000011920929,
                    1
                ],
                "metallicFactor" : 0,
                "roughnessFactor" : 0.5
            }
        }
    ],
    "meshes" : [
        {
            "name" : "Circle.002",
            "primitives" : [
                {
                    "attributes" : {
                        "POSITION" : 0,
                        "NORMAL" : 1,
                        "TEXCOORD_0" : 2
                    },
                    "indices" : 3,
                    "material" : 0
                },
                {
                    "attributes" : {
                        "POSITION" : 4,
                        "NORMAL" : 5,
                        "TEXCOORD_0" : 6
                    },
                    "indices" : 7,
                    "material" : 1
                }
            ]
        },
        {
            "name" : "Circle.000",
            "primitives" : [
                {
                    "attributes" : {
                        "POSITION" : 8,
                        "NORMAL" : 9,
                        "TEXCOORD_0" : 10
                    },
                    "indices" : 11,
                    "material" : 2
                },
                {
                    "attributes" : {
                        "POSITION" : 12,
                        "NORMAL" : 13,
                        "TEXCOORD_0" : 14
                    },
                    "indices" : 15,
                    "material" : 3
                }
            ]
        },
        {
            "name" : "Circle.001",
            "primitives" : [
                {
                    "attributes" : {
                        "POSITION" : 16,
                        "NORMAL" : 17,
                        "TEXCOORD_0" : 18
                    },
                    "indices" : 19,
                    "material" : 4
                },
                {
                    "attributes" : {
                        "POSITION" : 20,
                        "NORMAL" : 21,
                        "TEXCOORD_0" : 22
                    },
                    "indices" : 23,
                    "material" : 5
                }
            ]
        },
        {
            "name" : "Torus.000",
            "primitives" : [
                {
                    "attributes" : {
                        "POSITION" : 24,
                        "NORMAL" : 25,
                        "TEXCOORD_0" : 26
                    },
                    "indices" : 27,
                    "material" : 0
                }
            ]
        },
        {
            "name" : "Torus.001",
            "primitives" : [
                {
                    "attributes" : {
                        "POSITION" : 28,
                        "NORMAL" : 29,
                        "TEXCOORD_0" : 30
                    },
                    "indices" : 27,
                    "material" : 5
                }
            ]
        },
        {
            "name" : "Torus.002",
            "primitives" : [
                {
                    "attributes" : {
                        "POSITION" : 31,
                        "NORMAL" : 32,
                        "TEXCOORD_0" : 33
                    },
                    "indices" : 27,
                    "material" : 3
                }
            ]
        }
    ],
    "accessors" : [
        {
            "bufferView" : 0,
            "componentType" : 5126,
            "count" : 692,
            "max" : [
                0.3600003719329834,
                0.39999985694885254,
                0.3600001931190491
            ],
            "min" : [
                -0.3599996566772461,
                0,
                -0.3599998354911804
            ],
            "type" : "VEC3"
        },
        {
            "bufferView" : 1,
            "componentType" : 5126,
            "count" : 692,
            "type" : "VEC3"
        },
        {
            "bufferView" : 2,
            "componentType" : 5126,
            "count" : 692,
            "type" : "VEC2"
        },
        {
            "bufferView" : 3,
            "componentType" : 5123,
            "count" : 1524,
            "type" : "SCALAR"
        },
        {
            "bufferView" : 4,
            "componentType" : 5126,
            "count" : 512,
            "max" : [
                0.3600003719329834,
                0.39999985694885254,
                0.3600001931190491
            ],
            "min" : [
                -0.3599996566772461,
                0,
                -0.3599998354911804
            ],
            "type" : "VEC3"
        },
        {
            "bufferView" : 5,
            "componentType" : 5126,
            "count" : 512,
            "type" : "VEC3"
        },
        {
            "bufferView" : 6,
            "componentType" : 5126,
            "count" : 512,
            "type" : "VEC2"
        },
        {
            "bufferView" : 7,
            "componentType" : 5123,
            "count" : 768,
            "type" : "SCALAR"
        },
        {
            "bufferView" : 8,
            "componentType" : 5126,
            "count" : 1080,
            "max" : [
                0.4500002861022949,
                0.5100001096725464,
                0.45000016689300537
            ],
            "min" : [
                -0.44999969005584717,
                0,
                -0.4499998092651367
            ],
            "type" : "VEC3"
        },
        {
            "bufferView" : 9,
            "componentType" : 5126,
            "count" : 1080,
            "type" : "VEC3"
        },
        {
            "bufferView" : 10,
            "componentType" : 5126,
            "count" : 1080,
            "type" : "VEC2"
        },
        {
            "bufferView" : 11,
            "componentType" : 5123,
            "count" : 1920,
            "type" : "SCALAR"
        },
        {
            "bufferView" : 12,
            "componentType" : 5126,
            "count" : 64,
            "max" : [
                0.3747274577617645,
                0.030135199427604675,
                0.3747272789478302
            ],
            "min" : [
                -0.3747267425060272,
                0.03013518452644348,
                -0.37472692131996155
            ],
            "type" : "VEC3"
        },
        {
            "bufferView" : 13,
            "componentType" : 5126,
            "count" : 64,
            "type" : "VEC3"
        },
        {
            "bufferView" : 14,
            "componentType" : 5126,
            "count" : 64,
            "type" : "VEC2"
        },
        {
            "bufferView" : 15,
            "componentType" : 5123,
            "count" : 186,
            "type" : "SCALAR"
        },
        {
            "bufferView" : 16,
            "componentType" : 5126,
            "count" : 1076,
            "max" : [
                0.40000033378601074,
                0.450000137090683,
                0.4000002145767212
            ],
            "min" : [
                -0.39999961853027344,
                0,
                -0.39999985694885254
            ],
            "type" : "VEC3"
        },
        {
            "bufferView" : 17,
            "componentType" : 5126,
            "count" : 1076,
            "type" : "VEC3"
        },
        {
            "bufferView" : 18,
            "componentType" : 5126,
            "count" : 1076,
            "type" : "VEC2"
        },
        {
            "bufferView" : 19,
            "componentType" : 5123,
            "count" : 1920,
            "type" : "SCALAR"
        },
        {
            "bufferView" : 20,
            "componentType" : 5126,
            "count" : 64,
            "max" : [
                0.32921096682548523,
                0.025263473391532898,
                0.3292107582092285
            ],
            "min" : [
                -0.32921016216278076,
                0.025263473391532898,
                -0.32921040058135986
            ],
            "type" : "VEC3"
        },
        {
            "bufferView" : 21,
            "componentType" : 5126,
            "count" : 64,
            "type" : "VEC3"
        },
        {
            "bufferView" : 22,
            "componentType" : 5126,
            "count" : 64,
            "type" : "VEC2"
        },
        {
            "bufferView" : 23,
            "componentType" : 5123,
            "count" : 186,
            "type" : "SCALAR"
        },
        {
            "bufferView" : 24,
            "componentType" : 5126,
            "count" : 9360,
            "max" : [
                0.3854999840259552,
                0.015943102538585663,
                0.3854999840259552
            ],
            "min" : [
                -0.3854999840259552,
                -0.01594310998916626,
                -0.3854999840259552
            ],
            "type" : "VEC3"
        },
        {
            "bufferView" : 25,
            "componentType" : 5126,
            "count" : 9360,
            "type" : "VEC3"
        },
        {
            "bufferView" : 26,
            "componentType" : 5126,
            "count" : 9360,
            "type" : "VEC2"
        },
        {
            "bufferView" : 27,
            "componentType" : 5123,
            "count" : 14040,
            "type" : "SCALAR"
        },
        {
            "bufferView" : 28,
            "componentType" : 5126,
            "count" : 9360,
            "max" : [
                0.3854999840259552,
                0.015943102538585663,
                0.3854999840259552
            ],
            "min" : [
                -0.3854999840259552,
                -0.01594310998916626,
                -0.3854999840259552
            ],
            "type" : "VEC3"
        },
        {
            "bufferView" : 29,
            "componentType" : 5126,
            "count" : 9360,
            "type" : "VEC3"
        },
        {
            "bufferView" : 30,
            "componentType" : 5126,
            "count" : 9360,
            "type" : "VEC2"
        },
        {
            "bufferView" : 31,
            "componentType" : 5126,
            "count" : 9360,
            "max" : [
                0.3854999840259552,
                0.015943102538585663,
                0.3854999840259552
            ],
            "min" : [
                -0.3854999840259552,
                -0.01594310998916626,
                -0.3854999840259552
            ],
            "type" : "VEC3"
        },
        {
            "bufferView" : 32,
            "componentType" : 5126,
            "count" : 9360,
            "type" : "VEC3"
        },
        {
            "bufferView" : 33,
            "componentType" : 5126,
            "count" : 9360,
            "type" : "VEC2"
        }
    ],
    "bufferViews" : [
        {
            "buffer" : 0,
            "byteLength" : 8304,
            "byteOffset" : 0
        },
        {
            "buffer" : 0,
            "byteLength" : 8304,
            "byteOffset" : 8304
        },
        {
            "buffer" : 0,
            "byteLength" : 5536,
            "byteOffset" : 16608
        },
        {
            "buffer" : 0,
            "byteLength" : 3048,
            "byteOffset" : 22144
        },
        {
            "buffer" : 0,
            "byteLength" : 6144,
            "byteOffset" : 25192
        },
        {
            "buffer" : 0,
            "byteLength" : 6144,
            "byteOffset" : 31336
        },
        {
            "buffer" : 0,
            "byteLength" : 4096,
            "byteOffset" : 37480
        },
        {
            "buffer" : 0,
            "byteLength" : 1536,
            "byteOffset" : 41576
        },
        {
            "buffer" : 0,
            "byteLength" : 12960,
            "byteOffset" : 43112
        },
        {
            "buffer" : 0,
            "byteLength" : 12960,
            "byteOffset" : 56072
        },
        {
            "buffer" : 0,
            "byteLength" : 8640,
            "byteOffset" : 69032
        },
        {
            "buffer" : 0,
            "byteLength" : 3840,
            "byteOffset" : 77672
        },
        {
            "buffer" : 0,
            "byteLength" : 768,
            "byteOffset" : 81512
        },
        {
            "buffer" : 0,
            "byteLength" : 768,
            "byteOffset" : 82280
        },
        {
            "buffer" : 0,
            "byteLength" : 512,
            "byteOffset" : 83048
        },
        {
            "buffer" : 0,
            "byteLength" : 372,
            "byteOffset" : 83560
        },
        {
            "buffer" : 0,
            "byteLength" : 12912,
            "byteOffset" : 83932
        },
        {
            "buffer" : 0,
            "byteLength" : 12912,
            "byteOffset" : 96844
        },
        {
            "buffer" : 0,
            "byteLength" : 8608,
            "byteOffset" : 109756
        },
        {
            "buffer" : 0,
            "byteLength" : 3840,
            "byteOffset" : 118364
        },
        {
            "buffer" : 0,
            "byteLength" : 768,
            "byteOffset" : 122204
        },
        {
            "buffer" : 0,
            "byteLength" : 768,
            "byteOffset" : 122972
        },
        {
            "buffer" : 0,
            "byteLength" : 512,
            "byteOffset" : 123740
        },
        {
            "buffer" : 0,
            "byteLength" : 372,
            "byteOffset" : 124252
        },
        {
            "buffer" : 0,
            "byteLength" : 112320,
            "byteOffset" : 124624
        },
        {
            "buffer" : 0,
            "byteLength" : 112320,
            "byteOffset" : 236944
        },
        {
            "buffer" : 0,
            "byteLength" : 74880,
            "byteOffset" : 349264
        },
        {
            "buffer" : 0,
            "byteLength" : 28080,
            "byteOffset" : 424144
        },
        {
            "buffer" : 0,
            "byteLength" : 112320,
            "byteOffset" : 452224
        },
        {
            "buffer" : 0,
            "byteLength" : 112320,
            "byteOffset" : 564544
        },
        {
            "buffer" : 0,
            "byteLength" : 74880,
            "byteOffset" : 676864
        },
        {
            "buffer" : 0,
            "byteLength" : 112320,
            "byteOffset" : 751744
        },
        {
            "buffer" : 0,
            "byteLength" : 112320,
            "byteOffset" : 864064
        },
        {
            "buffer" : 0,
            "byteLength" : 74880,
            "byteOffset" : 976384
        }
    ],
    "buffers" : [
        {
            "byteLength" : 1051264,
            "uri" : "scene.bin"
        }
    ]
}
